<svg width="173" height="175" fill="none" xmlns="http://www.w3.org/2000/svg"><g filter="url(#filter0_d_5_212)"><path d="M77.418 75.252l-11.514-1.69a4.117 4.117 0 00-3.61 1.272L54.38 83.36c-2.324 2.499-6.497 1.252-7.072-2.107l-1.94-11.475a4.112 4.112 0 00-2.334-3.038l-10.552-4.898c-3.094-1.433-3.195-5.791-.175-7.373l10.31-5.402a4.106 4.106 0 002.164-3.148l1.402-11.556c.404-3.383 4.507-4.828 6.953-2.447l8.325 8.133a4.105 4.105 0 003.661 1.096L76.548 38.9c3.337-.656 5.984 2.807 4.468 5.862l-5.153 10.426a4.099 4.099 0 00.092 3.826l5.664 10.166c1.651 2.98-.825 6.567-4.201 6.073z" fill="#EC0187"/></g><path d="M120.101 108.505c1.275 5.695-2.49 11.455-8.273 12.664-5.469 1.142-10.962-1.727-12.02-6.268-1.296-5.607 2.978-13.185 8.168-14.48 5.266-1.314 10.858 2.422 12.125 8.084z" fill="#99DDE3"/><path d="M26.36 124.266c1.128 5.589-2.65 11.292-8.064 12.198-4.873.815-9.369-2.18-10.354-6.887-1.125-5.389 2.733-10.554 8.728-11.667 5.156-.956 8.68 1.356 9.69 6.356z" fill="#FABFE2"/><defs><filter id="filter0_d_5_212" x=".101" y=".74" width="172.043" height="173.939" filterUnits="userSpaceOnUse" color-interpolation-filters="sRGB"><feFlood flood-opacity="0" result="BackgroundImageFix"/><feColorMatrix in="SourceAlpha" values="0 0 0 0 0 0 0 0 0 0 0 0 0 0 0 0 0 0 127 0" result="hardAlpha"/><feOffset dx="30" dy="30"/><feGaussianBlur stdDeviation="30"/><feComposite in2="hardAlpha" operator="out"/><feColorMatrix values="0 0 0 0 0.882353 0 0 0 0 0.784314 0 0 0 0 0.827451 0 0 0 0.4 0"/><feBlend in2="BackgroundImageFix" result="effect1_dropShadow_5_212"/><feBlend in="SourceGraphic" in2="effect1_dropShadow_5_212" result="shape"/></filter></defs></svg>