<svg width="99" height="118" fill="none" xmlns="http://www.w3.org/2000/svg"><g clip-path="url(#clip0_243_4)"><path d="M87.057 34.128c1.128 5.588-2.65 11.292-8.063 12.197-4.873.816-9.37-2.18-10.355-6.886-1.125-5.39 2.733-10.555 8.728-11.668 5.156-.956 8.68 1.357 9.69 6.357z" fill="#FABFE2"/><g filter="url(#filter0_d_243_4)" fill="#EC0187"><path d="M32.008 54.411S24.347 61.5 19.885 73.836c-4.463 12.335-2.038 25.265 4.664 29.459 6.721 4.183 10.714 4.826 15.093 3.992 4.398-.845 11.77-2.373 18.668-7.659 6.933-5.31 9.025-7.947 9.778-8.765.752-.818 2.113-3.004.824-4.796-1.29-1.793-3.494-3.947-4.279-6.87-.785-2.923-2.262-11.11-3.931-14.584-1.65-3.486-4.924-5.08-9.742-5.177-4.835-.086-7.577.643-9.118-1.065-1.54-1.708-1.435-3.748-3.844-4.54-2.39-.803-4.262-.787-5.99.58z"/><path d="M36.117 109.765s1.755 1.948 6.728 2.256c4.99.297 9.736-.924 14.825-2.968 5.07-2.034 11.496-6.847 14.828-10.295 3.315-3.437 4.704-5.187 2.321-6.055-2.4-.857-2.873.698-3.933 1.68-1.06.983-6.283 6.6-10.571 9.087-4.27 2.475-11.116 5.691-15.618 6.243-5.026.622-7.362-.018-8.58.052z"/></g><path d="M11.323 2.19c2.197-1.333 5.037-.692 6.345 1.437l9.69 15.736c1.307 2.117.587 4.911-1.61 6.244-2.197 1.332-5.038.68-6.345-1.438L9.712 8.434C8.405 6.316 9.126 3.51 11.323 2.19z" fill="#99DDE3"/></g><defs><clipPath id="clip0_243_4"><path fill="#fff" d="M0 0h99v118H0z"/></clipPath><filter id="filter0_d_243_4" x="-12.382" y="33.292" width="178.396" height="178.773" filterUnits="userSpaceOnUse" color-interpolation-filters="sRGB"><feFlood flood-opacity="0" result="BackgroundImageFix"/><feColorMatrix in="SourceAlpha" values="0 0 0 0 0 0 0 0 0 0 0 0 0 0 0 0 0 0 127 0" result="hardAlpha"/><feOffset dx="30" dy="40"/><feGaussianBlur stdDeviation="30"/><feComposite in2="hardAlpha" operator="out"/><feColorMatrix values="0 0 0 0 0.882353 0 0 0 0 0.784314 0 0 0 0 0.827451 0 0 0 0.3 0"/><feBlend in2="BackgroundImageFix" result="effect1_dropShadow_243_4"/><feBlend in="SourceGraphic" in2="effect1_dropShadow_243_4" result="shape"/></filter></defs></svg>