<svg width="214" height="283" fill="none" xmlns="http://www.w3.org/2000/svg"><g filter="url(#filter0_d_14_2)"><path d="M80.806 117.935c-9.25-1.969-18.564 4.158-20.781 13.652-2.217 9.495 3.489 18.818 12.74 20.787 9.25 1.969 18.564-4.158 20.781-13.653 2.217-9.495-3.49-18.817-12.74-20.786zm-14.883 63.738c-24.98-5.316-40.413-30.505-34.423-56.157 5.99-25.65 31.169-42.198 56.149-36.882 24.979 5.316 40.412 30.507 34.422 56.157-5.99 25.652-31.169 42.198-56.148 36.882z" fill="#FABFE2"/></g><g filter="url(#filter1_d_14_2)"><path d="M100.146 46.322l-6.66-.977a2.381 2.381 0 00-2.087.736l-4.578 4.931c-1.344 1.446-3.758.725-4.09-1.219l-1.123-6.636a2.378 2.378 0 00-1.35-1.758l-6.103-2.833c-1.79-.829-1.848-3.35-.1-4.265l5.962-3.124a2.375 2.375 0 001.252-1.82l.81-6.685c.235-1.957 2.608-2.792 4.023-1.416l4.815 4.705a2.374 2.374 0 002.117.634l6.609-1.3c1.93-.379 3.461 1.624 2.585 3.391l-2.981 6.03a2.37 2.37 0 00.053 2.214l3.276 5.88c.955 1.723-.477 3.798-2.43 3.512z" fill="#99DDE3"/></g><defs><filter id="filter0_d_14_2" x=".209" y="67.64" width="213.153" height="215.027" filterUnits="userSpaceOnUse" color-interpolation-filters="sRGB"><feFlood flood-opacity="0" result="BackgroundImageFix"/><feColorMatrix in="SourceAlpha" values="0 0 0 0 0 0 0 0 0 0 0 0 0 0 0 0 0 0 127 0" result="hardAlpha"/><feOffset dx="30" dy="40"/><feGaussianBlur stdDeviation="30"/><feComposite in2="hardAlpha" operator="out"/><feColorMatrix values="0 0 0 0 0.882353 0 0 0 0 0.784314 0 0 0 0 0.827451 0 0 0 0.3 0"/><feBlend in2="BackgroundImageFix" result="effect1_dropShadow_14_2"/><feBlend in="SourceGraphic" in2="effect1_dropShadow_14_2" result="shape"/></filter><filter id="filter1_d_14_2" x="42.778" y=".576" width="150.102" height="151.198" filterUnits="userSpaceOnUse" color-interpolation-filters="sRGB"><feFlood flood-opacity="0" result="BackgroundImageFix"/><feColorMatrix in="SourceAlpha" values="0 0 0 0 0 0 0 0 0 0 0 0 0 0 0 0 0 0 127 0" result="hardAlpha"/><feOffset dx="30" dy="40"/><feGaussianBlur stdDeviation="30"/><feComposite in2="hardAlpha" operator="out"/><feColorMatrix values="0 0 0 0 0.882353 0 0 0 0 0.784314 0 0 0 0 0.827451 0 0 0 0.3 0"/><feBlend in2="BackgroundImageFix" result="effect1_dropShadow_14_2"/><feBlend in="SourceGraphic" in2="effect1_dropShadow_14_2" result="shape"/></filter></defs></svg>