<svg width="82" height="91" fill="none" xmlns="http://www.w3.org/2000/svg"><path d="M60.178 45.194c3.804.733 6.258 4.417 5.474 8.236l-5.76 28.256c-.774 3.804-4.48 6.292-8.284 5.559-3.804-.733-6.246-4.43-5.474-8.236l5.76-28.256c.774-3.804 4.492-6.306 8.284-5.559z" fill="#fff"/><path d="M3.284 41.493c1.304-2.115 4.094-2.69 6.233-1.28l15.838 10.411c2.133 1.401 2.805 4.247 1.5 6.362-1.305 2.114-4.1 2.68-6.234 1.28L4.783 47.854c-2.133-1.4-2.81-4.257-1.5-6.361z" fill="#D92F84"/><path d="M44.546 8.438c3.657 4.548 2.821 11.38-1.835 15.015-4.404 3.439-10.6 3.288-13.553-.32-3.637-4.46-3.145-13.146.94-16.598C34.234 3.04 40.91 3.918 44.546 8.438z" fill="#BEF7FF"/></svg>