<svg width="123" height="155" fill="none" xmlns="http://www.w3.org/2000/svg"><g clip-path="url(#clip0_245_17)"><path d="M72.309 6.893c2.288 1.38 2.402 4.499.247 6.968L56.64 32.137c-2.142 2.461-5.728 3.337-8.016 1.956-2.287-1.381-2.388-4.506-.247-6.968L64.293 8.849c2.142-2.462 5.742-3.344 8.016-1.956z" fill="#fff"/><g filter="url(#filter0_d_245_17)"><path d="M71.927 138.532c1.126 2.216 3.343 3.237 6.218 3.251 1.054 0 2.083-.036 3.106-.117 6.099-.491 12.213-2.988 17.062-7l.057-.041c.88-.733 1.78-1.791 2.012-2.738 1.001-4.202 4.476-5.991 8.365-7.446 1.027-.384 2.094-.613 3.073-1.046 4.229-1.874 6.141-4.91 5.197-8.636-.43-1.613-1.189-3.206-2.22-4.501-2.033-2.521-5.26-2.537-8.669-1.372-1.962.672-3.054.369-3.814-1.069-.595-1.112-.046-.204-.68-1.293-.796-1.4-.207-3.29 1.341-4.462 2.811-2.134 3.882-4.468 2.901-7.329-1.098-3.147-3.176-5.203-7.258-5.117-1.031.022-3.657-.15-4.717-.024-3.136.371-1.211 2.69-1.055-.174a36.138 36.138 0 00-.338-6.955c-.45-2.914-2.364-4.982-4.968-6.456-.935-.532-1.468-1.48-1.477-2.542-.059-3.258-2.06-5.196-5.387-5.353-3.93-.18-7.62 1.703-9.133 4.793-.526 1.077-1.248 1.582-2.404 2.084-1.666.724-3.278 1.714-4.777 2.776-.891.64-1.547 1.016-2.439.5-3.035-1.779-7.752-.492-10.158 4.042-1.654 3.117-2.116 6.01.842 8.164.545.39.941 1.237.88 1.898-.752 6.348 2.44 10.685 7.226 14.057 1.655 1.163.518-1.304.025.853-1.134 4.95-.23 9.502 2.906 13.07 3.155 3.552 3.442 5.832 4.824 10.248.884 2.751 2.144 5.368 3.459 7.935z" fill="#91D7E1"/></g><path d="M20.491 57.628c1.129 5.588-2.65 11.292-8.063 12.197-4.873.815-9.37-2.18-10.355-6.886-1.124-5.39 2.734-10.555 8.729-11.668 5.155-.956 8.68 1.357 9.69 6.357z" fill="#FEE927"/></g><defs><clipPath id="clip0_245_17"><path fill="#fff" d="M0 0h123v155H0z"/></clipPath><filter id="filter0_d_245_17" x="20.453" y="48.1" width="186.8" height="193.683" filterUnits="userSpaceOnUse" color-interpolation-filters="sRGB"><feFlood flood-opacity="0" result="BackgroundImageFix"/><feColorMatrix in="SourceAlpha" values="0 0 0 0 0 0 0 0 0 0 0 0 0 0 0 0 0 0 127 0" result="hardAlpha"/><feOffset dx="30" dy="40"/><feGaussianBlur stdDeviation="30"/><feComposite in2="hardAlpha" operator="out"/><feColorMatrix values="0 0 0 0 0.882353 0 0 0 0 0.784314 0 0 0 0 0.827451 0 0 0 0.3 0"/><feBlend in2="BackgroundImageFix" result="effect1_dropShadow_245_17"/><feBlend in="SourceGraphic" in2="effect1_dropShadow_245_17" result="shape"/></filter></defs></svg>