<svg width="174" height="175" fill="none" xmlns="http://www.w3.org/2000/svg"><path d="M22.514 79.621c2.63-.022 5.312 1.954 5.986 4.42l5.015 18.242c.677 2.456-.905 4.464-3.536 4.486-2.63.023-5.308-1.963-5.986-4.419l-5.015-18.242c-.677-2.456.908-4.474 3.536-4.487z" fill="#91D7E1"/><g filter="url(#filter0_d_4_210)"><path d="M78.311 64.695l-11.513-1.689a4.117 4.117 0 00-3.61 1.272l-7.915 8.525c-2.323 2.5-6.497 1.253-7.071-2.107l-1.94-11.474a4.112 4.112 0 00-2.334-3.039l-10.552-4.898c-3.095-1.433-3.196-5.79-.175-7.373L43.51 38.51a4.106 4.106 0 002.164-3.147l1.403-11.556c.404-3.384 4.507-4.829 6.953-2.448l8.325 8.133a4.105 4.105 0 003.66 1.096l11.426-2.246c3.337-.656 5.985 2.807 4.469 5.863L76.757 44.63a4.1 4.1 0 00.091 3.826l5.665 10.167c1.65 2.979-.825 6.567-4.202 6.072z" fill="#FAC8E5"/></g><defs><filter id="filter0_d_4_210" x=".994" y=".183" width="172.043" height="173.939" filterUnits="userSpaceOnUse" color-interpolation-filters="sRGB"><feFlood flood-opacity="0" result="BackgroundImageFix"/><feColorMatrix in="SourceAlpha" values="0 0 0 0 0 0 0 0 0 0 0 0 0 0 0 0 0 0 127 0" result="hardAlpha"/><feOffset dx="30" dy="40"/><feGaussianBlur stdDeviation="30"/><feComposite in2="hardAlpha" operator="out"/><feColorMatrix values="0 0 0 0 0.882353 0 0 0 0 0.784314 0 0 0 0 0.827451 0 0 0 0.3 0"/><feBlend in2="BackgroundImageFix" result="effect1_dropShadow_4_210"/><feBlend in="SourceGraphic" in2="effect1_dropShadow_4_210" result="shape"/></filter></defs></svg>