<svg width="140" height="138" fill="none" xmlns="http://www.w3.org/2000/svg"><g clip-path="url(#clip0_245_22)"><g filter="url(#filter0_d_245_22)"><path d="M89.418 69.753l-11.514-1.69a4.117 4.117 0 00-3.61 1.272L66.38 77.86c-2.324 2.498-6.497 1.252-7.072-2.108l-1.94-11.474a4.112 4.112 0 00-2.334-3.038l-10.552-4.899c-3.094-1.433-3.195-5.79-.175-7.373l10.31-5.401a4.106 4.106 0 002.164-3.148l1.402-11.556c.404-3.384 4.507-4.828 6.953-2.448l8.325 8.134a4.105 4.105 0 003.661 1.096l11.426-2.247c3.337-.656 5.984 2.807 4.468 5.863l-5.153 10.426a4.099 4.099 0 00.092 3.825l5.664 10.167c1.651 2.98-.825 6.567-4.201 6.073z" fill="#99DDE3"/></g><path d="M132.101 103.005c1.275 5.695-2.49 11.456-8.273 12.664-5.469 1.143-10.962-1.726-12.019-6.268-1.297-5.607 2.977-13.185 8.167-14.48 5.266-1.314 10.858 2.423 12.125 8.084z" fill="#99DDE3"/><path d="M23.991 12.785c1.275 5.695-2.49 11.457-8.273 12.664-5.47 1.143-10.962-1.726-12.02-6.268-1.296-5.607 2.978-13.183 8.167-14.48 5.254-1.31 10.859 2.424 12.126 8.084z" fill="#fff"/><path d="M38.36 118.767c1.128 5.588-2.65 11.292-8.064 12.197-4.873.815-9.369-2.18-10.354-6.886-1.125-5.39 2.733-10.555 8.728-11.668 5.156-.956 8.68 1.357 9.69 6.357z" fill="#FEE927"/></g><defs><clipPath id="clip0_245_22"><path fill="#fff" d="M0 0h140v138H0z"/></clipPath><filter id="filter0_d_245_22" x="12.101" y="-4.76" width="172.044" height="173.939" filterUnits="userSpaceOnUse" color-interpolation-filters="sRGB"><feFlood flood-opacity="0" result="BackgroundImageFix"/><feColorMatrix in="SourceAlpha" values="0 0 0 0 0 0 0 0 0 0 0 0 0 0 0 0 0 0 127 0" result="hardAlpha"/><feOffset dx="30" dy="30"/><feGaussianBlur stdDeviation="30"/><feComposite in2="hardAlpha" operator="out"/><feColorMatrix values="0 0 0 0 0.882353 0 0 0 0 0.784314 0 0 0 0 0.827451 0 0 0 0.4 0"/><feBlend in2="BackgroundImageFix" result="effect1_dropShadow_245_22"/><feBlend in="SourceGraphic" in2="effect1_dropShadow_245_22" result="shape"/></filter></defs></svg>