<svg width="36" height="31" viewBox="0 0 36 31" fill="none" xmlns="http://www.w3.org/2000/svg">
<path fill-rule="evenodd" clip-rule="evenodd" d="M27.4087 18.777C29.804 16.6838 32.6854 15.9916 34.5509 15.9916C35.269 15.9916 35.8582 15.423 35.8838 14.7054C35.9094 13.9877 35.3622 13.3786 34.6459 13.3275C32.7404 13.1914 29.8139 12.3586 27.3904 10.3169C25.0172 8.31756 23.0529 5.10235 23.0529 -0.000108827L20.3854 -0.000108594C20.3854 5.8909 22.6984 9.85199 25.6717 12.3569C26.0891 12.7085 26.518 13.0303 26.9535 13.3241L-1.47813e-06 13.3241L-1.24493e-06 15.9916L26.6279 15.9916C26.2977 16.2312 25.9722 16.4898 25.6534 16.7683C22.6554 19.3882 20.3854 23.6663 20.3854 30.2319L23.0529 30.2319C23.0529 24.3383 25.0602 20.8293 27.4087 18.777Z" fill="#91D7E1"/>
</svg>
