<svg width="30" height="31" viewBox="0 0 30 31" fill="none" xmlns="http://www.w3.org/2000/svg">
<path d="M15 1.47437C12.0163 1.47437 9.15483 2.65963 7.04505 4.76941C4.93526 6.8792 3.75 9.74068 3.75 12.7244C3.75 22.7244 15 28.9744 15 28.9744C15 28.9744 26.25 22.7244 26.25 12.7244C26.25 9.74068 25.0647 6.8792 22.955 4.76941C20.8452 2.65963 17.9837 1.47437 15 1.47437ZM15 17.7244C14.0111 17.7244 13.0444 17.4311 12.2221 16.8817C11.3999 16.3323 10.759 15.5514 10.3806 14.6378C10.0022 13.7242 9.90315 12.7188 10.0961 11.7489C10.289 10.779 10.7652 9.88809 11.4645 9.18883C12.1637 8.48957 13.0546 8.01337 14.0245 7.82044C14.9945 7.62751 15.9998 7.72653 16.9134 8.10497C17.827 8.48341 18.6079 9.12427 19.1573 9.94651C19.7068 10.7688 20 11.7355 20 12.7244C20 14.0504 19.4732 15.3222 18.5355 16.2599C17.5979 17.1976 16.3261 17.7244 15 17.7244Z" fill="#D92F84"/>
</svg>
