<svg width="37" height="37" viewBox="0 0 37 37" fill="none" xmlns="http://www.w3.org/2000/svg">
<path d="M34.4834 9.83211C33.3015 10.3575 32.0295 10.7119 30.6949 10.8705C32.0576 10.0547 33.1024 8.76244 33.5952 7.2209C32.3206 7.97731 30.9096 8.52618 29.4065 8.82248C28.2037 7.5407 26.4893 6.73926 24.592 6.73926C20.9497 6.73926 17.9965 9.69244 17.9965 13.3355C17.9965 13.8517 18.0546 14.3549 18.1675 14.8385C12.6853 14.5631 7.82447 11.9375 4.57107 7.94664C4.00327 8.92037 3.67826 10.0534 3.67826 11.2633C3.67826 13.5515 4.84256 15.5708 6.61252 16.7533C5.53175 16.7187 4.51429 16.4218 3.62474 15.9277C3.62409 15.9552 3.62409 15.9832 3.62409 16.0113C3.62409 19.2066 5.89788 21.872 8.91568 22.4789C8.36224 22.629 7.77944 22.71 7.1777 22.71C6.75218 22.71 6.33906 22.6688 5.93639 22.5912C6.77633 25.2115 9.21198 27.1192 12.0979 27.172C9.84047 28.9413 6.99692 29.996 3.90603 29.996C3.37413 29.996 2.84876 29.9647 2.33252 29.9033C5.25242 31.7758 8.71923 32.867 12.4438 32.867C24.577 32.867 31.2111 22.8163 31.2111 14.0997C31.2111 13.8139 31.2052 13.5286 31.1928 13.2454C32.4811 12.3174 33.5997 11.155 34.4834 9.83211Z" fill="#D92F84"/>
</svg>
