<svg width="227" height="227" fill="none" xmlns="http://www.w3.org/2000/svg"><path d="M224.375 113.228c0 61.385-49.762 111.147-111.147 111.147-61.385 0-111.147-49.762-111.147-111.147 0-61.385 49.762-111.147 111.147-111.147 61.385 0 111.147 49.762 111.147 111.147z" fill="#FFF5FA"/><path d="M166.136 206.445c-.386.229-.742.085-.943-.254-.238-.401-1.275-2.538-2.574-4.729-.996-1.681-.446-3.884 1.22-4.872 1.681-.996 3.862-.413 4.859 1.269 1.298 2.191 2.675 4.126 2.913 4.528.201.339.156.72-.23.949l-1.295.768c-.386.229-.742.085-.943-.254-.238-.401-.415-.734-1.431-2.801-.31-.629-2.186-4.145-3.297-3.487-1.111.659 1.074 3.992 1.477 4.567 1.324 1.883 1.532 2.198 1.77 2.599.201.339.156.72-.23.949l-1.296.768zm-9.397 1.084c-.505-1.031-.437-2.282.109-3.207-1.434-1.176-2.2-1.64-2.534-1.916-.318-.283-.372-.597.015-.786l1.321-.645c.403-.197.859-.081 1.178.203.27.227.811.801 1.821 1.724l.677-.33-1.032-2.111c-.174-.355-.098-.731.289-.92l1.176-.575c.403-.197.73-.017.903.337.197.403.643 1.722 1.651 3.785 1 2.046 1.768 3.208 1.972 3.627.174.354.114.722-.289.919l-3.109 1.521c-1.499.732-3.384-.063-4.148-1.626zm4.989-.043l-1.906-3.899c-.902.441-1.243 1.705-.723 2.768.496 1.015 1.719 1.556 2.629 1.131zm-11.998 5.136c.759-.604-.76-1.483-2.177-1.846-1.803-.439-3.21-.938-3.667-2.26-.546-1.576.405-3.215 2.62-3.888 1.278-.366 3.029-.46 3.464.794.457 1.322-.499 2.507-1.7 2.107-.837-.28-2.154-1.835-2.647-1.285-.476.544 1.21 1.574 2.568 1.825 1.825.336 3.034.98 3.463 2.217.552 1.593-.435 3.13-2.621 3.887-1.491.516-3.029.461-3.457-.777-.247-.711-.114-1.972.751-2.271 1.203-.417 2.661 2.096 3.403 1.497zm-11.952 4.698c-1.722.434-2.108-3.075-.891-3.382 1.183-.299 1.449 2.076 2.388 1.839 0 0-.274-1.892-.713-3.631-.561-2.225-1.091-3.516-1.2-3.951-.097-.382.055-.735.472-.84l1.269-.321c.435-.109.718.134.815.516.11.435.274 1.818.835 4.044.439 1.738 1.078 3.538 1.078 3.538.957-.242.064-2.458 1.229-2.752 1.218-.307 2.56 2.961.821 3.4l-6.103 1.54zm-6.68 1.363c-2.587.403-4.276-1.004-4.781-4.247-.505-3.243.676-5.097 3.264-5.5 2.587-.402 4.276 1.004 4.781 4.247.505 3.243-.677 5.097-3.264 5.5zm-1.388-8.914c-.709.111-.889 1.518-.469 4.212.419 2.693 1.019 3.979 1.727 3.869.692-.108.872-1.515.452-4.209-.419-2.693-1.019-3.979-1.71-3.872zm-11.239 6.815c-.08-1.145.452-2.279 1.305-2.932-.887-1.627-1.423-2.345-1.629-2.726-.189-.382-.121-.693.309-.723l1.467-.103c.447-.031.826.248 1.015.63.165.312.45 1.048 1.04 2.283l.752-.053-.164-2.344c-.028-.393.183-.714.613-.744l1.306-.091c.447-.031.683.258.71.651.032.447-.051 1.838.11 4.128.159 2.272.434 3.637.467 4.102.027.393-.166.713-.613.744l-3.453.242c-1.664.116-3.113-1.328-3.235-3.064zm4.641 1.833l-.303-4.33c-1.002.07-1.792 1.114-1.709 2.295.079 1.127 1.009 2.087 2.012 2.035zm-12.967 1.452c-.753-.008-.783-.6-.617-.975.202-.464 2.365-4.997 2.568-5.515.055-.107.092-.214.129-.322-.042-1.112-.125-1.812-.122-2.117.005-.395.241-.697.671-.693l1.327.014c.431.005.643.312.639.706-.004.305-.083 1.004-.148 2.115l.104.324c.192.522 2.279 5.099 2.471 5.568.158.378.098.969-.637.962l-1.274-.014c-.43-.004-.786-.313-.943-.709-.157-.378-.334-4.129-.925-4.135-.574-.006-.846 3.74-1.012 4.115-.165.393-.527.694-.958.689l-1.273-.013zm-7.075-4.231c-.068.534-.206.95-.413 1.249-.22.31-.487.517-.802.621a2.424 2.424 0 01-1.041.085 2.292 2.292 0 01-.969-.341c-.279-.18-.486-.448-.621-.802-.137-.343-.172-.781-.104-1.315.067-.522.21-.938.43-1.247.219-.298.486-.505.803-.621a2.28 2.28 0 011.023-.086c.368.046.697.161.987.342.277.192.484.46.621.803.123.353.152.79.086 1.312zm-14.74 1.19c-2.539-.64-3.545-2.595-2.743-5.777.802-3.183 2.614-4.428 5.153-3.788 2.539.64 3.544 2.595 2.743 5.777-.802 3.183-2.614 4.428-5.153 3.788zm2.204-8.748c-.696-.175-1.411 1.05-2.077 3.694-.666 2.643-.617 4.061.079 4.237.678.17 1.394-1.055 2.06-3.698.666-2.644.616-4.062-.062-4.233zm-13.736 5.096c-.424-.146-.545-.51-.417-.883.151-.441 1.107-2.616 1.934-5.024.636-1.849 2.67-2.857 4.501-2.228 1.849.635 2.817 2.674 2.182 4.523-.827 2.409-1.41 4.712-1.561 5.153-.128.373-.448.585-.872.44l-1.425-.49c-.424-.145-.545-.509-.417-.883.152-.441.291-.791 1.206-2.904.278-.644 1.742-4.351.52-4.77-1.221-.42-2.345 3.404-2.521 4.083-.576 2.229-.682 2.591-.833 3.032-.128.373-.448.586-.872.44l-1.425-.489zm-6.969-6.496c.46-1.052 1.456-1.811 2.515-1.994-.032-1.854-.174-2.738-.18-3.171.01-.426.214-.67.608-.498l1.348.589c.411.18.617.603.607 1.029.003.353-.085 1.137-.135 2.504l.691.302.94-2.153c.158-.362.494-.548.888-.375l1.2.524c.411.179.486.545.328.906-.18.411-.897 1.605-1.816 3.709-.911 2.087-1.3 3.424-1.486 3.851-.158.362-.478.555-.889.376l-3.171-1.386c-1.529-.667-2.144-2.619-1.448-4.213zm3.264 3.774l1.737-3.978c-.92-.402-2.104.158-2.578 1.242-.452 1.036-.072 2.317.841 2.736zm-11.738-5.87c.952.188.64-1.538.002-2.854-.831-1.659-1.359-3.056-.646-4.259.85-1.435 2.715-1.769 4.66-.513 1.105.737 2.309 2.013 1.633 3.155-.713 1.204-2.235 1.24-2.706.065-.328-.819.008-2.83-.731-2.85-.722-.011-.419 1.94.268 3.139.923 1.609 1.214 2.948.547 4.075-.859 1.451-2.67 1.692-4.66.513-1.358-.804-2.31-2.013-1.643-3.14.384-.648 1.432-1.362 2.219-.896 1.096.649.121 3.386 1.057 3.565zm-11.231-6.022c-1.448-1.028.972-3.599 1.995-2.872.995.706-.639 2.449.151 3.01 0 0 1.261-1.436 2.299-2.898 1.329-1.872 1.968-3.112 2.227-3.478.229-.322.596-.435.946-.186l1.068.758c.366.259.365.633.136.954-.259.366-1.205 1.388-2.534 3.26a45.693 45.693 0 00-1.993 3.116c.805.571 1.912-1.546 2.892-.85 1.023.726-.592 3.869-2.054 2.831l-5.133-3.645zm-5.348-4.217c-1.982-1.711-2.002-3.91.143-6.393 2.145-2.484 4.323-2.783 6.305-1.072 1.981 1.712 2.002 3.91-.143 6.394-2.146 2.484-4.324 2.783-6.305 1.071zm5.897-6.827c-.543-.469-1.733.305-3.515 2.368-1.782 2.063-2.374 3.352-1.831 3.821.529.457 1.719-.316 3.501-2.379 1.782-2.063 2.374-3.353 1.845-3.81zm-12.463-4.162c.821-.803 2.03-1.131 3.08-.904.666-1.73.866-2.603 1.023-3.007.169-.391.45-.54.751-.232l1.028 1.052c.313.32.346.79.177 1.181-.131.328-.506 1.022-1.066 2.271l.527.538 1.68-1.642c.282-.276.663-.322.964-.014l.915.936c.313.321.246.688-.036.963-.321.314-1.434 1.151-3.075 2.756-1.629 1.592-2.491 2.685-2.825 3.011-.282.276-.65.335-.964.015l-2.419-2.476c-1.166-1.192-1.004-3.232.24-4.448zm1.608 4.723l3.104-3.034c-.702-.718-2.009-.644-2.856.183-.808.79-.937 2.12-.248 2.851zm-9.5-8.96c-.481-.579-.049-.985.344-1.101.485-.146 5.341-1.429 5.867-1.61.118-.027.223-.068.329-.109.821-.752 1.302-1.268 1.536-1.463.304-.252.687-.267.962.064l.848 1.021c.275.331.178.691-.125.943-.235.195-.819.587-1.708 1.256l-.18.289c-.274.484-2.415 5.036-2.647 5.486-.187.365-.676.701-1.146.136l-.814-.98c-.275-.331-.27-.802-.069-1.178.186-.365 2.932-2.925 2.554-3.38-.367-.442-3.399 1.774-3.792 1.89-.406.128-.87.047-1.145-.284l-.814-.98zm-1.585-8.477c-.452.292-.859.456-1.221.49-.378.031-.709-.04-.992-.213a2.41 2.41 0 01-.735-.742 2.284 2.284 0 01-.364-.961c-.042-.328.029-.659.213-.991.174-.326.487-.635.939-.927.442-.285.852-.444 1.23-.475a1.73 1.73 0 01.992.214c.283.173.525.415.726.726.201.312.326.637.374.976.031.335-.04.666-.214.992-.19.322-.506.626-.948.911zm-10.398-10.498c-1.15-2.352-.306-4.382 2.643-5.823 2.948-1.442 5.069-.861 6.219 1.491 1.15 2.353.305 4.382-2.643 5.824-2.949 1.441-5.069.861-6.219-1.492zm8.104-3.962c-.315-.644-1.712-.4-4.161.797-2.449 1.198-3.501 2.151-3.186 2.795.307.628 1.705.384 4.154-.813s3.501-2.15 3.193-2.779zm-12.731-7.227c-.161-.418.04-.745.408-.887.435-.167 2.715-.833 5.092-1.748 1.825-.702 3.904.208 4.6 2.016.702 1.824-.238 3.877-2.062 4.579-2.377.914-4.516 1.949-4.951 2.116-.368.142-.736.034-.897-.385l-.541-1.406c-.161-.418.039-.745.408-.887.435-.167.793-.286 3-.943.672-.201 4.452-1.463 3.988-2.668-.463-1.206-4.115.392-4.748.693-2.078.992-2.423 1.144-2.859 1.311-.368.142-.736.034-.897-.385l-.541-1.406zm.502-9.514c1.102-.322 2.323-.044 3.143.651 1.401-1.214 1.988-1.89 2.317-2.173.333-.266.651-.265.772.148l.412 1.411c.126.431-.066.861-.399 1.126-.27.229-.927.664-2.008 1.503l.211.723 2.255-.659c.379-.111.737.027.858.44l.367 1.257c.126.43-.106.722-.485.833-.43.126-1.806.341-4.009.986-2.186.639-3.461 1.199-3.909 1.33-.379.111-.732-.01-.857-.441l-.972-3.322c-.468-1.601.634-3.325 2.304-3.813zm-.802 4.925l4.166-1.219c-.282-.964-1.471-1.513-2.607-1.181-1.084.318-1.824 1.431-1.559 2.4zm-3.029-12.7c.469.849 1.589-.501 2.184-1.837.734-1.705 1.461-3.008 2.841-3.239 1.645-.275 3.102.937 3.395 3.233.148 1.321-.052 3.064-1.361 3.282-1.38.231-2.388-.91-1.793-2.027.415-.779 2.169-1.817 1.709-2.395-.457-.56-1.754.929-2.228 2.227-.636 1.743-1.473 2.828-2.765 3.044-1.662.277-3.013-.951-3.395-3.233-.26-1.557.052-3.064 1.344-3.28.743-.124 1.963.218 2.114 1.12.21 1.256-2.511 2.274-2.045 3.105zm-2.614-12.472c-.144-1.77 3.381-1.57 3.482-.318.099 1.215-2.287 1.085-2.208 2.05 0 0 1.91.043 3.698-.102 2.288-.186 3.649-.494 4.095-.53.394-.032.716.176.751.605l.106 1.305c.036.447-.25.686-.643.718-.447.036-1.838-.031-4.126.154-1.788.145-3.668.478-3.668.478.08.983 2.413.47 2.51 1.667.102 1.252-3.344 2.035-3.489.247l-.508-6.274zm-.221-6.752c.027-2.619 1.692-4.054 4.974-4.02 3.282.034 4.916 1.504 4.889 4.122-.027 2.619-1.692 4.054-4.974 4.02-3.282-.034-4.916-1.504-4.889-4.122zm9.02.094c.008-.718-1.351-1.126-4.077-1.155-2.726-.028-4.093.352-4.1 1.07-.008.699 1.351 1.108 4.077 1.136 2.726.028 4.093-.352 4.1-1.051zm-4.843-12.276c1.142.112 2.171.825 2.673 1.776 1.753-.603 2.55-1.012 2.96-1.152.408-.122.703-.003.661.425l-.144 1.464c-.043.446-.382.773-.79.896-.335.111-1.108.269-2.424.645l-.074.75 2.339.229c.392.038.673.3.631.728l-.128 1.303c-.043.447-.368.631-.761.593-.446-.044-1.803-.357-4.087-.581-2.267-.223-3.659-.179-4.123-.224-.393-.039-.675-.283-.631-.729l.337-3.445c.163-1.66 1.829-2.848 3.561-2.678zm-2.581 4.27l4.319.423c.098-.999-.8-1.952-1.978-2.068-1.124-.11-2.226.647-2.341 1.645zm.727-13.017c.133-.742.722-.672 1.064-.447.424.277 4.534 3.165 5.011 3.451.096.072.196.126.295.18 1.104.144 1.809.179 2.109.233.388.07.647.353.571.777l-.235 1.306c-.076.424-.414.582-.802.512-.3-.054-.976-.248-2.061-.498l-.337.049c-.547.102-5.407 1.398-5.901 1.51-.399.092-.972-.065-.842-.789l.225-1.254c.076-.423.439-.722.856-.811.399-.093 4.127.358 4.231-.225.102-.565-3.547-1.456-3.889-1.682-.36-.228-.596-.635-.52-1.059l.225-1.253zm5.345-6.258c-.515-.156-.902-.361-1.163-.615-.268-.269-.428-.567-.478-.895a2.421 2.421 0 01.09-1.041c.108-.354.274-.654.498-.898.224-.245.522-.404.894-.479.361-.078.799-.039 1.314.117.503.153.889.364 1.158.632.257.266.416.564.478.895.051.328.022.669-.085 1.023a2.41 2.41 0 01-.503.916 1.725 1.725 0 01-.894.479c-.369.063-.805.018-1.309-.134zm1.283-14.728c1.057-2.396 3.152-3.059 6.155-1.734 3.003 1.325 3.926 3.32 2.869 5.716-1.057 2.395-3.153 3.058-6.156 1.734-3.002-1.325-3.925-3.32-2.868-5.716zm8.253 3.641c.289-.656-.798-1.567-3.292-2.667-2.494-1.101-3.901-1.29-4.19-.634-.283.64.805 1.551 3.299 2.652 2.494 1.1 3.9 1.289 4.183.649zM22.04 59.753c.215-.393.595-.451.941-.261.409.223 2.39 1.533 4.624 2.756 1.715.939 2.364 3.114 1.434 4.813-.939 1.715-3.113 2.324-4.827 1.385-2.234-1.223-4.405-2.187-4.814-2.41-.346-.19-.502-.541-.286-.934l.723-1.322c.215-.393.595-.451.941-.261.409.224.731.42 2.658 1.68.588.383 3.994 2.452 4.614 1.32.62-1.133-2.958-2.888-3.598-3.176-2.099-.945-2.438-1.111-2.847-1.335-.346-.189-.502-.54-.287-.933l.724-1.322zm7.455-5.606c.96.629 1.541 1.738 1.545 2.813 1.833.278 2.728.285 3.157.351.418.081.624.323.389.684l-.806 1.23c-.246.375-.697.508-1.116.427-.348-.057-1.106-.274-2.447-.551l-.412.63 1.965 1.287c.331.216.458.578.222.938l-.717 1.095c-.245.375-.618.388-.949.172-.375-.245-1.432-1.152-3.352-2.409-1.906-1.248-3.16-1.854-3.55-2.109-.33-.216-.467-.564-.221-.939l1.895-2.896c.914-1.395 2.941-1.676 4.397-.723zm-4.267 2.588l3.632 2.377c.55-.84.196-2.101-.794-2.749-.946-.619-2.273-.459-2.838.372zm7.86-10.74c-.347.906 1.408.891 2.813.485 1.776-.538 3.241-.821 4.307.085 1.271 1.081 1.284 2.975-.284 4.679-.914.965-2.375 1.935-3.386 1.075-1.066-.906-.844-2.412.394-2.678.863-.184 2.788.488 2.933-.237.133-.71-1.841-.741-3.139-.268-1.742.637-3.112.697-4.109-.151-1.284-1.092-1.215-2.917.284-4.68 1.022-1.202 2.375-1.935 3.373-1.086.573.488 1.099 1.641.507 2.338-.825.97-3.358-.454-3.693.438zm7.808-10.029c1.26-1.251 3.38 1.573 2.489 2.457-.866.859-2.304-1.048-2.992-.366 0 0 1.2 1.488 2.463 2.761 1.617 1.629 2.73 2.47 3.046 2.788.278.28.328.661.022.964l-.929.923c-.318.315-.686.251-.964-.029-.316-.319-1.161-1.425-2.779-3.054-1.263-1.273-2.73-2.496-2.73-2.496-.7.695 1.197 2.148.345 2.994-.891.885-3.712-1.243-2.439-2.507l4.468-4.435zm4.804-4.375c2.014-1.673 4.186-1.332 6.283 1.193 2.097 2.525 2.034 4.722.02 6.395-2.014 1.673-4.186 1.332-6.283-1.193-2.097-2.524-2.034-4.722-.02-6.395zm5.764 6.94c.552-.459-.015-1.759-1.757-3.856s-2.916-2.894-3.468-2.435c-.538.447.029 1.747 1.771 3.844 1.742 2.097 2.916 2.894 3.454 2.447zM58.077 26.6c.653.945.773 2.192.371 3.188 1.593.949 2.419 1.294 2.791 1.517.357.233.456.534.102.779l-1.21.836c-.369.254-.837.207-1.194-.026-.302-.184-.922-.671-2.059-1.433l-.619.428 1.335 1.933c.224.324.205.708-.149.952l-1.077.744c-.369.255-.719.127-.944-.198-.254-.369-.892-1.607-2.196-3.496-1.294-1.874-2.227-2.909-2.492-3.292-.224-.325-.22-.698.149-.953l2.848-1.967c1.373-.948 3.356-.443 4.344.988zm-4.927.788l2.467 3.571c.826-.571.974-1.872.301-2.846-.642-.929-1.931-1.281-2.768-.725zm10.44-7.87c.652-.376.979.118 1.028.525.062.503.507 5.506.596 6.055.007.12.03.231.053.342.602.936 1.03 1.497 1.182 1.761.197.342.148.722-.225.938l-1.149.663c-.373.215-.712.059-.909-.283-.152-.264-.44-.905-.949-1.895l-.255-.226c-.431-.352-4.557-3.23-4.961-3.535-.328-.245-.577-.785.06-1.153l1.102-.636c.373-.215.836-.131 1.173.13.328.246 2.389 3.384 2.901 3.088.497-.287-1.175-3.649-1.223-4.056-.058-.423.101-.866.473-1.081l1.103-.637zm8.255.03c-.212-.494-.304-.923-.278-1.285.033-.379.158-.693.377-.943.229-.254.514-.454.854-.6a2.295 2.295 0 011.008-.198c.331.014.645.139.942.376.292.226.544.586.756 1.081.208.483.295.914.262 1.292a1.728 1.728 0 01-.376.943 2.3 2.3 0 01-.838.593 2.403 2.403 0 01-1.025.205 1.726 1.726 0 01-.942-.376c-.286-.242-.532-.604-.74-1.088zm11.875-8.443c2.513-.735 4.371.441 5.292 3.591.921 3.15-.01 5.142-2.523 5.877-2.513.735-4.37-.441-5.292-3.591-.921-3.15.01-5.141 2.523-5.877zm2.533 8.659c.688-.202.684-1.621-.081-4.237s-1.527-3.814-2.215-3.613c-.672.197-.668 1.616.098 4.232.765 2.617 1.526 3.814 2.198 3.618zm9.33-11.382c.439-.089.728.164.806.551.092.457.366 2.816.87 5.313.386 1.916-.86 3.814-2.759 4.196-1.916.387-3.782-.884-4.168-2.8-.503-2.497-1.164-4.779-1.257-5.236-.077-.386.091-.731.53-.82l1.477-.298c.44-.088.728.165.806.552.093.457.149.829.427 3.115.085.696.696 4.635 1.962 4.38 1.266-.255.303-4.123.113-4.798-.63-2.215-.722-2.58-.814-3.038-.078-.386.091-.731.53-.82l1.477-.297zm9.294 2.062c.135 1.14-.342 2.298-1.163 2.991.963 1.584 1.533 2.275 1.757 2.646.207.373.153.686-.274.736l-1.46.173c-.446.053-.838-.208-1.044-.581-.181-.304-.501-1.024-1.149-2.23l-.748.089.276 2.333c.046.391-.15.722-.577.772l-1.3.154c-.445.052-.695-.225-.741-.617-.053-.445-.037-1.838-.306-4.117-.268-2.262-.608-3.613-.662-4.076-.047-.392.131-.72.576-.772l3.438-.406c1.656-.196 3.173 1.178 3.377 2.905zm-4.723-1.609l.51 4.31c.997-.117 1.736-1.198 1.597-2.374-.132-1.122-1.107-2.036-2.107-1.936zm12.999-.902c-.916.32.228 1.651 1.445 2.462 1.557 1.009 2.72 1.945 2.715 3.344-.005 1.668-1.443 2.901-3.757 2.804-1.327-.076-3.011-.565-3.007-1.892.005-1.399 1.298-2.202 2.3-1.428.698.54 1.427 2.443 2.074 2.087.629-.357-.622-1.885-1.821-2.57-1.611-.92-2.541-1.927-2.537-3.237.006-1.685 1.444-2.811 3.757-2.804 1.579.005 3.012.566 3.008 1.875-.003.753-.544 1.899-1.459 1.896-1.273-.003-1.82-2.857-2.718-2.537zm12.658-.533c1.769.154.983 3.596-.267 3.488-1.215-.106-.689-2.437-1.653-2.521 0 0-.362 1.877-.517 3.664-.199 2.287-.122 3.68-.161 4.126-.034.393-.293.677-.722.64l-1.304-.114c-.447-.039-.635-.361-.601-.754.039-.447.338-1.807.537-4.094.155-1.787.141-3.696.141-3.696-.982-.086-.866 2.301-2.063 2.197-1.251-.109-1.448-3.637.339-3.481l6.271.545zm6.615.851c2.577.462 3.715 2.343 3.135 5.573-.58 3.231-2.301 4.598-4.879 4.135-2.577-.462-3.715-2.343-3.135-5.573.58-3.231 2.301-4.598 4.879-4.135zm-1.595 8.879c.706.126 1.336-1.145 1.817-3.829.482-2.683.335-4.094-.371-4.221-.689-.123-1.318 1.149-1.8 3.832s-.334 4.094.354 4.218zm13.412-2.644c-.301 1.108-1.176 2.004-2.196 2.34.302 1.829.573 2.683.642 3.111.053.423-.114.694-.529.581l-1.419-.385c-.433-.118-.699-.506-.752-.929-.054-.349-.081-1.137-.232-2.498l-.727-.197-.616 2.268c-.103.38-.408.613-.823.501l-1.264-.343c-.433-.118-.561-.468-.457-.849.117-.433.652-1.719 1.253-3.934.597-2.198.786-3.578.908-4.028.103-.381.391-.618.824-.501l3.34.907c1.61.437 2.504 2.277 2.048 3.956zm-3.781-3.256l-1.136 4.189c.969.263 2.058-.464 2.368-1.606.296-1.09-.267-2.302-1.232-2.583zm12.698 2.879c.709.256.542.825.263 1.124-.344.372-3.878 3.941-4.24 4.364-.087.083-.157.172-.227.261-.326 1.065-.479 1.753-.582 2.04-.133.371-.456.579-.861.433l-1.249-.449c-.405-.146-.504-.506-.37-.877.103-.287.407-.921.835-1.949l.008-.34c-.01-.556-.475-5.565-.502-6.071-.025-.409.226-.947.918-.698l1.198.431c.405.146.639.554.658.98.024.409-1.043 4.009-.486 4.209.54.195 2.029-3.253 2.308-3.553.286-.316.726-.482 1.131-.336l1.198.431zm5.351 6.345c.241-.481.508-.829.802-1.043.31-.219.631-.326.963-.32.342.01.679.099 1.01.264.332.166.599.38.802.642.203.262.31.583.321.962.016.369-.096.794-.337 1.276-.235.47-.508.815-.818 1.034a1.723 1.723 0 01-.962.321 2.286 2.286 0 01-.995-.257 2.409 2.409 0 01-.818-.649 1.729 1.729 0 01-.321-.963c0-.374.118-.796.353-1.267zm13.913 3.487c2.186 1.443 2.489 3.62.681 6.359-1.808 2.739-3.929 3.316-6.114 1.874-2.186-1.443-2.489-3.62-.681-6.359 1.808-2.739 3.929-3.316 6.114-1.874zm-4.969 7.529c.599.395 1.679-.525 3.181-2.8 1.501-2.275 1.923-3.63 1.324-4.025-.584-.386-1.664.535-3.165 2.81-1.502 2.275-1.924 3.63-1.34 4.015zm14.953-.058c.351.279.344.662.099.971-.29.366-1.915 2.098-3.498 4.093-1.214 1.532-3.468 1.805-4.986.601-1.531-1.214-1.765-3.46-.55-4.991 1.582-1.996 2.899-3.973 3.188-4.338.246-.31.618-.404.969-.125l1.18.936c.352.279.345.662.1.972-.29.365-.538.649-2.105 2.336-.477.515-3.091 3.523-2.08 4.325 1.012.802 3.346-2.428 3.738-3.01 1.286-1.91 1.506-2.216 1.796-2.582.245-.309.617-.403.968-.124l1.181.936zm4.25 8.273c-.783.839-1.975 1.223-3.034 1.044-.586 1.759-.746 2.64-.884 3.051-.151.399-.425.56-.74.267l-1.075-1.003c-.328-.306-.382-.774-.231-1.172.115-.334.459-1.044.96-2.318l-.551-.514-1.602 1.718c-.269.289-.648.353-.963.059l-.957-.893c-.328-.306-.277-.676-.008-.964.306-.328 1.379-1.215 2.945-2.894 1.554-1.665 2.364-2.798 2.682-3.138.27-.289.635-.365.963-.059l2.531 2.361c1.219 1.138 1.151 3.183-.036 4.455zm-1.823-4.644l-2.961 3.173c.734.685 2.037.551 2.844-.314.771-.826.839-2.161.117-2.859zm8.932 9.147c-.836-.491-1.11 1.242-.941 2.694.239 1.841.278 3.333-.791 4.235-1.275 1.076-3.146.777-4.57-1.049-.801-1.061-1.518-2.661-.503-3.517 1.069-.902 2.518-.436 2.577.829.039.882-.939 2.67-.249 2.932.679.248 1.035-1.694.781-3.052-.342-1.824-.176-3.184.825-4.028 1.288-1.087 3.077-.72 4.569 1.049 1.017 1.206 1.518 2.661.517 3.505-.576.486-1.8.815-2.39.116-.821-.973 1-3.237.175-3.714zm9.108 10.013c1.02 1.453-2.12 3.066-2.842 2.038-.7-.998 1.423-2.094.866-2.886 0 0-1.669.931-3.137 1.961-1.879 1.319-2.896 2.274-3.263 2.532-.323.226-.706.211-.953-.142l-.753-1.071c-.257-.367-.131-.718.192-.945.367-.258 1.6-.904 3.479-2.223a45.833 45.833 0 002.92-2.27c-.566-.807-2.318.817-3.009-.166-.721-1.028 1.853-3.448 2.883-1.98l3.617 5.152zm3.747 5.867c1.3 2.273.59 4.353-2.259 5.983-2.849 1.63-5.002 1.189-6.303-1.084-1.3-2.273-.589-4.353 2.259-5.983 2.849-1.63 5.002-1.189 6.303 1.084zm-7.83 4.48c.356.623 1.735.288 4.101-1.066 2.366-1.353 3.353-2.373 2.997-2.995-.347-.608-1.726-.273-4.092 1.081-2.366 1.354-3.353 2.373-3.006 2.98zm10.318 7.913c-1.041.485-2.29.394-3.205-.17-1.203 1.411-1.681 2.168-1.963 2.497-.29.313-.604.36-.786-.03l-.62-1.333c-.189-.407-.064-.861.225-1.174.232-.266.817-.795 1.759-1.788l-.318-.683-2.129.992c-.358.166-.733.084-.915-.307l-.552-1.187c-.189-.406-.004-.73.354-.896.407-.189 1.734-.61 3.815-1.578 2.065-.961 3.242-1.707 3.664-1.904.358-.166.725-.1.914.307l1.461 3.138c.704 1.512-.127 3.382-1.704 4.116zm.052-4.989l-3.935 1.832c.424.91 1.681 1.274 2.754.775 1.025-.477 1.588-1.689 1.181-2.607zm5.879 11.25c.262.706-.28.946-.689.926-.506-.023-5.513-.419-6.069-.422-.12-.013-.233-.009-.347-.006-1.023.438-1.648.766-1.933.872-.37.138-.737.026-.887-.378l-.463-1.244c-.15-.403.061-.711.431-.849.286-.106.966-.282 2.027-.619l.265-.214c.419-.366 3.945-3.954 4.313-4.301.297-.283.871-.439 1.127.25l.444 1.194c.15.403-.011.846-.325 1.135-.297.282-3.735 1.79-3.529 2.345.2.538 3.795-.55 4.204-.53.426.014.837.244.987.647l.444 1.194zm-1.301 8.423c.523-.126.961-.146 1.314-.058.367.096.656.272.865.529.212.269.362.584.448.944.087.36.096.703.026 1.027-.07.324-.246.612-.53.865-.272.25-.669.438-1.192.564-.512.123-.951.136-1.319.04a1.73 1.73 0 01-.865-.53 2.302 2.302 0 01-.444-.926 2.4 2.4 0 01-.03-1.044c.081-.327.258-.616.53-.865.286-.241.685-.423 1.197-.546zm6.378 13.452c.298 2.601-1.176 4.232-4.437 4.605-3.26.373-5.065-.882-5.363-3.484-.297-2.601 1.177-4.232 4.437-4.605 3.261-.374 5.065.882 5.363 3.484zm-8.962 1.025c.081.713 1.48.95 4.189.64 2.708-.31 4.017-.857 3.936-1.57-.08-.695-1.479-.932-4.187-.622-2.708.31-4.018.857-3.938 1.552zm9.636 11.023c.013.449-.284.691-.679.702-.466.014-2.838-.113-5.384-.037-1.954.058-3.614-1.489-3.672-3.425-.058-1.954 1.509-3.58 3.463-3.638 2.545-.076 4.906-.343 5.372-.357.394-.012.706.212.719.66l.045 1.506c.013.448-.285.691-.679.702-.466.014-.843.007-3.143-.104-.701-.033-4.686-.094-4.647 1.197.038 1.291 4.012.993 4.71.919 2.289-.248 2.665-.277 3.131-.291.394-.012.706.212.719.661l.045 1.505zm-3.588 8.748c-1.146-.058-2.208-.722-2.754-1.647-1.723.685-2.499 1.131-2.902 1.29-.403.141-.703.036-.681-.394l.074-1.468c.023-.448.346-.791.748-.932.329-.127 1.093-.322 2.39-.76l.038-.752-2.346-.118c-.394-.02-.687-.268-.665-.698l.066-1.308c.023-.448.338-.647.732-.627.448.022 1.818.271 4.111.387 2.274.115 3.663.005 4.128.029.394.02.688.25.665.698l-.174 3.457c-.084 1.665-1.693 2.931-3.43 2.843zm2.376-4.387l-4.334-.219c-.051 1.003.891 1.913 2.073 1.972 1.129.057 2.193-.751 2.261-1.753zm-26.111 67.529c-1.732 1.963-3.931 1.96-6.391-.212-2.461-2.172-2.736-4.353-1.003-6.316 1.732-1.963 3.931-1.96 6.391.212 2.461 2.172 2.736 4.353 1.003 6.316zm-6.762-5.97c-.475.538.285 1.736 2.329 3.54s3.327 2.41 3.801 1.872c.463-.524-.297-1.722-2.341-3.526-2.044-1.804-3.327-2.41-3.789-1.886zm-1.736 14.538c-.324.31-.703.251-.976-.034-.322-.337-1.816-2.184-3.577-4.024-1.351-1.412-1.314-3.682.086-5.021 1.412-1.352 3.668-1.276 5.02.136 1.76 1.84 3.539 3.414 3.862 3.751.272.285.315.667-.009.977l-1.089 1.041c-.324.31-.703.251-.976-.034-.322-.337-.569-.622-2.027-2.404-.444-.543-3.067-3.543-4-2.651-.933.893 1.949 3.646 2.471 4.114 1.717 1.535 1.99 1.794 2.312 2.131.273.285.316.667-.008.977l-1.089 1.041zm-8.9 3.192c-.724-.89-.942-2.123-.62-3.148-1.663-.821-2.514-1.1-2.902-1.292-.374-.204-.497-.497-.163-.769l1.14-.929c.348-.283.819-.273 1.193-.068.315.159.971.596 2.165 1.267l.584-.476-1.483-1.822c-.249-.306-.261-.689.073-.961l1.015-.826c.348-.283.707-.183.957.123.283.348 1.015 1.532 2.464 3.313 1.438 1.766 2.449 2.724 2.743 3.085.249.306.275.679-.073.962l-2.684 2.185c-1.294 1.053-3.311.706-4.409-.644zm4.85-1.172l-2.74-3.366c-.779.634-.824 1.942-.077 2.86.714.877 2.027 1.126 2.817.506zm37.384-65.179c-.163-.956-1.665-.05-2.668 1.015-1.254 1.367-2.371 2.358-3.749 2.121-1.644-.283-2.62-1.907-2.14-4.172.296-1.295 1.059-2.875 2.367-2.65 1.379.237 1.955 1.647 1.025 2.506-.649.598-2.647 1-2.403 1.697.247.68 1.962-.299 2.837-1.368 1.176-1.435 2.323-2.184 3.614-1.962 1.661.286 2.531 1.891 2.139 4.171-.268 1.556-1.059 2.876-2.349 2.654-.742-.128-1.782-.853-1.627-1.754.216-1.255 3.12-1.32 2.954-2.258zm-1.59 12.607c-.447 1.719-3.71.371-3.394-.844.306-1.181 2.516-.273 2.76-1.21 0 0-1.791-.669-3.526-1.12-2.222-.577-3.609-.733-4.042-.846-.382-.099-.619-.401-.511-.818l.329-1.267c.113-.434.462-.566.844-.467.434.113 1.726.634 3.948 1.211 1.735.451 3.621.755 3.621.755.247-.955-2.125-1.237-1.823-2.4.316-1.215 3.827-.822 3.376.913l-1.582 6.093zm-1.976 6.471c-.887 2.464-2.931 3.272-6.019 2.16-3.088-1.111-4.149-3.037-3.262-5.501.887-2.463 2.932-3.271 6.02-2.16 3.088 1.112 4.148 3.038 3.261 5.501zm-8.488-3.055c-.243.675.906 1.508 3.471 2.431s3.981 1.014 4.224.339c.237-.658-.912-1.491-3.477-2.415-2.565-.923-3.981-1.013-4.218-.355zm.591 13.17c-1.043-.478-1.783-1.489-1.947-2.551-1.854-.002-2.74.124-3.174.122-.426-.018-.665-.227-.486-.618l.614-1.336c.187-.408.613-.607 1.039-.589.354.005 1.135.107 2.502.182l.314-.685-2.135-.98c-.358-.165-.538-.504-.359-.895l.546-1.19c.187-.407.554-.475.913-.311.407.187 1.588.926 3.674 1.884 2.07.95 3.4 1.363 3.824 1.558.358.164.545.487.358.894l-1.444 3.146c-.695 1.516-2.658 2.095-4.239 1.369zm3.834-3.193l-3.945-1.81c-.419.912.119 2.106 1.194 2.6 1.027.471 2.315.115 2.751-.79zm-4.994 12.176c-.37.657-.903.398-1.152.073-.31-.401-3.244-4.478-3.601-4.904-.067-.1-.143-.184-.219-.268-.996-.498-1.65-.763-1.915-.912-.344-.193-.496-.546-.285-.921l.65-1.157c.211-.375.582-.413.926-.22.266.149.841.555 1.784 1.146l.334.065c.55.083 5.567.455 6.07.511.407.044.897.381.536 1.022l-.624 1.11c-.211.375-.652.538-1.075.486-.408-.044-3.78-1.693-4.07-1.177-.282.5 2.871 2.54 3.121 2.865.264.334.354.796.144 1.171l-.624 1.11zm-7.269 4.408c.434.318.731.64.893.966.164.343.215.677.154 1.003a2.41 2.41 0 01-.43.951c-.22.299-.475.527-.768.683-.292.156-.626.208-1.002.155-.367-.047-.767-.229-1.201-.547-.424-.311-.718-.638-.882-.98a1.727 1.727 0 01-.155-1.003c.061-.326.201-.638.42-.937.219-.299.479-.531.778-.697a1.733 1.733 0 011.003-.155c.369.063.766.25 1.19.561z" fill="#D92F84"/><path d="M113.658 95v34.551m0 0c0-4.277 3.115-12.832 15.574-12.832m-15.574 12.832c-.306-4.277-3.665-12.832-14.658-12.832" stroke="#91D7E1" stroke-width="2.668" stroke-linejoin="round"/></svg>