<svg width="230" height="229" fill="none" xmlns="http://www.w3.org/2000/svg"><g clip-path="url(#clip0_308_1532)"><path d="M226.16 115.033c0 61.385-49.762 111.147-111.147 111.147-61.385 0-111.147-49.762-111.147-111.147 0-61.385 49.762-111.147 111.147-111.147 61.385 0 111.147 49.762 111.147 111.147z" fill="#FFF5FA"/><path d="M213.257 121.157c-1.113-.043-2.151-.675-2.691-1.567-1.663.685-2.411 1.126-2.801 1.285-.388.142-.68.043-.664-.374l.055-1.426c.017-.434.326-.771.714-.912.318-.127 1.057-.325 2.311-.764l.028-.731-2.278-.088c-.382-.014-.669-.252-.653-.669l.049-1.269c.017-.435.32-.632.703-.617.435.016 1.767.242 3.992.328 2.208.085 3.554-.037 4.006-.02.382.015.67.235.653.67l-.13 3.356c-.062 1.617-1.608 2.863-3.294 2.798zm2.255-4.284l-4.208-.162c-.037.973.887 1.845 2.034 1.889 1.096.042 2.119-.754 2.174-1.727zm-4.55 11.585c-2.259.132-3.641.405-4.084.439-.388.024-.661-.184-.611-.599l.159-1.33c.05-.415.377-.656.765-.68l1.608.036a5.93 5.93 0 00.154-.84c.039-.329.057-.624.052-.871a38.347 38.347 0 01-1.571-.346c-.372-.115-.632-.426-.582-.841l.159-1.33c.05-.415.362-.535.734-.42.422.138 1.702.712 3.864 1.392 2.146.661 3.468.89 3.909 1.013.372.115.632.426.582.841l-.334 2.781c-.051.432-.376.656-.765.68-.459.032-1.798-.058-4.039.075zm-.299-2.769a7.956 7.956 0 00-.063.676c2.028.033 4.196.223 4.244-.174.041-.346-2.101-.743-4.081-1.191-.042.205-.069.43-.1.689zm3.366 11.815c-.083.409-.407.521-.768.376-.427-.175-1.653-.867-3.74-1.698-2.103-.835-3.402-1.169-3.811-1.341-.362-.144-.6-.458-.513-.885l.556-2.745c.083-.41.428-.624.817-.616.44.018 1.767.216 4.03.266 2.248.03 3.644-.113 4.105-.109.389.008.648.22.561.647l-.3 1.483c-.083.41-.428.624-.817.616-.458-.022-7.522-1.081-7.601-.688-.076.375 6.843 2.15 7.269 2.325.361.144.599.459.513.885l-.301 1.484zm-2.174 3.948c.08-.284-.111-.502-.429-.592l-1.909-.54c-.194.686-.314 1.556-.414 1.908-.113.402-.285.498-.771.36l-.837-.237c-.469-.133-.581-.309-.468-.711.1-.352.454-1.155.665-1.837l-1.891-.536c-.369-.104-.753-.087-.844.231-.208.737 1.3 1.797.982 2.919-.313 1.105-3.06.399-2.719-.807l1.328-4.687c.118-.419.46-.539.828-.435.419.119 1.66.652 3.803 1.258 2.126.603 3.463.8 3.898.924.368.104.596.385.477.804l-1.327 4.688c-.342 1.205-3.068.36-2.755-.745.317-1.121 2.174-1.228 2.383-1.965zm-7.368 14.209c-1.025-.434-1.772-1.392-1.962-2.417-1.798.052-2.654.2-3.075.211-.413-.005-.652-.2-.489-.585l.556-1.314c.169-.4.577-.606.991-.601.342-.006 1.104.07 2.431.103l.285-.673-2.099-.888c-.353-.149-.537-.473-.375-.857l.495-1.17c.17-.401.523-.478.876-.329.401.17 1.567.852 3.618 1.719 2.035.861 3.337 1.223 3.754 1.399.352.149.543.457.374.857l-1.308 3.093c-.631 1.491-2.517 2.11-4.072 1.452zm3.625-3.209l-3.878-1.64c-.38.897.176 2.039 1.234 2.487 1.009.427 2.248.044 2.644-.847zm-3.615 7.874c.136-.263-.008-.514-.302-.666l-1.761-.913c-.328.634-.621 1.462-.789 1.787-.192.37-.38.43-.828.198l-.772-.401c-.432-.224-.507-.42-.315-.79.168-.325.676-1.041 1.02-1.666l-1.745-.905c-.34-.176-.721-.236-.873.057-.352.68.912 2.021.376 3.056-.529 1.02-3.079-.224-2.502-1.336l2.242-4.325c.2-.387.559-.436.899-.26.386.201 1.495.972 3.473 1.997 1.961 1.017 3.231 1.479 3.633 1.687.339.176.506.497.306.884l-2.242 4.325c-.577 1.112-3.078-.263-2.55-1.282.537-1.035 2.377-.767 2.73-1.447zm-4.689 10.288c-.22.355-.564.347-.852.086-.338-.313-1.247-1.389-2.914-2.894-1.681-1.515-2.782-2.281-3.106-2.585-.288-.261-.402-.638-.172-1.008l1.477-2.38c.221-.355.619-.435.981-.292.406.17 1.581.818 3.684 1.652 2.098.811 3.456 1.163 3.886 1.328.362.143.531.432.302.801l-.799 1.286c-.22.355-.618.436-.98.293-.421-.18-6.675-3.632-6.886-3.292-.202.325 5.666 4.398 6.005 4.711.288.261.402.639.172 1.008l-.798 1.286zm-1.911 2.728c-.24.341-.612.355-.925.135-.37-.261-1.354-1.19-3.16-2.463-1.82-1.284-3.025-1.9-3.381-2.15-.313-.221-.424-.576-.183-.918l.732-1.038c.25-.355.613-.355.925-.135.356.251 1.35 1.166 3.17 2.449 1.806 1.274 3.001 1.904 3.371 2.165.313.22.434.561.184.917l-.733 1.038zm-3.799 3.275c.183-.232.089-.506-.17-.711l-1.556-1.23c-.443.559-.887 1.317-1.113 1.604-.259.328-.455.35-.851.037l-.682-.539c-.382-.302-.419-.509-.16-.836.227-.287.862-.894 1.318-1.443l-1.542-1.219c-.301-.237-.663-.369-.868-.109-.475.6.513 2.157-.21 3.072-.713.901-2.981-.804-2.204-1.787l3.022-3.821c.27-.342.631-.322.932-.084.341.269 1.284 1.237 3.031 2.618 1.733 1.371 2.892 2.065 3.247 2.346.3.237.403.584.133.926l-3.022 3.821c-.777.983-2.972-.841-2.26-1.742.724-.915 2.48-.302 2.955-.903zm-8.448 11.164c-.288.303-.61.212-.84-.102-.256-.387-.915-1.638-2.205-3.488-1.291-1.875-2.202-2.861-2.458-3.224-.217-.327-.24-.732.048-1.035l.683-.719c.3-.315.706-.313 1.031-.1.387.224 1.696 1.348 3.609 2.542l.45.259-.294-.423c-1.29-1.85-2.467-3.113-2.722-3.475-.217-.327-.24-.733.048-1.035l.683-.719c.299-.315.706-.314 1.031-.1.375.236 1.418 1.084 3.344 2.29 1.914 1.194 3.209 1.777 3.597 2.025.325.214.432.531.144.834l-.959 1.009c-.288.302-.694.3-1.019.087-.376-.236-1.688-1.508-3.539-2.667 1.252 1.79 2.516 3.112 2.759 3.487.23.314.253.72-.035 1.022l-.551.581c-.3.315-.706.313-1.032.1-.375-.237-1.771-1.42-3.61-2.592 1.251 1.79 2.588 3.036 2.843 3.399.218.327.24.732-.047 1.035l-.959 1.009zm-3.906 2.012c.461-.82-1.226-1.054-2.631-.863-1.781.266-3.228.332-4.123-.689-1.067-1.216-.812-3.037.933-4.451 1.014-.797 2.553-1.522 3.402-.554.895 1.02.47 2.435-.756 2.515-.855.055-2.607-.862-2.848-.187-.229.663 1.662.972 2.974.701 1.763-.366 3.086-.23 3.923.725 1.079 1.23.755 2.972-.933 4.452-1.151 1.009-2.553 1.522-3.39.567-.482-.55-.824-1.731-.157-2.316.929-.815 3.158.909 3.606.1zm-9.756 4.713c.298.429.469.818.514 1.168.043.366-.016.689-.174.969a2.353 2.353 0 01-.696.737 2.222 2.222 0 01-.919.384c-.318.052-.641-.007-.969-.174-.322-.158-.631-.452-.929-.88-.291-.42-.458-.812-.5-1.178-.036-.357.022-.68.175-.969.158-.28.385-.522.681-.727.295-.205.606-.337.934-.394a1.67 1.67 0 01.968.174c.319.174.624.471.915.89zm-13.93 8.857c-.524-.982-.5-2.197-.002-3.113-1.43-1.092-2.188-1.516-2.521-1.772-.318-.265-.381-.567-.012-.763l1.259-.671c.384-.204.83-.106 1.149.158.27.211.813.75 1.824 1.611l.645-.343-1.072-2.012c-.18-.338-.119-.706.249-.902l1.122-.597c.384-.204.707-.041.887.296.204.384.68 1.649 1.727 3.615 1.039 1.95 1.822 3.051 2.035 3.45.18.338.135.697-.249.902l-2.965 1.578c-1.428.761-3.283.053-4.076-1.437zm4.836-.209l-1.979-3.717c-.86.458-1.148 1.695-.608 2.709.515.967 1.719 1.45 2.587 1.008zm-12.265 1.867c-1.25-1.886-2.18-2.943-2.433-3.308-.215-.324-.173-.665.211-.83l1.23-.531c.383-.166.756-.005.972.319l.778 1.408a6.1 6.1 0 00.803-.29c.304-.131.568-.264.778-.393a40.98 40.98 0 01-.491-1.532c-.087-.379.051-.761.434-.926l1.23-.531c.384-.166.645.044.733.423.092.434.24 1.829.739 4.039.509 2.188.976 3.445 1.092 3.888.088.379-.051.761-.434.927l-2.572 1.11c-.399.173-.756.005-.972-.319-.259-.381-.854-1.584-2.098-3.454zm2.244-1.651c-.223.097-.447.193-.616.285.992 1.77 1.918 3.74 2.285 3.581.32-.138-.415-2.19-1.023-4.126-.199.067-.406.157-.646.26zm-8.583 8.855c-.396.133-.655-.092-.712-.477-.062-.456-.077-1.865-.404-4.087-.332-2.238-.694-3.53-.751-3.97-.056-.385.097-.748.509-.887l2.655-.895c.395-.134.754.058.942.398.205.39.699 1.638 1.789 3.62 1.102 1.961 1.926 3.097 2.152 3.498.189.341.135.671-.277.81l-1.435.483c-.396.134-.754-.058-.942-.398-.211-.407-2.836-7.05-3.215-6.922-.363.122 1.57 6.999 1.632 7.455.056.385-.096.749-.509.888l-1.434.484zm-4.607.119c.287-.073.378-.348.297-.668l-.49-1.922c-.691.176-1.504.509-1.858.599-.405.103-.574.002-.699-.487l-.215-.843c-.12-.472-.024-.658.381-.761.354-.09 1.227-.187 1.923-.346l-.486-1.905c-.094-.371-.302-.695-.623-.614-.742.189-.902 2.026-2.032 2.313-1.113.284-1.88-2.447-.666-2.756l4.721-1.203c.421-.108.697.127.791.498.108.422.27 1.763.82 3.921.545 2.142 1.044 3.397 1.156 3.836.095.371-.035.709-.456.816l-4.721 1.203c-1.214.309-1.851-2.473-.738-2.757 1.129-.288 2.153 1.265 2.895 1.076zm-15.851.722c-.141-1.105.311-2.233 1.101-2.913-.949-1.527-1.508-2.192-1.729-2.55-.204-.36-.155-.664.259-.717l1.415-.181c.432-.055.815.194 1.018.554.178.293.495.989 1.135 2.153l.725-.093-.289-2.261c-.049-.38.138-.702.553-.755l1.259-.161c.432-.055.677.212.725.592.055.431.053 1.782.335 3.991.28 2.192.623 3.499.68 3.948.049.38-.121.699-.552.755l-3.331.425c-1.606.206-3.09-1.113-3.304-2.787zm4.597 1.517l-.534-4.177c-.966.124-1.674 1.179-1.528 2.318.139 1.087 1.093 1.965 2.062 1.859zm-8.59.825c.296-.015.44-.266.423-.597l-.099-1.981c-.713.036-1.575.201-1.94.22-.417.021-.563-.111-.589-.615l-.043-.869c-.025-.487.106-.65.523-.671.365-.019 1.24.059 1.954.041l-.099-1.964c-.019-.382-.159-.741-.489-.724-.765.038-1.286 1.807-2.45 1.865-1.147.058-1.359-2.772-.108-2.834l4.866-.245c.435-.021.658.264.677.646.022.434-.085 1.781.027 4.005.111 2.207.352 3.537.375 3.989.019.382-.175.688-.609.71l-4.866.244c-1.251.063-1.325-2.791-.178-2.848 1.164-.059 1.861 1.666 2.625 1.628zm-11.643 1.107c-.417-.013-.582-.314-.5-.694.101-.45.577-1.776 1.045-3.972.469-2.214.58-3.551.68-3.983.081-.38.351-.668.786-.654l2.8.086c.418.013.687.317.744.702.057.437.085 1.778.416 4.017.349 2.221.725 3.573.798 4.028.058.385-.108.676-.542.662l-1.514-.046c-.417-.013-.686-.318-.744-.702-.055-.455-.2-7.596-.6-7.609-.383-.012-.968 7.108-1.069 7.557-.082.381-.352.668-.787.655l-1.513-.047zm-3.315-.288c-.416-.037-.616-.352-.582-.733.04-.451.35-1.768.546-3.969.197-2.219.125-3.57.163-4.004.034-.381.286-.655.702-.618l1.265.112c.433.039.615.352.581.733-.038.433-.33 1.752-.528 3.971-.195 2.201-.141 3.551-.181 4.002-.034.381-.268.657-.701.618l-1.265-.112zm-4.74-1.649c.293.042.483-.177.529-.505l.282-1.963c-.706-.101-1.584-.104-1.946-.156-.413-.06-.531-.217-.46-.717l.124-.861c.069-.482.229-.617.642-.558.362.052 1.206.296 1.91.415l.279-1.947c.054-.379-.014-.758-.342-.805-.758-.108-1.608 1.528-2.761 1.362-1.137-.163-.803-2.98.437-2.802l4.822.692c.431.061.596.384.541.763-.062.43-.424 1.732-.74 3.936-.314 2.188-.332 3.539-.397 3.986-.054.379-.303.642-.733.581l-4.823-.692c-1.24-.178-.766-2.993.371-2.83 1.154.166 1.507 1.992 2.265 2.101zm-13.899-1.72c-.406-.097-.49-.421-.334-.777.207-.416.958-1.614 1.911-3.658.974-2.058 1.37-3.341 1.555-3.744.174-.352.513-.575.92-.478l.964.23c.423.101.625.454.604.842 0 .447-.315 2.143-.387 4.398v.519l.22-.467c.953-2.044 1.454-3.696 1.64-4.099.173-.352.512-.575.919-.478l.964.23c.423.101.626.454.604.842-.016.443-.225 1.771-.302 4.042-.073 2.255.073 3.667.052 4.127-.02.389-.242.64-.648.543l-1.354-.323c-.406-.097-.608-.449-.587-.838.016-.443.457-2.216.53-4.399-.919 1.981-1.428 3.738-1.63 4.137-.157.356-.496.579-.902.482l-.779-.186c-.423-.101-.625-.453-.604-.842.016-.443.339-2.244.43-4.423-.92 1.981-1.328 3.762-1.513 4.165-.174.352-.513.575-.92.478l-1.353-.323zm-3.715-2.394c.941-.01.303-1.588-.564-2.711-1.117-1.411-1.896-2.633-1.457-3.917.522-1.532 2.228-2.218 4.324-1.411 1.196.482 2.592 1.455 2.176 2.673-.438 1.285-1.877 1.621-2.557.598-.474-.713-.553-2.689-1.258-2.562-.69.133-.014 1.926.876 2.928 1.195 1.346 1.737 2.56 1.326 3.762-.528 1.548-2.2 2.136-4.324 1.411-1.449-.495-2.592-1.455-2.182-2.657.236-.691 1.09-1.577 1.93-1.29 1.169.399.786 3.191 1.71 3.176zm-8.919-6.1c-.223.472-.475.815-.755 1.029-.296.219-.605.33-.927.332a2.333 2.333 0 01-.986-.235 2.214 2.214 0 01-.791-.605c-.203-.249-.314-.558-.333-.926-.023-.358.076-.772.3-1.244.217-.462.474-.802.77-1.022.291-.209.6-.32.927-.332a2.23 2.23 0 01.97.227c.325.154.594.358.808.612.197.261.308.569.332.927.008.363-.097.775-.315 1.237zm-14.596-7.652c.59-.944 1.655-1.53 2.697-1.555.234-1.783.224-2.652.28-3.069.07-.407.3-.612.654-.39l1.21.757c.368.231.506.666.436 1.074-.048.339-.244 1.079-.487 2.384l.62.388 1.209-1.932c.203-.325.552-.455.906-.234l1.076.674c.37.231.39.593.186.917-.23.369-1.09 1.412-2.27 3.3-1.173 1.873-1.737 3.101-1.977 3.484-.203.325-.537.465-.906.234l-2.846-1.782c-1.372-.859-1.684-2.819-.788-4.25zm2.594 4.087l2.234-3.569c-.826-.517-2.042-.149-2.651.824-.582.93-.4 2.213.417 2.745zm-7.713-9.684c1.009-2.025 1.46-3.36 1.65-3.761.173-.348.489-.482.824-.232l1.075.8c.335.249.381.653.209 1.001l-.83 1.378a6.1 6.1 0 00.652.551c.265.197.513.36.73.477a39.96 39.96 0 011.08-1.19c.285-.266.685-.337 1.02-.088l1.075.8c.335.25.284.581 0 .846-.33.297-1.465 1.122-3.13 2.66-1.64 1.533-2.496 2.567-2.822 2.888-.284.266-.684.337-1.02.087l-2.247-1.672c-.349-.26-.381-.653-.209-1.002.2-.415.945-1.531 1.943-3.543zm2.552 1.119a8.232 8.232 0 00-.555-.392c-1.038 1.744-2.28 3.53-1.96 3.769.28.208 1.69-1.453 3.063-2.948a8.195 8.195 0 00-.548-.429zm-11.998-3.056c-.314-.276-.248-.613.058-.854.364-.282 1.577-.998 3.34-2.389 1.775-1.404 2.714-2.362 3.067-2.63.306-.241.697-.29 1.023-.002l2.1 1.855c.313.276.326.682.124 1.015-.236.372-1.07 1.423-2.245 3.357-1.15 1.932-1.724 3.213-1.959 3.609-.201.333-.514.451-.84.163L47.98 192.3c-.313-.276-.325-.682-.124-1.015.247-.386 4.697-5.974 4.397-6.239-.287-.253-5.284 4.851-5.649 5.133-.306.24-.697.289-1.023.001l-1.135-1.002zm-2.403-3.923c.206.212.49.155.727-.076l1.423-1.382c-.497-.512-1.19-1.051-1.445-1.313-.291-.299-.288-.496.074-.848l.624-.606c.35-.339.559-.349.85-.049.254.262.773.971 1.258 1.495l1.41-1.37c.274-.267.452-.609.221-.846-.533-.549-2.206.226-3.018-.61-.8-.824 1.186-2.85 2.059-1.951l3.395 3.495c.303.312.236.668-.039.934-.312.303-1.394 1.112-2.992 2.664-1.585 1.539-2.425 2.598-2.749 2.913-.275.267-.632.323-.935.011l-3.395-3.495c-.873-.898 1.223-2.837 2.023-2.013.812.836-.024 2.498.51 3.047zm-8.532-13.33c.886-.674 2.088-.847 3.072-.502.848-1.586 1.145-2.403 1.344-2.773.21-.357.498-.467.751-.135l.864 1.136c.264.346.24.802.03 1.158-.165.301-.61.923-1.297 2.059l.442.582 1.814-1.381c.304-.232.677-.231.93.101l.77 1.011c.263.346.154.691-.15.923-.347.264-1.518.937-3.29 2.286-1.758 1.339-2.719 2.289-3.078 2.563-.305.232-.667.245-.93-.101l-2.035-2.672c-.98-1.287-.58-3.232.763-4.255zm.984 4.74l3.35-2.551c-.59-.775-1.857-.86-2.771-.164-.872.664-1.155 1.929-.579 2.715zm-5.009-7.005c.16.249.45.248.728.068l1.665-1.077c-.387-.599-.962-1.263-1.16-1.57-.227-.351-.186-.543.238-.817l.73-.472c.41-.265.617-.233.844.118.198.306.568 1.103.94 1.712l1.652-1.068c.321-.208.562-.509.383-.786-.416-.643-2.208-.21-2.841-1.189-.624-.964 1.72-2.562 2.4-1.51l2.646 4.091c.236.365.101.701-.22.909-.366.236-1.585.817-3.455 2.027-1.856 1.2-2.887 2.073-3.267 2.319-.32.208-.683.193-.919-.172l-2.645-4.091c-.68-1.052 1.753-2.543 2.377-1.579.633.979-.512 2.444-.096 3.087zm-6.602-9.159c-.2-.367-.022-.661.348-.783.439-.139 1.824-.395 3.957-1.096 2.149-.709 3.36-1.287 3.784-1.417.37-.122.754-.033.961.349l1.335 2.463c.2.367.072.753-.231.997-.35.268-1.494.968-3.262 2.381-1.744 1.42-2.722 2.426-3.079 2.718-.303.243-.638.247-.845-.136l-.721-1.331c-.2-.367-.072-.753.231-.996.365-.277 6.463-3.998 6.272-4.35-.182-.336-6.628 2.742-7.068 2.881-.37.122-.754.033-.961-.349l-.721-1.331zm-1.425-3.025c-.178-.378-.005-.708.341-.87.41-.192 1.705-.586 3.707-1.522 2.017-.943 3.15-1.684 3.544-1.869.347-.162.71-.082.887.296l.538 1.151c.184.394.005.708-.342.87-.394.185-1.681.595-3.699 1.538-2.001.936-3.141 1.661-3.551 1.853-.347.162-.703.098-.888-.296l-.538-1.151zm-.97-4.957c.11.275.394.33.7.207l1.842-.739c-.266-.662-.703-1.424-.839-1.763-.155-.388-.078-.569.39-.757l.808-.324c.452-.181.65-.11.805.278.136.339.347 1.191.596 1.86l1.825-.732c.355-.142.65-.391.526-.698-.285-.711-2.127-.628-2.56-1.71-.428-1.066 2.178-2.187 2.645-1.024l1.813 4.522c.162.404-.035.708-.39.85-.404.162-1.712.499-3.779 1.328-2.05.823-3.23 1.483-3.65 1.652-.355.142-.707.058-.869-.345l-1.814-4.522c-.466-1.163 2.208-2.16 2.636-1.095.434 1.082-.97 2.302-.685 3.012zm-5.442-12.729c-.12-.4.119-.635.505-.678.464-.03 1.877.019 4.124-.182 2.268-.189 3.576-.491 4.018-.532.392-.027.755.155.875.555l.284.95c.125.417-.078.768-.425.945-.387.225-2.012.803-3.999 1.87l-.448.262.513-.045c2.247-.201 3.927-.595 4.369-.637.391-.026.755.155.874.555l.285.95c.125.417-.078.769-.425.945-.392.208-1.645.693-3.649 1.766-1.987 1.067-3.135 1.902-3.544 2.115-.346.177-.675.112-.795-.288l-.4-1.334c-.119-.4.084-.751.431-.928.392-.208 2.147-.716 4.072-1.747-2.175.198-3.95.639-4.396.664-.387.043-.75-.139-.87-.539l-.23-.767c-.125-.416.079-.768.425-.944.392-.209 2.112-.833 4.042-1.847-2.175.197-3.92.738-4.361.78-.392.026-.755-.155-.875-.555l-.4-1.334zm.157-4.574c.48.809 1.526-.534 2.064-1.847.66-1.675 1.328-2.96 2.659-3.225 1.587-.315 3.036.816 3.388 3.035.182 1.276.04 2.972-1.223 3.223-1.33.264-2.343-.812-1.799-1.913.38-.768 2.05-1.827 1.587-2.373-.46-.53-1.674.953-2.095 2.225-.565 1.709-1.345 2.787-2.59 3.034-1.605.319-2.951-.833-3.389-3.034-.298-1.502-.04-2.973 1.206-3.22.716-.143 1.91.152 2.083 1.023.241 1.211-2.367 2.28-1.89 3.072zm.815-10.551c-.52.044-.942-.002-1.268-.137-.339-.146-.59-.357-.753-.634a2.344 2.344 0 01-.292-.971c-.03-.358.012-.688.126-.989.114-.3.325-.551.634-.752.297-.2.706-.322 1.226-.366.509-.043.932.008 1.27.154.328.146.578.358.753.634.163.277.26.595.29.953a2.33 2.33 0 01-.123 1.006 1.677 1.677 0 01-.635.753c-.31.189-.719.305-1.227.349zm-.737-16.809c1.113.039 2.153.667 2.697 1.556 1.66-.691 2.407-1.135 2.796-1.296.388-.143.68-.046.666.371l-.05 1.426c-.015.435-.323.772-.711.916-.318.128-1.056.329-2.308.773l-.025.73 2.278.079c.382.013.67.25.655.667l-.044 1.269c-.015.435-.318.634-.7.62-.435-.015-1.768-.235-3.994-.312-2.208-.076-3.553.051-4.005.036-.383-.014-.671-.233-.656-.667l.117-3.356c.056-1.618 1.597-2.87 3.284-2.812zm-2.239 4.293l4.208.145c.034-.973-.893-1.841-2.04-1.881-1.096-.038-2.117.763-2.168 1.736zm4.502-11.586c2.259-.141 3.64-.418 4.082-.455.388-.025.662.182.614.597l-.155 1.331c-.048.415-.374.657-.762.682l-1.608-.029a6.064 6.064 0 00-.15.841 6.322 6.322 0 00-.05.87 41.4 41.4 0 011.573.34c.372.114.634.424.586.839l-.155 1.331c-.048.415-.36.536-.732.423-.422-.137-1.705-.706-3.87-1.378-2.148-.652-3.47-.876-3.912-.997-.372-.114-.634-.424-.586-.839l.323-2.783c.05-.432.374-.657.763-.682.46-.034 1.798.051 4.04-.091zm.31 2.768c.027-.242.055-.484.06-.676-2.029-.025-4.197-.207-4.243.19-.04.346 2.104.735 4.085 1.176.041-.206.067-.431.097-.69zM14.432 91.57c.081-.409.405-.522.767-.379.427.174 1.656.861 3.746 1.684 2.106.827 3.407 1.156 3.817 1.326.361.143.6.457.516.884l-.546 2.747c-.081.41-.426.625-.815.619-.44-.017-1.768-.21-4.03-.25-2.249-.022-3.644.127-4.105.124-.39-.007-.649-.218-.564-.644l.295-1.485c.081-.41.426-.625.815-.619.457.02 7.526 1.052 7.604.66.074-.376-6.852-2.125-7.279-2.298-.362-.143-.6-.457-.516-.883l.295-1.485zm2.25-4.309c-.08.285.11.502.429.592l1.908.54c.195-.686.315-1.556.414-1.908.114-.401.286-.497.771-.36l.838.237c.468.133.581.31.467.711-.1.352-.454 1.156-.665 1.837l1.892.536c.368.105.753.087.843-.231.209-.737-1.3-1.797-.982-2.919.313-1.104 3.061-.399 2.72.807l-1.328 4.687c-.119.419-.46.54-.828.435-.419-.119-1.66-.651-3.803-1.258-2.127-.602-3.463-.8-3.898-.923-.369-.105-.596-.386-.478-.805l1.328-4.687c.341-1.206 3.068-.36 2.755.744-.318 1.122-2.175 1.229-2.383 1.965zm7.186-13.841c1.027.43 1.778 1.386 1.972 2.41 1.797-.058 2.653-.21 3.073-.222.414.003.653.198.492.583l-.551 1.316c-.168.401-.575.608-.989.605-.343.007-1.104-.066-2.432-.094l-.282.674 2.103.88c.353.148.538.471.377.856l-.49 1.172c-.168.401-.522.48-.875.332-.401-.168-1.57-.846-3.624-1.706-2.039-.853-3.342-1.21-3.76-1.384-.352-.148-.545-.455-.377-.856l1.297-3.098c.625-1.493 2.51-2.119 4.066-1.467zm-3.612 3.223l3.884 1.626c.376-.899-.184-2.039-1.244-2.482-1.01-.423-2.248-.036-2.64.856zm3.585-7.911c-.135.264.01.514.304.665l1.765.906c.326-.634.615-1.464.782-1.789.19-.371.378-.431.827-.2l.774.397c.433.222.509.418.318.79-.167.324-.673 1.042-1.014 1.669l1.749.898c.34.175.72.234.872-.06.35-.681-.92-2.018-.387-3.055.524-1.021 3.08.212 2.507 1.327l-2.226 4.334c-.2.386-.558.437-.898.262-.387-.199-1.5-.966-3.48-1.983-1.966-1.01-3.237-1.467-3.64-1.674-.34-.175-.508-.496-.31-.883l2.227-4.333c.572-1.115 3.079.251 2.554 1.273-.533 1.037-2.374.775-2.724 1.456zm4.639-10.307c.22-.355.563-.348.852-.088.34.311 1.252 1.384 2.924 2.883 1.687 1.509 2.791 2.27 3.116 2.573.29.26.404.637.176 1.008l-1.469 2.385c-.219.356-.617.438-.979.296-.407-.169-1.584-.812-3.69-1.64-2.101-.802-3.46-1.15-3.892-1.312-.362-.142-.532-.43-.304-.8l.794-1.29c.219-.355.617-.437.98-.296.421.178 6.687 3.608 6.897 3.267.2-.326-5.682-4.378-6.022-4.689-.29-.26-.404-.637-.176-1.008l.794-1.289zm1.881-2.719c.24-.343.612-.358.925-.139.371.26 1.36 1.185 3.17 2.452 1.824 1.277 3.032 1.888 3.388 2.138.314.219.426.574.187.916l-.728 1.04c-.25.357-.612.358-.925.139-.357-.25-1.355-1.16-3.18-2.437-1.81-1.267-3.007-1.893-3.378-2.152-.314-.22-.436-.56-.187-.917l.728-1.04zm3.76-3.267c-.183.233-.088.506.172.71l1.56 1.225c.441-.561.883-1.321 1.108-1.608.258-.329.453-.353.85-.041l.685.537c.383.3.42.507.162.835-.225.288-.858.897-1.312 1.448l1.547 1.213c.3.237.663.366.868.106.472-.602-.52-2.155.2-3.072.708-.904 2.982.793 2.209 1.778l-3.008 3.833c-.268.342-.63.324-.931.087-.343-.268-1.289-1.232-3.041-2.607-1.738-1.364-2.9-2.055-3.256-2.334-.301-.236-.405-.583-.136-.925l3.008-3.833c.773-.985 2.975.83 2.266 1.734-.72.917-2.478.312-2.951.914zm8.337-11.146c.287-.303.61-.214.84.1.257.386.921 1.634 2.218 3.48 1.298 1.87 2.212 2.852 2.47 3.214.218.326.242.732-.045 1.035l-.68.722c-.299.316-.705.316-1.031.103-.388-.222-1.7-1.34-3.619-2.528l-.45-.258.295.422c1.297 1.846 2.478 3.104 2.735 3.466.219.326.243.731-.044 1.035l-.68.721c-.299.317-.705.316-1.031.104-.376-.235-1.423-1.079-3.353-2.278-1.918-1.188-3.215-1.765-3.603-2.012-.327-.212-.434-.53-.148-.833l.956-1.013c.286-.303.692-.303 1.019-.09.376.234 1.693 1.5 3.548 2.653-1.258-1.785-2.528-3.102-2.772-3.476-.231-.314-.255-.72.032-1.023l.549-.582c.298-.317.704-.316 1.03-.104.377.235 1.777 1.413 3.62 2.578-1.258-1.785-2.598-3.026-2.855-3.388-.219-.326-.243-.731.044-1.035l.955-1.013zm3.805-1.979c-.457.822 1.23 1.05 2.635.853 1.78-.272 3.226-.343 4.125.675 1.071 1.212.823 3.034-.917 4.455-1.01.8-2.548 1.53-3.4.566-.899-1.017-.478-2.434.747-2.518.854-.058 2.61.852 2.85.176.225-.664-1.667-.966-2.978-.69-1.761.372-3.085.241-3.926-.71-1.083-1.226-.765-2.97.917-4.456 1.148-1.013 2.548-1.53 3.389-.579.484.548.83 1.728.165 2.316-.926.817-3.162-.899-3.607-.088zm10.157-5.1c-.297-.428-.469-.818-.514-1.168-.042-.366.016-.688.175-.968.168-.287.4-.532.695-.738a2.22 2.22 0 01.92-.384c.317-.05.64.007.968.175.322.158.631.451.93.88.29.42.457.812.5 1.178.035.356-.023.68-.175.969-.16.28-.386.522-.682.727a2.338 2.338 0 01-.933.394 1.676 1.676 0 01-.969-.175c-.319-.174-.623-.47-.915-.89zm13.906-8.869c.523.983.5 2.198.002 3.114 1.429 1.091 2.187 1.516 2.52 1.772.319.264.381.566.012.762l-1.259.671c-.384.204-.83.107-1.148-.157-.27-.211-.814-.75-1.824-1.612l-.645.344 1.071 2.012c.18.338.12.705-.25.902l-1.12.596c-.384.205-.708.042-.888-.296-.204-.384-.68-1.648-1.727-3.614-1.039-1.95-1.822-3.051-2.034-3.45-.18-.338-.135-.698.249-.902l2.964-1.578c1.428-.761 3.283-.054 4.077 1.436zm-4.837.21l1.98 3.716c.86-.457 1.147-1.695.607-2.708-.515-.968-1.718-1.45-2.587-1.008z" fill="#EC0187"/><path d="M77.175 23.91c1.257 1.882 2.192 2.936 2.445 3.3.217.323.176.664-.207.83l-1.228.536c-.383.167-.756.008-.973-.316l-.784-1.404a5.87 5.87 0 00-.802.293 6.317 6.317 0 00-.776.396c.277.809.463 1.41.496 1.53.09.378-.048.76-.43.928l-1.228.535c-.383.167-.645-.041-.734-.42-.094-.433-.247-1.828-.755-4.037-.517-2.185-.989-3.441-1.106-3.884-.09-.378.048-.76.43-.928l2.568-1.12c.399-.174.756-.007.973.316.26.38.86 1.58 2.11 3.445zm-2.238 1.66c.224-.097.447-.195.615-.287-.998-1.767-1.931-3.733-2.298-3.573-.32.14.423 2.189 1.038 4.122.199-.067.406-.158.645-.262zm8.697-8.976c.395-.135.655.088.713.473.064.456.085 1.865.42 4.085.34 2.238.707 3.528.765 3.968.058.385-.093.749-.505.89l-2.651.904c-.395.135-.754-.055-.944-.395-.206-.389-.705-1.634-1.803-3.613-1.109-1.956-1.937-3.09-2.165-3.49-.19-.34-.137-.67.274-.81l1.433-.49c.395-.134.754.056.944.396.212.405 2.862 7.039 3.24 6.91.363-.124-1.596-6.994-1.66-7.45-.057-.385.094-.749.506-.89l1.433-.488zm4.913-.241c-.287.073-.378.348-.297.668l.49 1.922c.691-.176 1.504-.509 1.858-.6.405-.102.574-.002.699.487l.215.843c.12.473.024.659-.381.762-.354.09-1.227.187-1.923.346l.486 1.905c.094.371.302.695.623.614.742-.19.902-2.026 2.032-2.314 1.113-.283 1.88 2.448.666 2.757l-4.72 1.203c-.422.107-.698-.128-.792-.499-.108-.421-.27-1.762-.82-3.92-.545-2.142-1.045-3.397-1.156-3.836-.095-.37.035-.709.456-.816l4.721-1.203c1.214-.31 1.851 2.473.739 2.757-1.13.287-2.154-1.265-2.896-1.076zm15.923-.773c.141 1.104-.311 2.232-1.102 2.912.95 1.528 1.509 2.193 1.73 2.55.204.36.155.665-.259.718l-1.416.18c-.431.056-.814-.193-1.018-.553-.177-.293-.494-.99-1.134-2.153l-.725.093.289 2.26c.048.38-.139.702-.553.755l-1.26.161c-.431.056-.676-.211-.724-.591-.055-.431-.053-1.782-.335-3.992-.28-2.192-.623-3.499-.68-3.947-.049-.38.12-.7.552-.755l3.331-.426c1.605-.205 3.09 1.114 3.304 2.788zm-4.597-1.518l.534 4.177c.966-.123 1.673-1.178 1.528-2.318-.139-1.087-1.094-1.965-2.062-1.858zm8.629-.846c-.295.014-.44.266-.423.596l.099 1.98c.713-.035 1.576-.2 1.941-.219.417-.02.563.111.588.616l.044.868c.024.487-.107.65-.524.671-.365.019-1.24-.06-1.953-.041l.098 1.964c.019.382.159.74.489.724.765-.038 1.286-1.806 2.45-1.865 1.147-.058 1.359 2.772.108 2.834l-4.866.245c-.434.021-.658-.263-.677-.646-.022-.434.085-1.781-.027-4.005-.111-2.207-.352-3.537-.374-3.989-.019-.382.174-.688.609-.71l4.865-.244c1.252-.063 1.325 2.79.178 2.848-1.164.059-1.86-1.666-2.625-1.627zm11.113-1.151c.417.011.583.312.503.693-.099.45-.57 1.777-1.029 3.975-.46 2.216-.566 3.553-.664 3.985-.08.381-.349.67-.784.658l-2.8-.076c-.418-.011-.688-.315-.747-.7-.058-.436-.092-1.777-.432-4.014-.358-2.22-.739-3.571-.814-4.026-.059-.384.105-.676.54-.664l1.513.041c.418.011.688.315.747.7.058.453.231 7.595.631 7.605.383.01.94-7.11 1.039-7.56.08-.381.349-.67.784-.658l1.513.041zm3.245.247c.416.036.617.35.584.731-.038.45-.343 1.77-.53 3.972-.189 2.219-.111 3.57-.148 4.003-.033.382-.283.657-.699.622l-1.266-.108c-.433-.037-.616-.35-.584-.73.037-.434.324-1.754.513-3.973.187-2.202.127-3.552.166-4.003.032-.381.265-.658.698-.621l1.266.107zm5.277 1.681c-.293-.042-.482.177-.529.504l-.282 1.964c.706.101 1.585.104 1.946.156.414.06.532.217.46.716l-.123.862c-.07.482-.23.617-.643.558-.362-.052-1.206-.296-1.909-.415l-.28 1.946c-.054.38.015.758.342.805.758.109 1.608-1.527 2.762-1.361 1.137.163.803 2.98-.437 2.802l-4.823-.692c-.431-.062-.595-.384-.541-.763.062-.43.424-1.732.741-3.936.314-2.188.332-3.539.396-3.987.054-.379.303-.642.734-.58l4.822.692c1.24.178.766 2.993-.371 2.83-1.154-.166-1.507-1.992-2.265-2.1zm13.801 1.668c.406.097.49.421.333.778-.206.415-.957 1.613-1.91 3.658-.974 2.057-1.37 3.34-1.555 3.743-.174.352-.513.575-.919.478l-.965-.23c-.423-.1-.625-.453-.604-.842-.001-.447.314-2.143.387-4.397l-.001-.52-.219.467c-.953 2.045-1.454 3.696-1.64 4.1-.173.351-.513.574-.919.477l-.965-.23c-.423-.1-.625-.453-.604-.842.017-.443.226-1.77.303-4.042.073-2.254-.073-3.666-.053-4.127.021-.388.242-.64.649-.543l1.354.324c.406.096.608.449.587.837-.017.444-.458 2.217-.531 4.4.92-1.981 1.428-3.738 1.631-4.137.156-.356.496-.58.902-.482l.779.185c.423.101.625.454.604.842-.017.443-.339 2.245-.43 4.423.92-1.98 1.327-3.762 1.513-4.165.173-.352.513-.575.919-.478l1.354.323zm3.399 2.254c-.941.014-.297 1.59.574 2.71 1.123 1.406 1.906 2.625 1.472 3.91-.517 1.534-2.219 2.227-4.319 1.428-1.197-.477-2.597-1.445-2.186-2.665.434-1.286 1.871-1.628 2.555-.608.476.712.563 2.687 1.268 2.558.688-.136.007-1.926-.887-2.925-1.2-1.341-1.747-2.554-1.341-3.757.523-1.55 2.192-2.144 4.319-1.427 1.451.489 2.598 1.445 2.192 2.648-.234.693-1.084 1.581-1.925 1.298-1.171-.395-.798-3.189-1.722-3.17zm9.214 6.141c.223-.472.475-.815.755-1.03.296-.219.605-.33.927-.331.332.003.661.08.986.234.325.154.589.355.792.605.203.25.313.559.332.927.024.357-.076.772-.299 1.244-.218.461-.475.802-.771 1.021-.291.21-.6.32-.926.332a2.228 2.228 0 01-.971-.227 2.333 2.333 0 01-.807-.612 1.679 1.679 0 01-.333-.927c-.008-.363.097-.775.315-1.236zm14.687 7.646c-.591.944-1.656 1.53-2.698 1.555-.233 1.783-.223 2.652-.279 3.069-.07.407-.301.612-.655.39l-1.209-.757c-.369-.23-.507-.666-.436-1.074.048-.339.244-1.078.486-2.384l-.619-.388-1.21 1.932c-.203.325-.551.455-.905.234l-1.077-.674c-.369-.231-.389-.593-.186-.917.231-.369 1.09-1.412 2.271-3.3 1.173-1.873 1.736-3.1 1.976-3.484.204-.325.537-.465.906-.234l2.847 1.782c1.371.859 1.683 2.82.788 4.25zm-2.594-4.087l-2.234 3.569c.826.517 2.041.149 2.651-.824.581-.93.4-2.213-.417-2.745zm7.723 9.653c-1.009 2.026-1.46 3.36-1.65 3.761-.173.349-.489.482-.824.233l-1.075-.8c-.335-.25-.382-.653-.209-1.001l.83-1.378a5.986 5.986 0 00-.652-.551 6.405 6.405 0 00-.729-.477 38.919 38.919 0 01-1.082 1.19c-.284.266-.684.337-1.019.087l-1.075-.8c-.335-.249-.284-.58 0-.845.33-.297 1.465-1.123 3.13-2.66 1.64-1.534 2.496-2.567 2.822-2.888.284-.266.684-.337 1.019-.087l2.247 1.672c.349.26.382.653.209 1.002-.2.415-.944 1.53-1.942 3.542zm-2.552-1.118c.196.146.391.291.555.391 1.037-1.743 2.28-3.53 1.959-3.769-.279-.207-1.689 1.454-3.062 2.949.157.138.339.273.548.43zm11.923 2.936c.314.275.25.613-.055.855-.363.282-1.574 1.003-3.332 2.4-1.769 1.41-2.705 2.372-3.057 2.642-.305.242-.696.292-1.023.005l-2.106-1.847c-.314-.275-.328-.681-.128-1.015.234-.373 1.065-1.426 2.233-3.364 1.143-1.937 1.712-3.22 1.945-3.617.2-.334.513-.453.84-.166l1.138.998c.314.275.329.681.128 1.015-.246.386-4.675 5.99-4.374 6.254.288.253 5.267-4.87 5.63-5.153.305-.242.696-.292 1.023-.005l1.138.998zm2.392 3.873c-.207-.212-.491-.153-.727.078l-1.418 1.387c.499.51 1.195 1.047 1.45 1.308.292.298.29.495-.07.848l-.622.608c-.349.341-.558.351-.85.053-.255-.261-.777-.968-1.263-1.49l-1.406 1.375c-.273.267-.449.61-.218.846.535.547 2.205-.234 3.02.6.803.82-1.175 2.853-2.051 1.958l-3.407-3.483c-.305-.31-.239-.667.034-.934.311-.305 1.391-1.117 2.982-2.675 1.58-1.545 2.416-2.607 2.739-2.923.274-.268.631-.325.936-.014l3.407 3.482c.876.895-1.212 2.841-2.015 2.02-.816-.833.014-2.497-.521-3.044zm8.569 13.245c-.884.678-2.086.855-3.071.514-.843 1.59-1.136 2.407-1.334 2.778-.209.357-.496.468-.75.137l-.869-1.132c-.265-.345-.242-.801-.033-1.159.163-.3.605-.925 1.289-2.063l-.445-.58-1.808 1.387c-.304.233-.676.234-.931-.097l-.773-1.008c-.265-.345-.157-.691.147-.924.345-.265 1.514-.942 3.281-2.298 1.753-1.345 2.71-2.299 3.069-2.574.304-.233.665-.248.93.097l2.044 2.665c.985 1.284.593 3.23-.746 4.257zm-1.002-4.736l-3.341 2.563c.593.773 1.861.854 2.772.155.869-.668 1.148-1.934.569-2.718zm5.049 6.976c-.161-.247-.451-.246-.728-.065l-1.661 1.083c.389.598.966 1.26 1.166 1.566.228.35.187.543-.235.818l-.729.475c-.408.266-.616.235-.844-.115-.199-.306-.572-1.101-.947-1.708l-1.647 1.073c-.321.21-.561.511-.38.788.418.641 2.208.201 2.845 1.178.627.962-1.711 2.57-2.395 1.52l-2.661-4.082c-.237-.364-.103-.7.217-.91.365-.237 1.582-.823 3.448-2.04 1.851-1.206 2.879-2.083 3.258-2.33.32-.21.682-.196.92.168l2.66 4.082c.684 1.05-1.744 2.55-2.372 1.587-.636-.976.504-2.446.085-3.088zm6.666 9.153c.201.367.025.662-.345.784-.438.14-1.822.402-3.953 1.111-2.146.717-3.355 1.3-3.779 1.431-.369.123-.754.036-.962-.346l-1.344-2.457c-.201-.367-.075-.753.228-.998.348-.27 1.49-.973 3.252-2.393 1.739-1.427 2.714-2.436 3.069-2.73.302-.244.637-.248.846.133l.726 1.328c.2.367.074.753-.228.998-.364.278-6.448 4.021-6.255 4.372.183.336 6.618-2.766 7.056-2.907.37-.122.754-.035.963.346l.726 1.328zm1.466 3.053c.178.377.007.708-.339.871-.409.193-1.702.592-3.701 1.536-2.014.95-3.143 1.696-3.537 1.882-.346.163-.71.085-.888-.293l-.543-1.149c-.185-.393-.007-.708.339-.871.393-.186 1.679-.6 3.693-1.552 1.999-.943 3.136-1.673 3.545-1.866.346-.163.703-.1.888.293l.543 1.148zm1.016 4.997c-.111-.274-.396-.328-.702-.204l-1.838.746c.268.66.708 1.421.845 1.76.157.387.08.568-.388.758l-.806.327c-.451.183-.649.113-.806-.274-.137-.339-.351-1.191-.603-1.859l-1.822.74c-.355.143-.648.393-.523.7.287.709 2.129.62 2.567 1.7.431 1.064-2.171 2.194-2.642 1.033l-1.83-4.515c-.164-.403.032-.707.387-.851.403-.164 1.71-.506 3.774-1.343 2.048-.83 3.224-1.495 3.643-1.665.355-.143.707-.061.871.342l1.83 4.515c.471 1.161-2.2 2.169-2.631 1.105-.438-1.08.962-2.306.674-3.015zm5.593 13.075c.12.4-.118.635-.505.678-.463.03-1.877-.02-4.123.182-2.269.19-3.577.49-4.019.532-.391.026-.755-.155-.875-.555l-.284-.95c-.125-.417.078-.769.425-.945.387-.225 2.012-.803 3.999-1.87l.448-.262-.513.045c-2.247.2-3.927.595-4.368.637-.392.026-.755-.156-.875-.556l-.285-.95c-.125-.416.079-.768.425-.945.392-.208 1.645-.692 3.649-1.765 1.987-1.068 3.135-1.902 3.544-2.116.347-.176.675-.11.795.29l.399 1.332c.12.4-.083.752-.43.929-.392.208-2.147.716-4.072 1.747 2.175-.198 3.95-.64 4.397-.664.386-.043.75.139.87.539l.229.766c.125.417-.078.769-.425.945-.392.208-2.112.833-4.042 1.847 2.175-.198 3.92-.739 4.362-.78.391-.027.755.155.874.555l.4 1.334zm-.216 4.248c-.484-.807-1.524.54-2.057 1.855-.654 1.677-1.316 2.965-2.646 3.235-1.586.321-3.04-.804-3.4-3.022-.188-1.275-.052-2.972 1.21-3.227 1.33-.27 2.346.802 1.807 1.906-.377.769-2.043 1.834-1.578 2.379.462.528 1.67-.96 2.086-2.234.559-1.71 1.334-2.79 2.579-3.043 1.603-.325 2.954.822 3.4 3.022.304 1.5.052 2.972-1.193 3.224-.716.145-1.911-.145-2.088-1.015-.245-1.211 2.359-2.29 1.88-3.08zm-.729 10.942c.52-.044.943.001 1.269.137.338.145.589.357.752.634.164.289.262.612.292.971.031.358-.011.687-.125.988-.114.301-.326.552-.635.753-.297.2-.706.322-1.226.366-.508.043-.932-.008-1.27-.154a1.679 1.679 0 01-.753-.634 2.224 2.224 0 01-.29-.954 2.334 2.334 0 01.124-1.006c.125-.301.337-.552.634-.752.31-.189.719-.306 1.228-.349z" fill="#EC0187"/><path d="M115.328 96.805v34m0 0c0-4.209 3.091-12.627 15.454-12.627m-15.454 12.627c-.303-4.209-3.637-12.627-14.546-12.627" stroke="#91D7E1" stroke-width="2.668" stroke-linejoin="round"/></g><defs><clipPath id="clip0_308_1532"><path fill="#fff" d="M0 0h230v229H0z"/></clipPath></defs></svg>