<svg width="118" height="205" fill="none" xmlns="http://www.w3.org/2000/svg"><g clip-path="url(#clip0_236_5)"><path d="M102.497.187c56.559.3 102.166 46.394 101.866 102.953-.301 56.559-46.395 102.166-102.954 101.866C44.85 204.705-.757 158.611-.456 102.052-.156 45.493 45.938-.114 102.497.187z" fill="#fff"/><path d="M117.818 182.847c.751-.409-.434-1.402-1.609-1.933-1.498-.654-2.643-1.302-2.84-2.519-.235-1.45.84-2.729 2.865-2.976 1.164-.124 2.699.06 2.886 1.215.196 1.216-.814 2.1-1.796 1.57-.684-.369-1.591-1.92-2.102-1.517-.496.4.811 1.55 1.952 1.974 1.533.569 2.485 1.311 2.669 2.45.237 1.467-.852 2.651-2.865 2.977-1.373.221-2.699-.06-2.883-1.199-.106-.656.201-1.73.997-1.858 1.107-.179 1.992 2.223 2.726 1.816z" fill="#EC0187"/><path d="M107.743 185.989c-1.56.118-1.368-2.987-.265-3.071 1.072-.081.946 2.021 1.797 1.956 0 0 .047-1.683-.073-3.259-.153-2.017-.418-3.217-.448-3.611-.026-.347.159-.63.537-.659l1.15-.087c.394-.03.604.223.63.57.03.394-.036 1.619.117 3.637.119 1.575.403 3.234.403 3.234.867-.066.426-2.124 1.482-2.204 1.103-.084 1.777 2.956.201 3.075l-5.531.419zm-5.133 1.138c-2.307-.037-3.564-1.51-3.519-4.402.046-2.892 1.349-4.326 3.656-4.289 2.307.036 3.564 1.51 3.518 4.402-.045 2.891-1.348 4.325-3.655 4.289zm.125-7.949c-.632-.01-.999 1.186-1.036 3.588-.038 2.402.291 3.608.923 3.618.616.01.982-1.186 1.02-3.588.038-2.402-.291-3.608-.907-3.618z" fill="#EC0187"/><path d="M92.604 183.431c.104-1.006.737-1.909 1.577-2.347-.523-1.548-.879-2.252-1.001-2.614-.105-.36.001-.619.378-.58l1.289.133c.393.041.68.34.786.701.096.296.232.977.557 2.139l.66.068.213-2.059c.036-.346.268-.592.645-.553l1.148.118c.393.041.554.328.518.674-.041.393-.323 1.587-.531 3.599-.206 1.996-.174 3.223-.217 3.632-.035.346-.252.593-.645.553l-3.034-.314c-1.462-.151-2.501-1.625-2.343-3.15zm3.751 2.295l.393-3.805c-.881-.091-1.724.696-1.832 1.733-.102.991.56 1.965 1.439 2.072zm-11.006.374c-.653-.121-.589-.64-.389-.94.246-.372 2.81-3.98 3.064-4.399a2.13 2.13 0 00.161-.26c.131-.972.166-1.593.215-1.857.063-.342.314-.568.687-.499l1.15.212c.373.069.51.368.447.71-.049.264-.223.859-.448 1.814l.042.297c.087.482 1.206 4.771 1.302 5.207.08.352-.062.856-.699.738l-1.103-.204c-.373-.069-.635-.39-.712-.758-.079-.352.335-3.635-.178-3.73-.497-.092-1.3 3.119-1.5 3.419-.203.316-.563.523-.936.454l-1.103-.204zm-4.977-3.585c-.14.453-.322.793-.547 1.022a1.411 1.411 0 01-.791.417 2.11 2.11 0 01-.916-.085 2.007 2.007 0 01-.79-.442 1.413 1.413 0 01-.417-.791c-.067-.318-.031-.704.109-1.157.137-.443.324-.782.562-1.017.235-.225.499-.364.791-.417.289-.043.589-.017.901.08.312.096.581.245.805.447.211.208.35.472.418.79.053.326.012.71-.125 1.153zm-12.684-.024c-2.106-.943-2.681-2.793-1.499-5.433 1.181-2.64 2.944-3.444 5.05-2.501 2.106.942 2.68 2.793 1.499 5.432-1.182 2.64-2.944 3.444-5.05 2.502zm3.247-7.256c-.577-.258-1.385.696-2.366 2.888-.981 2.193-1.155 3.431-.578 3.69.563.251 1.371-.703 2.352-2.895.982-2.193 1.155-3.431.592-3.683zm-12.322 2.515c-.346-.191-.395-.526-.227-.83.2-.359 1.363-2.1 2.451-4.062.836-1.507 2.755-2.069 4.248-1.241 1.507.835 2.033 2.753 1.198 4.26-1.088 1.963-1.948 3.871-2.147 4.231-.169.304-.478.439-.824.248l-1.161-.644c-.346-.192-.395-.526-.226-.83.199-.36.374-.642 1.493-2.335.34-.516 2.179-3.508 1.184-4.059-.995-.552-2.558 2.593-2.815 3.155-.843 1.846-.99 2.144-1.189 2.503-.169.304-.479.439-.824.248l-1.161-.644zm-5.112-5.552c.558-.843 1.539-1.35 2.486-1.349.253-1.614.264-2.403.324-2.78.074-.368.288-.549.604-.339l1.08.715c.33.219.445.617.372.986-.052.307-.247.973-.498 2.153l.554.367 1.143-1.726c.192-.29.511-.401.828-.191l.961.637c.33.218.34.547.148.836-.219.33-1.022 1.257-2.139 2.944-1.108 1.673-1.649 2.775-1.876 3.117-.192.29-.498.41-.827.191l-2.543-1.684c-1.226-.811-1.464-2.599-.617-3.877zm2.26 3.771l2.112-3.188c-.738-.489-1.85-.183-2.426.687-.55.83-.415 2 .314 2.501zm-9.014-6.664c.796.31.792-1.236.44-2.476-.465-1.567-.709-2.86.095-3.795.958-1.114 2.628-1.117 4.122.272.846.81 1.694 2.102.932 2.989-.804.935-2.13.732-2.358-.36-.159-.761.442-2.454-.195-2.585-.626-.121-.663 1.619-.251 2.764.553 1.539.599 2.746-.153 3.62-.969 1.127-2.576 1.058-4.122-.271-1.055-.907-1.694-2.103-.942-2.978.433-.503 1.451-.961 2.063-.435.851.731-.416 2.956.369 3.255zm-8.546-6.688c-1.097-1.116 1.401-2.971 2.176-2.182.753.766-.934 2.025-.336 2.634 0 0 1.317-1.05 2.444-2.157 1.443-1.418 2.19-2.394 2.472-2.671.248-.244.583-.286.849-.015l.808.823c.277.282.219.606-.03.849-.281.277-1.26 1.017-2.704 2.435a40.004 40.004 0 00-2.211 2.394c.609.62 1.898-1.045 2.64-.29.775.79-1.114 3.265-2.221 2.137l-3.887-3.957zm-3.588-3.981c-1.465-1.783-1.154-3.695 1.08-5.531 2.235-1.836 4.171-1.77 5.636.012 1.465 1.783 1.154 3.695-1.081 5.531-2.234 1.836-4.17 1.77-5.635-.012zm6.142-5.047c-.401-.488-1.55.005-3.406 1.53-1.856 1.526-2.563 2.557-2.162 3.045.391.476 1.54-.018 3.396-1.543 1.856-1.525 2.563-2.556 2.172-3.032zm-10.262-5.59c.836-.57 1.935-.67 2.811-.312.844-1.399 1.151-2.125 1.349-2.452.207-.313.474-.4.687-.086l.731 1.07c.223.326.179.739-.028 1.052-.163.265-.596.809-1.273 1.807l.375.548 1.709-1.167c.287-.196.625-.178.839.135l.651.953c.222.326.107.635-.18.831-.326.222-1.42.778-3.091 1.919-1.657 1.131-2.573 1.948-2.913 2.18-.287.196-.615.191-.838-.136l-1.72-2.519c-.829-1.213-.375-2.959.891-3.823zm.671 4.345l3.158-2.156c-.499-.731-1.644-.867-2.506-.279-.822.561-1.138 1.696-.652 2.435zm-6.709-8.952c-.329-.577.109-.862.468-.903.443-.053 4.853-.421 5.338-.497.106-.006.204-.026.302-.045.827-.527 1.324-.901 1.557-1.034.302-.172.637-.127.825.203l.579 1.016c.188.329.049.627-.253.799-.234.133-.8.384-1.675.828l-.2.223c-.312.378-2.868 4-3.138 4.355-.218.288-.695.505-1.016-.058l-.556-.974c-.187-.33-.111-.738.121-1.033.218-.288 2.993-2.089 2.735-2.542-.251-.44-3.222 1.018-3.581 1.059-.372.049-.762-.093-.95-.422l-.556-.975zm.283-6.836c-.437.185-.815.265-1.135.24a1.408 1.408 0 01-.828-.337 2.14 2.14 0 01-.526-.755 2.021 2.021 0 01-.169-.889c.014-.292.126-.568.336-.829.2-.256.519-.477.956-.661.427-.181.807-.256 1.14-.225.324.035.6.147.828.336.219.194.392.441.52.742.127.301.185.602.176.903a1.527 1.527 0 01-.337.829c-.214.25-.534.466-.961.646zm-6.257-10.308c-.636-2.218.409-3.849 3.189-4.646 2.78-.798 4.53.032 5.166 2.25.636 2.218-.409 3.849-3.189 4.647-2.78.797-4.53-.033-5.166-2.251zm7.641-2.191c-.174-.608-1.424-.611-3.734.051-2.309.662-3.367 1.327-3.193 1.935.17.593 1.42.596 3.729-.066 2.309-.662 3.368-1.328 3.198-1.92zm-9.883-7.847c-.076-.388.148-.641.489-.708.404-.079 2.484-.31 4.686-.742 1.691-.331 3.357.776 3.685 2.451.332 1.69-.796 3.329-2.487 3.66-2.202.432-4.216 1.003-4.619 1.082-.341.067-.644-.083-.72-.47l-.256-1.303c-.076-.388.148-.641.49-.708.403-.079.731-.127 2.747-.361.614-.072 4.087-.592 3.868-1.709-.218-1.116-3.631-.286-4.227-.121-1.954.544-2.277.623-2.68.702-.341.067-.645-.083-.721-.471l-.255-1.302zm2.919-7.881c1.005-.113 2.023.313 2.63 1.04 1.4-.842 2.012-1.341 2.339-1.537.33-.18.606-.131.648.245l.145 1.288c.045.393-.187.737-.516.917-.269.158-.905.436-1.971 1.002l.075.659 2.057-.232c.345-.039.635.135.678.512l.129 1.147c.044.392-.201.611-.547.65-.392.044-1.619.024-3.629.25-1.995.225-3.186.519-3.595.565-.345.039-.633-.12-.678-.512l-.342-3.031c-.164-1.461 1.053-2.791 2.577-2.963zm-1.44 4.155l3.8-.429c-.099-.879-1.048-1.536-2.084-1.419-.99.112-1.8.967-1.716 1.848zm-.696-10.719c.278.808 1.456-.194 2.176-1.262.896-1.368 1.727-2.388 2.959-2.377 1.47.012 2.55 1.285 2.454 3.323-.073 1.169-.513 2.651-1.682 2.641-1.233-.01-1.934-1.154-1.247-2.033.479-.613 2.16-1.246 1.848-1.818-.311-.556-1.664.539-2.273 1.593-.818 1.415-1.71 2.23-2.864 2.22-1.485-.012-2.47-1.285-2.453-3.324.012-1.39.512-2.651 1.666-2.641.664.006 1.671.488 1.664 1.294-.009 1.122-2.526 1.591-2.248 2.384z" fill="#EC0187"/><path d="M17.582 91.213c.144-1.558 3.173-.85 3.072.252-.099 1.07-2.15.595-2.229 1.445 0 0 1.652.327 3.226.472 2.014.186 3.242.125 3.635.162.347.032.595.261.56.639l-.106 1.148c-.036.394-.321.558-.667.526-.394-.036-1.591-.306-3.605-.492-1.574-.145-3.257-.142-3.257-.142-.08.866 2.024.774 1.926 1.829-.101 1.101-3.211 1.258-3.065-.315l.51-5.524zm1.674-5.001c.42-2.268 2.083-3.263 4.926-2.736 2.844.526 4.041 2.049 3.621 4.318-.42 2.269-2.082 3.263-4.926 2.737-2.844-.526-4.041-2.05-3.621-4.319zm7.817 1.447c.115-.622-1.003-1.182-3.365-1.619-2.362-.437-3.606-.314-3.721.308-.113.606 1.005 1.166 3.367 1.603 2.362.437 3.607.314 3.719-.292zM25.61 76.788c.975.27 1.76 1.045 2.052 1.946 1.613-.258 2.367-.492 2.744-.551.373-.045.611.103.51.469l-.347 1.249c-.105.38-.448.613-.821.657-.308.046-1.003.067-2.202.194l-.178.639 1.995.553c.336.093.54.363.438.728l-.308 1.112c-.105.381-.415.492-.75.399-.381-.105-1.511-.583-3.461-1.123-1.934-.536-3.149-.709-3.545-.818-.335-.093-.543-.348-.437-.729l.814-2.939c.393-1.416 2.019-2.196 3.496-1.786zm-2.887 3.316l3.686 1.021c.236-.852-.399-1.816-1.404-2.094-.959-.266-2.03.224-2.282 1.073zm2.372-10.476c.228-.623.729-.473.992-.226.326.305 3.455 3.436 3.825 3.757.073.077.151.139.229.201.937.292 1.543.43 1.795.522.327.12.508.405.378.761l-.402 1.099c-.13.356-.448.442-.774.322-.253-.092-.81-.364-1.714-.745l-.299-.009c-.491.006-4.907.393-5.352.415-.361.019-.834-.205-.611-.813l.385-1.054c.131-.356.491-.561.867-.575.36-.019 3.527.938 3.707.448.173-.475-2.858-1.803-3.12-2.05-.278-.254-.422-.643-.291-.999l.385-1.054zm6.078-3.243c-.423-.215-.728-.452-.915-.712a1.402 1.402 0 01-.278-.85 2.12 2.12 0 01.238-.889c.147-.291.337-.526.569-.704.232-.177.515-.27.85-.278.325-.012.699.089 1.122.303.413.21.716.452.908.726.182.27.275.553.278.85a2.026 2.026 0 01-.231.875c-.148.291-.34.53-.576.718a1.531 1.531 0 01-.85.278c-.33-.002-.702-.108-1.115-.317zm3.358-10.642c1.281-1.919 3.201-2.176 5.606-.57 2.405 1.606 2.904 3.478 1.622 5.397-1.281 1.919-3.201 2.176-5.606.57-2.405-1.606-2.904-3.478-1.622-5.397zm6.611 4.414c.351-.525-.455-1.482-2.453-2.815-1.998-1.334-3.19-1.712-3.541-1.186-.342.512.464 1.468 2.462 2.802 1.998 1.334 3.189 1.712 3.532 1.199zm-.555-12.394c.247-.308.586-.3.857-.083.32.257 1.839 1.698 3.59 3.102 1.344 1.077 1.574 3.064.506 4.396-1.077 1.344-3.057 1.539-4.401.462-1.751-1.404-3.487-2.573-3.808-2.83-.271-.218-.352-.546-.105-.855l.831-1.035c.247-.309.585-.301.856-.083.321.257.57.477 2.049 1.865.451.423 3.09 2.741 3.802 1.853.711-.888-2.125-2.959-2.635-3.308-1.677-1.142-1.946-1.337-2.267-1.594-.271-.217-.352-.546-.105-.854l.83-1.036z" fill="#EC0187"/><path d="M47.312 44.73c.736.694 1.068 1.746.906 2.679 1.547.525 2.322.67 2.684.793.35.135.492.377.231.653l-.889.943c-.271.287-.683.333-1.033.198-.294-.103-.918-.409-2.038-.857l-.455.483 1.506 1.42c.253.239.307.573.047.849l-.791.839c-.271.287-.597.241-.85.003-.287-.271-1.064-1.221-2.536-2.609-1.46-1.377-2.454-2.097-2.753-2.379-.253-.238-.319-.56-.047-.848l2.092-2.219c1.008-1.069 2.81-.999 3.926.052zm-4.101 1.585l2.782 2.624c.607-.644.495-1.792-.264-2.508-.724-.683-1.9-.749-2.518-.116zm7.776-6.151c-.437.735 1.089.985 2.37.842 1.623-.201 2.938-.229 3.728.718.942 1.128.67 2.775-.946 4.021-.938.701-2.352 1.325-3.102.427-.79-.946-.372-2.221.743-2.266.777-.031 2.348.839 2.582.232.222-.597-1.488-.919-2.685-.702-1.609.293-2.807.14-3.546-.746-.952-1.14-.619-2.715.946-4.021 1.067-.891 2.352-1.325 3.091-.44.426.51.71 1.59.091 2.107-.862.719-2.848-.896-3.272-.172zm8.009-7.325c1.285-.892 2.692 1.883 1.783 2.513-.883.613-1.838-1.263-2.539-.776 0 0 .812 1.475 1.713 2.773 1.154 1.662 1.99 2.563 2.216 2.887.198.286.182.624-.129.84l-.948.658c-.325.225-.634.113-.832-.173-.225-.325-.789-1.414-1.943-3.076-.901-1.298-1.986-2.584-1.986-2.584-.714.495.709 2.047-.161 2.651-.908.63-3.029-1.649-1.731-2.55l4.557-3.163zm3.747-3.549c2.008-1.136 3.838-.5 5.261 2.018s1.024 4.414-.984 5.549c-2.009 1.135-3.839.499-5.262-2.019-1.423-2.517-1.024-4.413.985-5.548zm3.911 6.92c.55-.311.262-1.528-.92-3.619s-2.076-2.966-2.626-2.655c-.536.304-.248 1.52.934 3.612 1.182 2.091 2.075 2.965 2.612 2.662z" fill="#EC0187"/><path d="M72.841 27.581c.422.919.336 2.019-.164 2.823 1.237 1.067 1.902 1.492 2.19 1.742.275.257.315.534-.03.692l-1.178.541c-.359.164-.758.052-1.032-.204-.234-.206-.698-.724-1.568-1.559l-.603.277.864 1.881c.145.316.07.646-.275.805l-1.048.481c-.359.165-.644 0-.789-.316-.165-.359-.529-1.531-1.372-3.37-.838-1.824-1.489-2.864-1.66-3.237-.145-.316-.085-.64.274-.805l2.772-1.272c1.336-.613 2.98.128 3.619 1.521zm-4.396-.069l1.596 3.476c.804-.369 1.131-1.476.696-2.424-.416-.904-1.481-1.407-2.292-1.052zm9.121-4.79c.623-.228.832.25.812.611-.022.446-.394 4.856-.4 5.346a2.09 2.09 0 00-.006.305c.381.904.667 1.456.759 1.708.12.327.019.65-.337.78l-1.099.402c-.356.13-.626-.057-.746-.384-.092-.252-.244-.852-.536-1.789l-.187-.234c-.321-.371-3.466-3.495-3.77-3.821-.248-.263-.383-.769.226-.992l1.054-.385c.356-.13.745.013.998.291.248.263 1.56 3.3 2.05 3.12.475-.173-.467-3.346-.447-3.706.014-.376.219-.737.575-.867l1.054-.385zm5.907.595c-.108-.462-.123-.848-.044-1.158.086-.324.243-.577.47-.76.238-.186.516-.316.834-.391.318-.075.62-.08.905-.018.285.063.539.22.76.471.219.241.382.592.491 1.054.106.451.116.838.029 1.162a1.527 1.527 0 01-.471.76c-.227.183-.5.312-.818.387a2.14 2.14 0 01-.92.021 1.52 1.52 0 01-.76-.471c-.211-.253-.37-.606-.476-1.057zm10.557-6.343c2.294-.25 3.724 1.056 4.037 3.931.314 2.875-.801 4.459-3.095 4.71-2.293.25-3.724-1.057-4.037-3.932-.314-2.875.801-4.459 3.095-4.709zm.862 7.902c.628-.068.844-1.3.583-3.688-.26-2.388-.736-3.544-1.365-3.476-.612.067-.828 1.299-.567 3.687.26 2.388.736 3.544 1.349 3.477z" fill="#EC0187"/><path d="M103.883 16.488c.394-.01.606.254.615.601.01.411-.113 2.501-.058 4.744.042 1.722-1.33 3.179-3.036 3.22-1.722.042-3.147-1.346-3.189-3.068-.055-2.243-.28-4.325-.29-4.735-.008-.348.191-.622.586-.631l1.327-.033c.395-.009.607.254.615.602.01.411.003.743-.106 2.769-.032.617-.105 4.129 1.033 4.101 1.137-.028.894-3.532.831-4.147-.207-2.018-.231-2.349-.241-2.76-.008-.348.19-.621.585-.631l1.328-.032z" fill="#EC0187"/><path d="M110.898 18.681c-.057 1.009-.647 1.942-1.465 2.419.596 1.521.985 2.207 1.123 2.563.123.355.029.619-.35.598l-1.294-.072c-.394-.022-.695-.308-.817-.663-.111-.291-.279-.965-.658-2.11l-.663-.037-.115 2.067c-.02.347-.24.604-.618.583l-1.152-.065c-.395-.022-.569-.301-.55-.648.022-.394.248-1.6.361-3.62.111-2.004.021-3.228.044-3.638.02-.347.224-.605.619-.583l3.045.17c1.467.082 2.575 1.505 2.49 3.036zm-3.855-2.115l-.213 3.819c.883.049 1.689-.777 1.747-1.818.056-.994-.651-1.936-1.534-2.001zm10.6.087c-.843.139-.051 1.467.882 2.355 1.199 1.112 2.067 2.101 1.852 3.315-.257 1.447-1.693 2.299-3.686 1.865-1.14-.266-2.529-.946-2.324-2.098.215-1.213 1.46-1.715 2.213-.891.524.575.869 2.337 1.484 2.125.6-.214-.254-1.73-1.192-2.506-1.26-1.043-1.914-2.058-1.712-3.194.259-1.462 1.678-2.222 3.685-1.865 1.37.243 2.529.946 2.327 2.082-.116.654-.759 1.567-1.553 1.426-1.105-.196-1.148-2.756-1.976-2.614z" fill="#EC0187"/><path d="M70.065 102.453l28.822.153m0 0c-3.568-.018-10.69-2.655-10.635-13.048m10.635 13.048c-3.569.236-10.72 3.001-10.769 12.171" stroke="#91D7E1" stroke-width="2.225" stroke-linejoin="round"/></g><defs><clipPath id="clip0_236_5"><path fill="#fff" d="M0 0h118v205H0z"/></clipPath></defs></svg>