<svg width="83" height="187" viewBox="0 0 83 187" fill="none" xmlns="http://www.w3.org/2000/svg">
<path d="M19.4185 61.2597C16.1285 62.3903 11.0812 64.9718 9.69554 70.4007C7.92282 77.4042 13.5584 83.0526 13.5584 83.0526C8.48795 83.7784 1.38156 87.4469 0.692602 93.8589C-0.0737715 100.932 5.53082 104.862 5.53082 104.862H6.02628C4.81092 106.788 2.25631 111.345 3.13106 119.421C3.99033 127.49 8.08544 131.838 10.2994 134.493C9.58723 135.74 8.00023 140.804 8.14731 144.11C8.41051 149.919 13.7674 155.85 13.7674 155.85C10.7406 165.477 12.792 169.824 17.0496 174.646C17.4677 179.46 19.3178 183.465 24.8682 185.233H24.9766C28.2821 186.285 34.7072 186.843 38.0746 186.882C41.4343 186.921 47.8672 186.285 51.1649 185.233C56.7153 183.465 58.5654 179.46 58.9834 174.646C63.721 169.014 64.8513 163.021 62.2657 155.85C63.125 155.144 67.7387 149.919 67.9942 144.11C68.1413 140.804 66.5543 135.74 65.8499 134.493C68.0638 131.838 72.1511 127.49 73.0181 119.421C73.8851 111.345 71.3383 106.788 70.1152 104.862C70.1152 104.862 75.7198 100.932 74.9534 93.8589C74.2645 87.4469 67.1504 83.7784 62.0877 83.0526C62.0877 83.0526 67.7232 77.4042 65.9428 70.4007C64.0462 62.9119 55.1594 60.8419 53.5337 60.523C53.5337 60.523 57.6365 57.4801 59.1538 50.8973C60.671 44.3153 59.6802 37.6351 53.5569 31.4454C47.4337 25.2565 37.6953 22.3087 37.3779 15.9723C37.2463 13.3188 38.0591 10.2251 38.0591 10.2251C38.0591 10.2251 25.3869 17.1021 28.9478 29.2352C30.6663 35.0834 34.3898 38.5194 34.3898 38.5194C34.3898 38.5194 26.1378 40.9447 21.1757 47.2724C16.6472 53.0589 19.1862 60.4757 19.1862 60.4757L19.4185 61.2597Z" fill="#5C2D95"/>
<path d="M26.4185 51.7602C23.1285 52.8907 18.0812 55.4723 16.6955 60.9012C14.9228 67.9047 20.5584 73.5531 20.5584 73.5531C15.488 74.2789 8.38156 77.9474 7.6926 84.3594C6.92623 91.4326 12.5308 95.3627 12.5308 95.3627H13.0263C11.8109 97.2888 9.25631 101.846 10.1311 109.922C10.9903 117.99 15.0854 122.338 17.2994 124.994C16.5872 126.241 15.0002 131.305 15.1473 134.61C15.4105 140.42 20.7674 146.35 20.7674 146.35C17.7406 155.977 19.792 160.325 24.0496 165.147C24.4677 169.961 26.3178 173.965 31.8682 175.734H31.9766C35.2821 176.786 41.7072 177.343 45.0746 177.382C48.4343 177.421 54.8672 176.786 58.1649 175.734C63.7153 173.965 65.5654 169.961 65.9834 165.147C70.721 159.514 71.8513 153.521 69.2657 146.35C70.125 145.644 74.7387 140.42 74.9942 134.61C75.1413 131.305 73.5543 126.241 72.8499 124.994C75.0638 122.338 79.1511 117.99 80.0181 109.922C80.8851 101.846 78.3383 97.2888 77.1152 95.3627C77.1152 95.3627 82.7198 91.4326 81.9534 84.3594C81.2645 77.9474 74.1504 74.2789 69.0877 73.5531C69.0877 73.5531 74.7232 67.9047 72.9428 60.9012C71.0462 53.4124 62.1594 51.3424 60.5337 51.0235C60.5337 51.0235 64.6365 47.9806 66.1538 41.3978C67.671 34.8158 66.6802 28.1356 60.5569 21.9459C54.4337 15.757 44.6953 12.8092 44.3779 6.47278C44.2463 3.81934 45.0591 0.725586 45.0591 0.725586C45.0591 0.725586 32.3869 7.60262 35.9478 19.7357C37.6663 25.5839 41.3898 29.0199 41.3898 29.0199C41.3898 29.0199 33.1378 31.4452 28.1757 37.7729C23.6472 43.5593 26.1862 50.9762 26.1862 50.9762L26.4185 51.7602Z" fill="white"/>
</svg>
