<svg width="224" height="87" fill="none" xmlns="http://www.w3.org/2000/svg"><path d="M87.171 84.23h-1.923v2.423h-.195v-5.04h2.568v.184h-2.373v2.25h1.923v.183zm.706-2.162v-.726h-3.08v5.582h.706v-2.423h1.924v-.726h-1.924v-1.707h2.374zm4.19 1.149a.716.716 0 01-.2.504.685.685 0 01-.209.157.618.618 0 01-.265.055h-.988v-1.865h.988a.672.672 0 01.475.211.717.717 0 01.2.504v.434zm.185-.818a1.03 1.03 0 00-.2-.31.875.875 0 00-.291-.21.84.84 0 00-.368-.082h-1.244v2.407h1.244a.924.924 0 00.368-.076 1.037 1.037 0 00.49-.526c.047-.12.073-.25.073-.385v-.434c0-.135-.026-.265-.072-.384zm-.185.818a.716.716 0 01-.2.504.685.685 0 01-.209.157.618.618 0 01-.265.055h-.988v-1.865h.988a.672.672 0 01.475.211.717.717 0 01.2.504v.434zm.185-.818a1.03 1.03 0 00-.2-.31.875.875 0 00-.291-.21.84.84 0 00-.368-.082h-1.244v2.407h1.244a.924.924 0 00.368-.076 1.037 1.037 0 00.49-.526c.047-.12.073-.25.073-.385v-.434c0-.135-.026-.265-.072-.384zm-.185.818a.716.716 0 01-.2.504.685.685 0 01-.209.157.618.618 0 01-.265.055h-.988v-1.865h.988a.672.672 0 01.475.211.717.717 0 01.2.504v.434zm.185-.818a1.03 1.03 0 00-.2-.31.875.875 0 00-.291-.21.84.84 0 00-.368-.082h-1.244v2.407h1.244a.924.924 0 00.368-.076 1.037 1.037 0 00.49-.526c.047-.12.073-.25.073-.385v-.434c0-.135-.026-.265-.072-.384zm-.185.818a.716.716 0 01-.2.504.685.685 0 01-.209.157.618.618 0 01-.265.055h-.988v-1.865h.988a.672.672 0 01.475.211.717.717 0 01.2.504v.434zm.185-.818a1.03 1.03 0 00-.2-.31.875.875 0 00-.291-.21.84.84 0 00-.368-.082h-1.244v2.407h1.244a.924.924 0 00.368-.076 1.037 1.037 0 00.49-.526c.047-.12.073-.25.073-.385v-.434c0-.135-.026-.265-.072-.384zm-1.847-.331h.988a.672.672 0 01.475.211.717.717 0 01.2.504v.434a.716.716 0 01-.2.504.685.685 0 01-.21.157.618.618 0 01-.265.055h-.988v-1.865zm1.356 2.06a1.037 1.037 0 00.49-.526c.047-.12.073-.25.073-.385v-.434c0-.135-.026-.265-.072-.384a1.03 1.03 0 00-.2-.31.875.875 0 00-.291-.21.84.84 0 00-.368-.082h-1.244v2.407h1.244a.924.924 0 00.368-.076zm-1.612 2.525h-.195v-5.04h1.464c.148 0 .297.032.424.091a1.123 1.123 0 01.59.624c.06.147.086.293.086.455v.434c0 .163-.026.314-.082.455a1.206 1.206 0 01-.24.374c-.098.108-.22.19-.353.25-.128.06-.277.092-.425.092h-.235l1.36 2.265h-.22l-1.355-2.265h-.819v2.265zm1.489-2.01a1.19 1.19 0 00.307-.098 1.483 1.483 0 00.727-.764c.066-.18.102-.369.102-.564v-.434c0-.195-.036-.384-.108-.558a1.361 1.361 0 00-.291-.46 1.392 1.392 0 00-.43-.31 1.25 1.25 0 00-.527-.113h-1.72v5.582h.707V84.66h.42l1.36 2.265h.824l-1.371-2.282zm.43-1.426a.716.716 0 01-.2.504.685.685 0 01-.21.157.618.618 0 01-.265.055h-.988v-1.865h.988a.672.672 0 01.475.211.717.717 0 01.2.504v.434zm.184-.818a1.03 1.03 0 00-.2-.31.875.875 0 00-.291-.21.84.84 0 00-.368-.082h-1.244v2.407h1.244a.924.924 0 00.368-.076 1.037 1.037 0 00.49-.526c.047-.12.073-.25.073-.385v-.434c0-.135-.026-.265-.072-.384zm-.185.818a.716.716 0 01-.2.504.685.685 0 01-.209.157.618.618 0 01-.265.055h-.988v-1.865h.988a.672.672 0 01.475.211.717.717 0 01.2.504v.434zm.185-.818a1.03 1.03 0 00-.2-.31.875.875 0 00-.291-.21.84.84 0 00-.368-.082h-1.244v2.407h1.244a.924.924 0 00.368-.076 1.037 1.037 0 00.49-.526c.047-.12.073-.25.073-.385v-.434c0-.135-.026-.265-.072-.384zm-.185.818a.716.716 0 01-.2.504.685.685 0 01-.209.157.618.618 0 01-.265.055h-.988v-1.865h.988a.672.672 0 01.475.211.717.717 0 01.2.504v.434zm.185-.818a1.03 1.03 0 00-.2-.31.875.875 0 00-.291-.21.84.84 0 00-.368-.082h-1.244v2.407h1.244a.924.924 0 00.368-.076 1.037 1.037 0 00.49-.526c.047-.12.073-.25.073-.385v-.434c0-.135-.026-.265-.072-.384zm-.185.818a.716.716 0 01-.2.504.685.685 0 01-.209.157.618.618 0 01-.265.055h-.988v-1.865h.988a.672.672 0 01.475.211.717.717 0 01.2.504v.434zm.185-.818a1.03 1.03 0 00-.2-.31.875.875 0 00-.291-.21.84.84 0 00-.368-.082h-1.244v2.407h1.244a.924.924 0 00.368-.076 1.037 1.037 0 00.49-.526c.047-.12.073-.25.073-.385v-.434c0-.135-.026-.265-.072-.384zm5.061 1.831h-1.92v2.24h2.37v.183h-2.564v-5.04h2.564v.184h-2.37v2.25h1.92v.183zm.706-2.162v-.726h-3.076v5.582h3.076v-.726h-2.37v-1.697h1.92v-.726h-1.92v-1.707h2.37zm4.789 3.496c0 .157-.031.309-.092.45a1.33 1.33 0 01-.251.374 1.15 1.15 0 01-.363.249c-.133.06-.281.092-.435.092h-.358c-.154 0-.297-.032-.435-.092a1.17 1.17 0 01-.364-.25 1.348 1.348 0 01-.25-.373 1.12 1.12 0 01-.087-.45v-.097l.194-.033v.13c0 .136.026.266.077.385.056.119.128.222.215.314a.938.938 0 00.307.206c.112.054.24.081.369.081h.311a.855.855 0 00.369-.08c.113-.05.215-.12.307-.207.087-.092.159-.195.21-.314a.978.978 0 00.082-.385v-.163a1.054 1.054 0 00-.425-.872 1.618 1.618 0 00-.41-.233 17.56 17.56 0 00-.435-.18 5.243 5.243 0 01-.424-.194 1.643 1.643 0 01-.354-.245 1.106 1.106 0 01-.234-.352 1.263 1.263 0 01-.093-.515v-.102a1.192 1.192 0 01.322-.824 1.2 1.2 0 01.354-.255c.133-.06.282-.087.434-.087h.318c.154 0 .297.027.43.087.133.065.25.146.353.255a1.187 1.187 0 01.322.824v.021l-.195.033v-.054a.957.957 0 00-.076-.385.932.932 0 00-.491-.52.799.799 0 00-.364-.076h-.276a.797.797 0 00-.363.075.885.885 0 00-.297.212.9.9 0 00-.2.309.974.974 0 00-.076.385v.102a.95.95 0 00.123.5c.076.13.179.243.301.335.124.092.257.168.41.233.138.06.287.12.434.185.143.06.287.13.426.2.128.07.245.157.348.26.101.098.184.217.24.358.061.14.092.314.092.52v.163zm.143-.796a1.334 1.334 0 00-.302-.445 1.635 1.635 0 00-.409-.298 4.217 4.217 0 00-.445-.217 12.35 12.35 0 01-.435-.184 1.526 1.526 0 01-.353-.201.904.904 0 01-.235-.255.752.752 0 01-.082-.358v-.102c0-.098.02-.19.056-.277a.646.646 0 01.143-.228.69.69 0 01.215-.151.618.618 0 01.266-.055h.276a.658.658 0 01.477.206.758.758 0 01.148.228.84.84 0 01.051.277v.373l.706-.119v-.254a1.46 1.46 0 00-.108-.559 1.469 1.469 0 00-.292-.46 1.381 1.381 0 00-.428-.31 1.347 1.347 0 00-.533-.108h-.318c-.189 0-.367.038-.531.109a1.32 1.32 0 00-.435.309 1.505 1.505 0 00-.4 1.019v.102c0 .244.042.456.113.63.077.167.175.32.302.438.123.114.261.212.409.288.143.075.292.14.446.205.148.055.291.114.435.174.133.054.25.124.353.2a.774.774 0 01.316.656v.163c0 .098-.019.19-.056.27a.744.744 0 01-.159.228.708.708 0 01-.496.217h-.311a.646.646 0 01-.272-.06.777.777 0 01-.23-.151.75.75 0 01-.209-.504v-.45l-.706.12v.33c0 .195.035.385.112.564.076.168.173.32.302.455.127.13.276.233.444.304.164.075.344.113.533.113h.358a1.368 1.368 0 00.977-.417c.128-.13.23-.282.307-.456a1.5 1.5 0 00.112-.563v-.163c0-.244-.04-.455-.112-.633zm5.08 1.885h-.194V84.23h-2.179v2.423h-.195v-5.04h.195v2.433h2.179v-2.433h.194v5.04zm-.449-5.311v2.433h-1.669v-2.433h-.706v5.582h.706v-2.423h1.669v2.423h.706v-5.582h-.706zm5.326 5.311h-2.113v-5.04h.194v4.856h1.919v.184zm-1.662-.455v-4.856h-.706v5.582h2.624v-.726h-1.918zm4.737.455h-.194v-2.395l-1.223-2.645h.199l1.116 2.38 1.11-2.38h.2l-1.197 2.574-.011 2.466zm.849-5.311l-.951 2.038-.952-2.038h-.772l1.375 2.948v2.634h.708V84.28l1.36-2.937h-.768zm8.039 1.571a.73.73 0 01-.05.277.779.779 0 01-.149.228.717.717 0 01-.215.157.612.612 0 01-.261.054h-.988v-1.561h.988c.092 0 .179.022.261.06a.713.713 0 01.364.379.73.73 0 01.05.276v.13zm.184-.514a1.11 1.11 0 00-.199-.31.885.885 0 00-.297-.21.832.832 0 00-.363-.082h-1.243V83.9h1.243a.915.915 0 00.363-.076.987.987 0 00.496-.526c.047-.119.072-.249.072-.385v-.13c0-.135-.025-.265-.072-.384zm-.184 3.089a.73.73 0 01-.05.276.699.699 0 01-.364.38.611.611 0 01-.261.054h-.988v-1.843h.988c.092 0 .179.016.261.055a.709.709 0 01.215.157c.061.065.112.14.149.222a.74.74 0 01.05.282v.417zm.184-.808a1.105 1.105 0 00-.204-.309 1.055 1.055 0 00-.292-.21.908.908 0 00-.363-.077h-1.243v2.385h1.243a.871.871 0 00.655-.287.965.965 0 00.276-.694v-.417c0-.141-.025-.271-.072-.39zm-.184.808a.73.73 0 01-.05.276.699.699 0 01-.364.38.611.611 0 01-.261.054h-.988v-1.843h.988c.092 0 .179.016.261.055a.709.709 0 01.215.157c.061.065.112.14.149.222a.74.74 0 01.05.282v.417zm.184-.808a1.105 1.105 0 00-.204-.309 1.055 1.055 0 00-.292-.21.908.908 0 00-.363-.077h-1.243v2.385h1.243a.871.871 0 00.655-.287.965.965 0 00.276-.694v-.417c0-.141-.025-.271-.072-.39zm-.184-1.767a.73.73 0 01-.05.277.779.779 0 01-.149.228.717.717 0 01-.215.157.612.612 0 01-.261.054h-.988v-1.561h.988c.092 0 .179.022.261.06a.713.713 0 01.364.379.73.73 0 01.05.276v.13zm.184-.514a1.11 1.11 0 00-.199-.31.885.885 0 00-.297-.21.832.832 0 00-.363-.082h-1.243V83.9h1.243a.915.915 0 00.363-.076.987.987 0 00.496-.526c.047-.119.072-.249.072-.385v-.13c0-.135-.025-.265-.072-.384zm-.184.514a.73.73 0 01-.05.277.779.779 0 01-.149.228.717.717 0 01-.215.157.612.612 0 01-.261.054h-.988v-1.561h.988c.092 0 .179.022.261.06a.713.713 0 01.364.379.73.73 0 01.05.276v.13zm.184-.514a1.11 1.11 0 00-.199-.31.885.885 0 00-.297-.21.832.832 0 00-.363-.082h-1.243V83.9h1.243a.915.915 0 00.363-.076.987.987 0 00.496-.526c.047-.119.072-.249.072-.385v-.13c0-.135-.025-.265-.072-.384zm-.184 3.089a.73.73 0 01-.05.276.699.699 0 01-.364.38.611.611 0 01-.261.054h-.988v-1.843h.988c.092 0 .179.016.261.055a.709.709 0 01.215.157c.061.065.112.14.149.222a.74.74 0 01.05.282v.417zm.184-.808a1.105 1.105 0 00-.204-.309 1.055 1.055 0 00-.292-.21.908.908 0 00-.363-.077h-1.243v2.385h1.243a.871.871 0 00.655-.287.965.965 0 00.276-.694v-.417c0-.141-.025-.271-.072-.39zm-.184.808a.73.73 0 01-.05.276.699.699 0 01-.364.38.611.611 0 01-.261.054h-.988v-1.843h.988c.092 0 .179.016.261.055a.709.709 0 01.215.157c.061.065.112.14.149.222a.74.74 0 01.05.282v.417zm.184-.808a1.105 1.105 0 00-.204-.309 1.055 1.055 0 00-.292-.21.908.908 0 00-.363-.077h-1.243v2.385h1.243a.871.871 0 00.655-.287.965.965 0 00.276-.694v-.417c0-.141-.025-.271-.072-.39zm-.184-1.767a.73.73 0 01-.05.277.779.779 0 01-.149.228.717.717 0 01-.215.157.612.612 0 01-.261.054h-.988v-1.561h.988c.092 0 .179.022.261.06a.713.713 0 01.364.379.73.73 0 01.05.276v.13zm.184-.514a1.11 1.11 0 00-.199-.31.885.885 0 00-.297-.21.832.832 0 00-.363-.082h-1.243V83.9h1.243a.915.915 0 00.363-.076.987.987 0 00.496-.526c.047-.119.072-.249.072-.385v-.13c0-.135-.025-.265-.072-.384zm-.184.514a.73.73 0 01-.05.277.779.779 0 01-.149.228.717.717 0 01-.215.157.612.612 0 01-.261.054h-.988v-1.561h.988c.092 0 .179.022.261.06a.713.713 0 01.364.379.73.73 0 01.05.276v.13zm-.015-.823a.885.885 0 00-.297-.212.832.832 0 00-.363-.081h-1.243V83.9h1.243a.915.915 0 00.363-.076.987.987 0 00.496-.526c.047-.119.072-.249.072-.385v-.13c0-.135-.025-.265-.072-.384a1.11 1.11 0 00-.199-.31zm.015 2.98v.418a.73.73 0 01-.05.276.699.699 0 01-.364.38.611.611 0 01-.261.054h-.988v-1.843h.988c.092 0 .179.016.261.055a.709.709 0 01.215.157c.061.065.112.14.149.222a.74.74 0 01.05.282zm-1.918-.986v2.385h1.243a.871.871 0 00.655-.287.965.965 0 00.276-.694v-.417c0-.141-.025-.271-.072-.39a1.105 1.105 0 00-.204-.31 1.055 1.055 0 00-.292-.21.908.908 0 00-.363-.077h-1.243zm1.786-.217l-.215.125.215.12a1.119 1.119 0 01.419.422c.056.092.092.184.123.287.025.104.04.212.04.326v.34c0 .163-.025.31-.086.456a1.09 1.09 0 01-.236.369 1.035 1.035 0 01-.783.341h-1.464v-5.04h1.464c.154 0 .297.032.43.091a1.127 1.127 0 01.589.624c.061.147.086.293.086.455v.055c0 .114-.015.222-.04.325a1.204 1.204 0 01-.308.526.946.946 0 01-.234.178zm.639-.276c.061-.108.112-.228.149-.352a1.49 1.49 0 00.051-.401v-.055c0-.195-.037-.384-.108-.558a1.41 1.41 0 00-.721-.77 1.294 1.294 0 00-.533-.113h-1.719v5.582h1.719c.184 0 .364-.038.533-.108a1.419 1.419 0 00.721-.77c.071-.173.108-.363.108-.558v-.341c0-.141-.016-.277-.051-.396a1.43 1.43 0 00-.149-.358 1.608 1.608 0 00-.225-.298c-.042-.038-.077-.07-.117-.103.04-.033.075-.07.112-.103a1.59 1.59 0 00.23-.298zm-.507-.678a.73.73 0 01-.05.277.779.779 0 01-.149.228.717.717 0 01-.215.157.612.612 0 01-.261.054h-.988v-1.561h.988c.092 0 .179.022.261.06a.713.713 0 01.364.379.73.73 0 01.05.276v.13zm.184-.514a1.11 1.11 0 00-.199-.31.885.885 0 00-.297-.21.832.832 0 00-.363-.082h-1.243V83.9h1.243a.915.915 0 00.363-.076.987.987 0 00.496-.526c.047-.119.072-.249.072-.385v-.13c0-.135-.025-.265-.072-.384zm-.184 3.089a.73.73 0 01-.05.276.699.699 0 01-.364.38.611.611 0 01-.261.054h-.988v-1.843h.988c.092 0 .179.016.261.055a.709.709 0 01.215.157c.061.065.112.14.149.222a.74.74 0 01.05.282v.417zm-.02-1.117a1.055 1.055 0 00-.292-.21.908.908 0 00-.363-.077h-1.243v2.385h1.243a.871.871 0 00.655-.287.965.965 0 00.276-.694v-.417c0-.141-.025-.271-.072-.39a1.105 1.105 0 00-.204-.31zm.02 1.117a.73.73 0 01-.05.276.699.699 0 01-.364.38.611.611 0 01-.261.054h-.988v-1.843h.988c.092 0 .179.016.261.055a.709.709 0 01.215.157c.061.065.112.14.149.222a.74.74 0 01.05.282v.417zm.184-.808a1.105 1.105 0 00-.204-.309 1.055 1.055 0 00-.292-.21.908.908 0 00-.363-.077h-1.243v2.385h1.243a.871.871 0 00.655-.287.965.965 0 00.276-.694v-.417c0-.141-.025-.271-.072-.39zm-.184-1.767a.73.73 0 01-.05.277.779.779 0 01-.149.228.717.717 0 01-.215.157.612.612 0 01-.261.054h-.988v-1.561h.988c.092 0 .179.022.261.06a.713.713 0 01.364.379.73.73 0 01.05.276v.13zm.184-.514a1.11 1.11 0 00-.199-.31.885.885 0 00-.297-.21.832.832 0 00-.363-.082h-1.243V83.9h1.243a.915.915 0 00.363-.076.987.987 0 00.496-.526c.047-.119.072-.249.072-.385v-.13c0-.135-.025-.265-.072-.384zm-.184.514a.73.73 0 01-.05.277.779.779 0 01-.149.228.717.717 0 01-.215.157.612.612 0 01-.261.054h-.988v-1.561h.988c.092 0 .179.022.261.06a.713.713 0 01.364.379.73.73 0 01.05.276v.13zm.184-.514a1.11 1.11 0 00-.199-.31.885.885 0 00-.297-.21.832.832 0 00-.363-.082h-1.243V83.9h1.243a.915.915 0 00.363-.076.987.987 0 00.496-.526c.047-.119.072-.249.072-.385v-.13c0-.135-.025-.265-.072-.384zm-.184 3.089a.73.73 0 01-.05.276.699.699 0 01-.364.38.611.611 0 01-.261.054h-.988v-1.843h.988c.092 0 .179.016.261.055a.709.709 0 01.215.157c.061.065.112.14.149.222a.74.74 0 01.05.282v.417zm.184-.808a1.105 1.105 0 00-.204-.309 1.055 1.055 0 00-.292-.21.908.908 0 00-.363-.077h-1.243v2.385h1.243a.871.871 0 00.655-.287.965.965 0 00.276-.694v-.417c0-.141-.025-.271-.072-.39zm-.184.808a.73.73 0 01-.05.276.699.699 0 01-.364.38.611.611 0 01-.261.054h-.988v-1.843h.988c.092 0 .179.016.261.055a.709.709 0 01.215.157c.061.065.112.14.149.222a.74.74 0 01.05.282v.417zm.184-.808a1.105 1.105 0 00-.204-.309 1.055 1.055 0 00-.292-.21.908.908 0 00-.363-.077h-1.243v2.385h1.243a.871.871 0 00.655-.287.965.965 0 00.276-.694v-.417c0-.141-.025-.271-.072-.39zm-.184-1.767a.73.73 0 01-.05.277.779.779 0 01-.149.228.717.717 0 01-.215.157.612.612 0 01-.261.054h-.988v-1.561h.988c.092 0 .179.022.261.06a.713.713 0 01.364.379.73.73 0 01.05.276v.13zm.184-.514a1.11 1.11 0 00-.199-.31.885.885 0 00-.297-.21.832.832 0 00-.363-.082h-1.243V83.9h1.243a.915.915 0 00.363-.076.987.987 0 00.496-.526c.047-.119.072-.249.072-.385v-.13c0-.135-.025-.265-.072-.384zm3.275 2.564l.501-1.876.507 1.876h-1.008zm.645-2.326l-.016-.195h-.255l-.011.168-.701 2.624h1.683l-.7-2.597zm-.645 2.326l.501-1.876.507 1.876h-1.008zm.645-2.326l-.016-.195h-.255l-.011.168-.701 2.624h1.683l-.7-2.597zm-.645 2.326l.501-1.876.507 1.876h-1.008zm.645-2.326l-.016-.195h-.255l-.011.168-.701 2.624h1.683l-.7-2.597zm-.645 2.326l.501-1.876.507 1.876h-1.008zm.645-2.326l-.016-.195h-.255l-.011.168-.701 2.624h1.683l-.7-2.597zm-.645 2.326l.501-1.876.507 1.876h-1.008zm.645-2.326l-.016-.195h-.255l-.011.168-.701 2.624h1.683l-.7-2.597zm-1.566 4.016l1.397-5.04h.046l1.402 5.04h-.2l-.332-1.236h-1.781l-.327 1.236h-.205zm1.632-5.311h-.43l-1.545 5.582h.738l.332-1.236h1.391l.333 1.236h.732l-1.551-5.582zm-.711 3.62l.501-1.875.507 1.876h-1.008zm.645-2.325l-.016-.195h-.255l-.011.168-.701 2.624h1.683l-.7-2.597zm-.645 2.326l.501-1.876.507 1.876h-1.008zm.645-2.326l-.016-.195h-.255l-.011.168-.701 2.624h1.683l-.7-2.597zm-.645 2.326l.501-1.876.507 1.876h-1.008zm.645-2.326l-.016-.195h-.255l-.011.168-.701 2.624h1.683l-.7-2.597zm-.645 2.326l.501-1.876.507 1.876h-1.008zm.645-2.326l-.016-.195h-.255l-.011.168-.701 2.624h1.683l-.7-2.597zm3.847 4.016h-.194v-5.04h.194v5.04zm2.191 0l-1.796-2.52 1.796-2.52h.235l-1.832 2.52 1.832 2.52h-.235zm.751-5.311h-.88l-1.805 2.542v-2.542h-.706v5.582h.706v-2.536l1.805 2.536h.88l-2.026-2.791 2.026-2.791zm4.135 2.888h-1.919v2.24h2.369v.183h-2.563v-5.04h2.563v.184h-2.369v2.25h1.919v.183zm.706-2.162v-.726h-3.075v5.582h3.075v-.726h-2.369v-1.697h1.919v-.726h-1.919v-1.707h2.369zm4.41 3.42c0 .098-.014.19-.05.276a.76.76 0 01-.149.228.676.676 0 01-.215.152.611.611 0 01-.261.054h-.987v-4.13h.987a.689.689 0 01.476.211.765.765 0 01.149.228c.036.087.05.179.05.276v2.705zm.185-3.09a1.135 1.135 0 00-.2-.308.881.881 0 00-.296-.212.836.836 0 00-.364-.081h-1.243v4.672h1.243a.868.868 0 00.655-.287.984.984 0 00.205-.31c.046-.118.072-.248.072-.384v-2.705c0-.135-.026-.265-.072-.384zm-.185 3.09c0 .098-.014.19-.05.276a.76.76 0 01-.149.228.676.676 0 01-.215.152.611.611 0 01-.261.054h-.987v-4.13h.987a.689.689 0 01.476.211.765.765 0 01.149.228c.036.087.05.179.05.276v2.705zm.185-3.09a1.135 1.135 0 00-.2-.308.881.881 0 00-.296-.212.836.836 0 00-.364-.081h-1.243v4.672h1.243a.868.868 0 00.655-.287.984.984 0 00.205-.31c.046-.118.072-.248.072-.384v-2.705c0-.135-.026-.265-.072-.384zm-.185 3.09c0 .098-.014.19-.05.276a.76.76 0 01-.149.228.676.676 0 01-.215.152.611.611 0 01-.261.054h-.987v-4.13h.987a.689.689 0 01.476.211.765.765 0 01.149.228c.036.087.05.179.05.276v2.705zm.185-3.09a1.135 1.135 0 00-.2-.308.881.881 0 00-.296-.212.836.836 0 00-.364-.081h-1.243v4.672h1.243a.868.868 0 00.655-.287.984.984 0 00.205-.31c.046-.118.072-.248.072-.384v-2.705c0-.135-.026-.265-.072-.384zm-.185 3.09c0 .098-.014.19-.05.276a.76.76 0 01-.149.228.676.676 0 01-.215.152.611.611 0 01-.261.054h-.987v-4.13h.987a.689.689 0 01.476.211.765.765 0 01.149.228c.036.087.05.179.05.276v2.705zm.185-3.09a1.135 1.135 0 00-.2-.308.881.881 0 00-.296-.212.836.836 0 00-.364-.081h-1.243v4.672h1.243a.868.868 0 00.655-.287.984.984 0 00.205-.31c.046-.118.072-.248.072-.384v-2.705c0-.135-.026-.265-.072-.384zm-.185 3.09c0 .098-.014.19-.05.276a.76.76 0 01-.149.228.676.676 0 01-.215.152.611.611 0 01-.261.054h-.987v-4.13h.987a.689.689 0 01.476.211.765.765 0 01.149.228c.036.087.05.179.05.276v2.705zM145 82.09a.881.881 0 00-.296-.212.836.836 0 00-.364-.081h-1.243v4.672h1.243a.868.868 0 00.655-.287.984.984 0 00.205-.31c.046-.118.072-.248.072-.384v-2.705c0-.135-.026-.265-.072-.384a1.135 1.135 0 00-.2-.31zm.466 3.398c0 .162-.026.309-.087.455a1.076 1.076 0 01-.236.369 1.035 1.035 0 01-.783.341h-1.458v-5.04h1.458c.154 0 .297.032.43.091a1.116 1.116 0 01.589.624c.061.147.087.293.087.455v2.705zm.148-3.263a1.365 1.365 0 00-.291-.46 1.386 1.386 0 00-.43-.31 1.291 1.291 0 00-.533-.113h-1.714v5.582h1.714c.185 0 .364-.038.533-.108a1.395 1.395 0 00.721-.77c.072-.173.107-.363.107-.558v-2.705c0-.195-.035-.384-.107-.558zm-.599 3.263c0 .098-.014.19-.05.276a.76.76 0 01-.149.228.676.676 0 01-.215.152.611.611 0 01-.261.054h-.987v-4.13h.987a.689.689 0 01.476.211.765.765 0 01.149.228c.036.087.05.179.05.276v2.705zm.185-3.09a1.135 1.135 0 00-.2-.308.881.881 0 00-.296-.212.836.836 0 00-.364-.081h-1.243v4.672h1.243a.868.868 0 00.655-.287.984.984 0 00.205-.31c.046-.118.072-.248.072-.384v-2.705c0-.135-.026-.265-.072-.384zm-.185 3.09c0 .098-.014.19-.05.276a.76.76 0 01-.149.228.676.676 0 01-.215.152.611.611 0 01-.261.054h-.987v-4.13h.987a.689.689 0 01.476.211.765.765 0 01.149.228c.036.087.05.179.05.276v2.705zm.185-3.09a1.135 1.135 0 00-.2-.308.881.881 0 00-.296-.212.836.836 0 00-.364-.081h-1.243v4.672h1.243a.868.868 0 00.655-.287.984.984 0 00.205-.31c.046-.118.072-.248.072-.384v-2.705c0-.135-.026-.265-.072-.384zm-.185 3.09c0 .098-.014.19-.05.276a.76.76 0 01-.149.228.676.676 0 01-.215.152.611.611 0 01-.261.054h-.987v-4.13h.987a.689.689 0 01.476.211.765.765 0 01.149.228c.036.087.05.179.05.276v2.705zm.185-3.09a1.135 1.135 0 00-.2-.308.881.881 0 00-.296-.212.836.836 0 00-.364-.081h-1.243v4.672h1.243a.868.868 0 00.655-.287.984.984 0 00.205-.31c.046-.118.072-.248.072-.384v-2.705c0-.135-.026-.265-.072-.384zm-.185 3.09c0 .098-.014.19-.05.276a.76.76 0 01-.149.228.676.676 0 01-.215.152.611.611 0 01-.261.054h-.987v-4.13h.987a.689.689 0 01.476.211.765.765 0 01.149.228c.036.087.05.179.05.276v2.705zm.185-3.09a1.135 1.135 0 00-.2-.308.881.881 0 00-.296-.212.836.836 0 00-.364-.081h-1.243v4.672h1.243a.868.868 0 00.655-.287.984.984 0 00.205-.31c.046-.118.072-.248.072-.384v-2.705c0-.135-.026-.265-.072-.384zM61.324 19.227l-2.057-4.547 2.313-1.176.076.168-2.138 1.083.916 2.022 1.73-.878.076.168-1.73.878.988 2.19-.174.092zm1.259-3.03l-.297-.655-1.735.878-.69-1.54 2.133-1.084-.291-.656-2.779 1.41 2.277 5.035.64-.32-.992-2.19 1.734-.877zm2.543-1.837l-.691-1.712.91-.412a.54.54 0 01.256-.06c.092.011.174.016.256.054a.653.653 0 01.22.147c.067.065.113.14.154.233l.158.395a.76.76 0 01.057.277.79.79 0 01-.19.504.686.686 0 01-.22.163l-.91.411zm1.498-1.463l-.158-.39a.893.893 0 00-.215-.326.967.967 0 00-.297-.205.833.833 0 00-.347-.071H65.6a.857.857 0 00-.358.081l-1.146.52.896 2.212 1.146-.526a.84.84 0 00.307-.222.954.954 0 00.19-.32c.04-.114.066-.238.066-.368 0-.125-.026-.255-.078-.385zm-1.498 1.463l-.691-1.712.91-.412a.54.54 0 01.256-.06c.092.011.174.016.256.054a.653.653 0 01.22.147c.067.065.113.14.154.233l.158.395a.76.76 0 01.057.277.79.79 0 01-.19.504.686.686 0 01-.22.163l-.91.411zm1.498-1.463l-.158-.39a.893.893 0 00-.215-.326.967.967 0 00-.297-.205.833.833 0 00-.347-.071H65.6a.857.857 0 00-.358.081l-1.146.52.896 2.212 1.146-.526a.84.84 0 00.307-.222.954.954 0 00.19-.32c.04-.114.066-.238.066-.368 0-.125-.026-.255-.078-.385zm-1.498 1.463l-.691-1.712.91-.412a.54.54 0 01.256-.06c.092.011.174.016.256.054a.653.653 0 01.22.147c.067.065.113.14.154.233l.158.395a.76.76 0 01.057.277.79.79 0 01-.19.504.686.686 0 01-.22.163l-.91.411zm1.498-1.463l-.158-.39a.893.893 0 00-.215-.326.967.967 0 00-.297-.205.833.833 0 00-.347-.071H65.6a.857.857 0 00-.358.081l-1.146.52.896 2.212 1.146-.526a.84.84 0 00.307-.222.954.954 0 00.19-.32c.04-.114.066-.238.066-.368 0-.125-.026-.255-.078-.385zm-1.498 1.463l-.691-1.712.91-.412a.54.54 0 01.256-.06c.092.011.174.016.256.054a.653.653 0 01.22.147c.067.065.113.14.154.233l.158.395a.76.76 0 01.057.277.79.79 0 01-.19.504.686.686 0 01-.22.163l-.91.411zm1.498-1.463l-.158-.39a.893.893 0 00-.215-.326.967.967 0 00-.297-.205.833.833 0 00-.347-.071H65.6a.857.857 0 00-.358.081l-1.146.52.896 2.212 1.146-.526a.84.84 0 00.307-.222.954.954 0 00.19-.32c.04-.114.066-.238.066-.368 0-.125-.026-.255-.078-.385zm-1.498 1.463l-.691-1.712.91-.412a.54.54 0 01.256-.06c.092.011.174.016.256.054a.653.653 0 01.22.147c.067.065.113.14.154.233l.158.395a.76.76 0 01.057.277.79.79 0 01-.19.504.686.686 0 01-.22.163l-.91.411zm1.32-.39a.954.954 0 00.19-.32c.04-.114.066-.238.066-.368 0-.125-.026-.255-.078-.385l-.158-.39a.893.893 0 00-.215-.326.967.967 0 00-.297-.205.833.833 0 00-.347-.071H65.6a.857.857 0 00-.358.081l-1.146.52.896 2.212 1.146-.526a.84.84 0 00.307-.222zm-.722 3.079l-1.878-4.63 1.346-.612a1.02 1.02 0 01.844-.01c.133.054.25.135.358.243.102.104.19.234.251.38l.159.396a1.19 1.19 0 01.01.899 1.21 1.21 0 01-.225.38 1.14 1.14 0 01-.363.26l-.21.097 2.093 1.518-.2.087-2.098-1.512-.747.341.844 2.081-.184.082zm2.154-.683l.758-.342-2.114-1.528a1.43 1.43 0 00.251-.217c.123-.135.215-.293.282-.466a1.505 1.505 0 00-.016-1.1l-.158-.396a1.422 1.422 0 00-.747-.775 1.298 1.298 0 00-1.044.016l-1.576.721 2.077 5.128.65-.293-.844-2.087.389-.173 2.092 1.512zm-2.752-2.006l-.691-1.712.91-.412a.54.54 0 01.256-.06c.092.011.174.016.256.054a.653.653 0 01.22.147c.067.065.113.14.154.233l.158.395a.76.76 0 01.057.277.79.79 0 01-.19.504.686.686 0 01-.22.163l-.91.411zm1.498-1.463l-.158-.39a.893.893 0 00-.215-.326.967.967 0 00-.297-.205.833.833 0 00-.347-.071H65.6a.857.857 0 00-.358.081l-1.146.52.896 2.212 1.146-.526a.84.84 0 00.307-.222.954.954 0 00.19-.32c.04-.114.066-.238.066-.368 0-.125-.026-.255-.078-.385zm-1.498 1.463l-.691-1.712.91-.412a.54.54 0 01.256-.06c.092.011.174.016.256.054a.653.653 0 01.22.147c.067.065.113.14.154.233l.158.395a.76.76 0 01.057.277.79.79 0 01-.19.504.686.686 0 01-.22.163l-.91.411zm1.498-1.463l-.158-.39a.893.893 0 00-.215-.326.967.967 0 00-.297-.205.833.833 0 00-.347-.071H65.6a.857.857 0 00-.358.081l-1.146.52.896 2.212 1.146-.526a.84.84 0 00.307-.222.954.954 0 00.19-.32c.04-.114.066-.238.066-.368 0-.125-.026-.255-.078-.385zm-1.498 1.463l-.691-1.712.91-.412a.54.54 0 01.256-.06c.092.011.174.016.256.054a.653.653 0 01.22.147c.067.065.113.14.154.233l.158.395a.76.76 0 01.057.277.79.79 0 01-.19.504.686.686 0 01-.22.163l-.91.411zm1.498-1.463l-.158-.39a.893.893 0 00-.215-.326.967.967 0 00-.297-.205.833.833 0 00-.347-.071H65.6a.857.857 0 00-.358.081l-1.146.52.896 2.212 1.146-.526a.84.84 0 00.307-.222.954.954 0 00.19-.32c.04-.114.066-.238.066-.368 0-.125-.026-.255-.078-.385zm-1.498 1.463l-.691-1.712.91-.412a.54.54 0 01.256-.06c.092.011.174.016.256.054a.653.653 0 01.22.147c.067.065.113.14.154.233l.158.395a.76.76 0 01.057.277.79.79 0 01-.19.504.686.686 0 01-.22.163l-.91.411zm1.498-1.463l-.158-.39a.893.893 0 00-.215-.326.967.967 0 00-.297-.205.833.833 0 00-.347-.071H65.6a.857.857 0 00-.358.081l-1.146.52.896 2.212 1.146-.526a.84.84 0 00.307-.222.954.954 0 00.19-.32c.04-.114.066-.238.066-.368 0-.125-.026-.255-.078-.385zm5.414.803a.685.685 0 01-.373.373l-.292.12a.582.582 0 01-.266.042.635.635 0 01-.466-.222.722.722 0 01-.143-.238l-.957-2.667a.654.654 0 01-.046-.276.719.719 0 01.44-.645l.291-.12a.633.633 0 01.241-.048c.006 0 .015 0 .026.005.087 0 .174.022.25.06a.734.734 0 01.21.157.78.78 0 01.144.239l.957 2.672a.66.66 0 01.046.276.823.823 0 01-.062.271zm.256-.646l-.957-2.667a.94.94 0 00-.491-.547.815.815 0 00-.343-.087.886.886 0 00-.368.065l-.292.114a.864.864 0 00-.312.211.996.996 0 00-.205.31.964.964 0 00-.087.363c-.005.13.015.26.062.39l.956 2.666a.92.92 0 00.2.331.895.895 0 00.292.217.86.86 0 00.348.086h.04a.865.865 0 00.323-.064l.297-.114a.896.896 0 00.312-.212.993.993 0 00.204-.309c.046-.119.077-.238.082-.368a.996.996 0 00-.061-.385zm-.256.645a.685.685 0 01-.373.374l-.292.12a.582.582 0 01-.266.042.635.635 0 01-.466-.222.722.722 0 01-.143-.238l-.957-2.667a.654.654 0 01-.046-.276.719.719 0 01.44-.645l.291-.12a.633.633 0 01.241-.048c.006 0 .015 0 .026.005.087 0 .174.022.25.06a.734.734 0 01.21.157.78.78 0 01.144.239l.957 2.672a.66.66 0 01.046.276.823.823 0 01-.062.271zm.256-.645l-.957-2.667a.94.94 0 00-.491-.547.815.815 0 00-.343-.087.886.886 0 00-.368.065l-.292.114a.864.864 0 00-.312.211.996.996 0 00-.205.31.964.964 0 00-.087.363c-.005.13.015.26.062.39l.956 2.666a.92.92 0 00.2.331.895.895 0 00.292.217.86.86 0 00.348.086h.04a.865.865 0 00.323-.064l.297-.114a.896.896 0 00.312-.212.993.993 0 00.204-.309c.046-.119.077-.238.082-.368a.996.996 0 00-.061-.385zm-.256.645a.685.685 0 01-.373.374l-.292.12a.582.582 0 01-.266.042.635.635 0 01-.466-.222.722.722 0 01-.143-.238l-.957-2.667a.654.654 0 01-.046-.276.719.719 0 01.44-.645l.291-.12a.633.633 0 01.241-.048c.006 0 .015 0 .026.005.087 0 .174.022.25.06a.734.734 0 01.21.157.78.78 0 01.144.239l.957 2.672a.66.66 0 01.046.276.823.823 0 01-.062.271zm.256-.645l-.957-2.667a.94.94 0 00-.491-.547.815.815 0 00-.343-.087.886.886 0 00-.368.065l-.292.114a.864.864 0 00-.312.211.996.996 0 00-.205.31.964.964 0 00-.087.363c-.005.13.015.26.062.39l.956 2.666a.92.92 0 00.2.331.895.895 0 00.292.217.86.86 0 00.348.086h.04a.865.865 0 00.323-.064l.297-.114a.896.896 0 00.312-.212.993.993 0 00.204-.309c.046-.119.077-.238.082-.368a.996.996 0 00-.061-.385zm-.256.645a.685.685 0 01-.373.374l-.292.12a.582.582 0 01-.266.042.635.635 0 01-.466-.222.722.722 0 01-.143-.238l-.957-2.667a.654.654 0 01-.046-.276.719.719 0 01.44-.645l.291-.12a.633.633 0 01.241-.048c.006 0 .015 0 .026.005.087 0 .174.022.25.06a.734.734 0 01.21.157.78.78 0 01.144.239l.957 2.672a.66.66 0 01.046.276.823.823 0 01-.062.271zm.256-.645l-.957-2.667a.94.94 0 00-.491-.547.815.815 0 00-.343-.087.886.886 0 00-.368.065l-.292.114a.864.864 0 00-.312.211.996.996 0 00-.205.31.964.964 0 00-.087.363c-.005.13.015.26.062.39l.956 2.666a.92.92 0 00.2.331.895.895 0 00.292.217.86.86 0 00.348.086h.04a.865.865 0 00.323-.064l.297-.114a.896.896 0 00.312-.212.993.993 0 00.204-.309c.046-.119.077-.238.082-.368a.996.996 0 00-.061-.385zm-.256.645a.685.685 0 01-.373.374l-.292.12a.582.582 0 01-.266.042.635.635 0 01-.466-.222.722.722 0 01-.143-.238l-.957-2.667a.654.654 0 01-.046-.276.719.719 0 01.44-.645l.291-.12a.633.633 0 01.241-.048c.006 0 .015 0 .026.005.087 0 .174.022.25.06a.734.734 0 01.21.157.78.78 0 01.144.239l.957 2.672a.66.66 0 01.046.276.823.823 0 01-.062.271zm-.7-3.312a.94.94 0 00-.492-.547.815.815 0 00-.343-.087.886.886 0 00-.368.065l-.292.114a.864.864 0 00-.312.211.996.996 0 00-.205.31.964.964 0 00-.087.363c-.005.13.015.26.062.39l.956 2.666a.92.92 0 00.2.331.895.895 0 00.292.217.86.86 0 00.348.086h.04a.865.865 0 00.323-.064l.297-.114a.896.896 0 00.312-.212.993.993 0 00.204-.309c.046-.119.077-.238.082-.368a.996.996 0 00-.061-.385l-.957-2.667zm1.212 3.046a1.36 1.36 0 01-.098.44c-.06.135-.143.26-.245.368-.102.103-.225.19-.368.244l-.338.135a.98.98 0 01-.43.076 1.054 1.054 0 01-.414-.097 1.273 1.273 0 01-.348-.26 1.115 1.115 0 01-.23-.396l-.963-2.667a1.264 1.264 0 01-.071-.455c.01-.152.04-.303.097-.439.056-.135.143-.255.246-.363.107-.109.23-.19.373-.25l.333-.135c.128-.049.26-.076.388-.076h.041c.149.005.287.044.415.103.133.06.245.147.348.26.102.109.179.239.23.39l.962 2.667c.046.14.072.276.072.418v.037zm.163-.552l-.956-2.667a1.437 1.437 0 00-.287-.482 1.37 1.37 0 00-.425-.32 1.485 1.485 0 00-.506-.125 1.155 1.155 0 00-.538.098l-.332.13c-.174.07-.327.173-.455.309-.133.13-.23.282-.302.45a1.567 1.567 0 00-.123.536c-.005.19.026.38.092.564l.957 2.666c.066.185.163.347.286.489.123.135.267.238.425.314.164.075.333.119.512.124h.051c.164 0 .327-.027.48-.092l.333-.135c.18-.07.333-.174.461-.304s.225-.282.297-.45a1.6 1.6 0 00.123-.542 1.572 1.572 0 00-.093-.563zm-.675.818a.685.685 0 01-.373.374l-.292.12a.582.582 0 01-.266.042.635.635 0 01-.466-.222.722.722 0 01-.143-.238l-.957-2.667a.654.654 0 01-.046-.276.719.719 0 01.44-.645l.291-.12a.633.633 0 01.241-.048c.006 0 .015 0 .026.005.087 0 .174.022.25.06a.734.734 0 01.21.157.78.78 0 01.144.239l.957 2.672a.66.66 0 01.046.276.823.823 0 01-.062.271zm.256-.645l-.957-2.667a.94.94 0 00-.491-.547.815.815 0 00-.343-.087.886.886 0 00-.368.065l-.292.114a.864.864 0 00-.312.211.996.996 0 00-.205.31.964.964 0 00-.087.363c-.005.13.015.26.062.39l.956 2.666a.92.92 0 00.2.331.895.895 0 00.292.217.86.86 0 00.348.086h.04a.865.865 0 00.323-.064l.297-.114a.896.896 0 00.312-.212.993.993 0 00.204-.309c.046-.119.077-.238.082-.368a.996.996 0 00-.061-.385zm-.256.645a.685.685 0 01-.373.374l-.292.12a.582.582 0 01-.266.042.635.635 0 01-.466-.222.722.722 0 01-.143-.238l-.957-2.667a.654.654 0 01-.046-.276.719.719 0 01.44-.645l.291-.12a.633.633 0 01.241-.048c.006 0 .015 0 .026.005.087 0 .174.022.25.06a.734.734 0 01.21.157.78.78 0 01.144.239l.957 2.672a.66.66 0 01.046.276.823.823 0 01-.062.271zm.256-.645l-.957-2.667a.94.94 0 00-.491-.547.815.815 0 00-.343-.087.886.886 0 00-.368.065l-.292.114a.864.864 0 00-.312.211.996.996 0 00-.205.31.964.964 0 00-.087.363c-.005.13.015.26.062.39l.956 2.666a.92.92 0 00.2.331.895.895 0 00.292.217.86.86 0 00.348.086h.04a.865.865 0 00.323-.064l.297-.114a.896.896 0 00.312-.212.993.993 0 00.204-.309c.046-.119.077-.238.082-.368a.996.996 0 00-.061-.385zm-.256.645a.685.685 0 01-.373.374l-.292.12a.582.582 0 01-.266.042.635.635 0 01-.466-.222.722.722 0 01-.143-.238l-.957-2.667a.654.654 0 01-.046-.276.719.719 0 01.44-.645l.291-.12a.633.633 0 01.241-.048c.006 0 .015 0 .026.005.087 0 .174.022.25.06a.734.734 0 01.21.157.78.78 0 01.144.239l.957 2.672a.66.66 0 01.046.276.823.823 0 01-.062.271zm.256-.645l-.957-2.667a.94.94 0 00-.491-.547.815.815 0 00-.343-.087.886.886 0 00-.368.065l-.292.114a.864.864 0 00-.312.211.996.996 0 00-.205.31.964.964 0 00-.087.363c-.005.13.015.26.062.39l.956 2.666a.92.92 0 00.2.331.895.895 0 00.292.217.86.86 0 00.348.086h.04a.865.865 0 00.323-.064l.297-.114a.896.896 0 00.312-.212.993.993 0 00.204-.309c.046-.119.077-.238.082-.368a.996.996 0 00-.061-.385zm-.256.645a.685.685 0 01-.373.374l-.292.12a.582.582 0 01-.266.042.635.635 0 01-.466-.222.722.722 0 01-.143-.238l-.957-2.667a.654.654 0 01-.046-.276.719.719 0 01.44-.645l.291-.12a.633.633 0 01.241-.048c.006 0 .015 0 .026.005.087 0 .174.022.25.06a.734.734 0 01.21.157.78.78 0 01.144.239l.957 2.672a.66.66 0 01.046.276.823.823 0 01-.062.271zm.256-.645l-.957-2.667a.94.94 0 00-.491-.547.815.815 0 00-.343-.087.886.886 0 00-.368.065l-.292.114a.864.864 0 00-.312.211.996.996 0 00-.205.31.964.964 0 00-.087.363c-.005.13.015.26.062.39l.956 2.666a.92.92 0 00.2.331.895.895 0 00.292.217.86.86 0 00.348.086h.04a.865.865 0 00.323-.064l.297-.114a.896.896 0 00.312-.212.993.993 0 00.204-.309c.046-.119.077-.238.082-.368a.996.996 0 00-.061-.385zm4.769-4.314l.036.2-.097 3.534-.056.022-2.053-2.76-.092-.205-.24.103 1.033 3.328-.184.065-1.484-4.791.016-.006 2.66 3.55.067.163.24-.081-.04-.174.158-4.526.016-.01 1.488 4.79-.189.066-1.028-3.333-.251.065zm.143-1.93l-.43.152-.153 4.412-2.595-3.458-.424.151 1.643 5.301.67-.233-.845-2.72 1.781 2.395.4-.136.081-3.056.844 2.731.676-.233-1.648-5.306zm7.67 3.236l-1.13-4.705-1.162.31-.041-.18L85.05 4.8l.046.18-1.161.308 1.13 4.71-.189.049zm.527-4.872l-.168-.705-3.004.807.169.705 1.161-.314 1.131 4.71.686-.185-1.13-4.71 1.155-.308zm3.321 3.896l-.19.044-.987-4.933.194-.043.471 2.38 2.128-.477-.47-2.38.19-.044.981 4.938-.189.044-.475-2.38-2.13.477.477 2.374zm1.53-5.772l-.691.157.476 2.374-1.627.369-.476-2.38-.69.157 1.064 5.328.025.13.69-.152-.47-2.373 1.627-.364.47 2.374.697-.157-1.095-5.463zm5.285-.716l.026.185-2.338.412.347 2.217 1.899-.336.025.184-1.893.33.348 2.212 2.343-.412.026.184-2.533.445-.782-4.97 2.532-.45zm.967 4.478l-2.343.417-.26-1.68 1.892-.33-.113-.721-1.898.335-.26-1.68 2.338-.411-.113-.716-3.039.536.87 5.507 3.039-.536-.113-.721zm5.506-.293l-.194.022-.466-5.02.195-.022.224 2.424 2.165-.228-.225-2.423.195-.016.47 5.013-.194.022-.225-2.412-2.17.223.225 2.417zm2.123-5.562l-.706.076.231 2.418-1.658.173-.226-2.417-.706.07.523 5.561.701-.075-.226-2.418 1.658-.173.225 2.417.701-.076-.517-5.556zm5.312-.097l.009.184-2.368.142.123 2.243 1.913-.12.01.185-1.918.12.122 2.238 2.369-.146.006.184-2.558.157-.272-5.036 2.564-.151zm.501 4.563l-2.369.141-.092-1.696 1.918-.119-.04-.72-1.914.113-.092-1.702 2.369-.14-.041-.727-3.075.184.302 5.577 3.07-.184-.036-.727zm2.717-1.321l.471-1.887.537 1.87-1.008.017zm.604-2.336l-.015-.195-.256.005-.006.168-.66 2.634 1.684-.027-.747-2.585zm-.604 2.336l.471-1.887.537 1.87-1.008.017zm.604-2.336l-.015-.195-.256.005-.006.168-.66 2.634 1.684-.027-.747-2.585zm-.604 2.336l.471-1.887.537 1.87-1.008.017zm.604-2.336l-.015-.195-.256.005-.006.168-.66 2.634 1.684-.027-.747-2.585zm-.604 2.336l.471-1.887.537 1.87-1.008.017zm.604-2.336l-.015-.195-.256.005-.006.168-.66 2.634 1.684-.027-.747-2.585zm-.604 2.336l.471-1.887.537 1.87-1.008.017zm.604-2.336l-.015-.195-.256.005-.006.168-.66 2.634 1.684-.027-.747-2.585zm-1.494 4.048l1.31-5.068h.045l1.484 5.014-.194.005-.353-1.23-1.781.027-.312 1.247-.199.005zM113.32.718l-.429.006-1.454 5.615.737-.017.307-1.241 1.397-.027.353 1.23.732-.01L113.32.718zm-.655 3.632l.471-1.887.537 1.87-1.008.017zm.604-2.336l-.015-.195-.256.005-.006.168-.66 2.634 1.684-.027-.747-2.585zm-.604 2.336l.471-1.887.537 1.87-1.008.017zm.604-2.336l-.015-.195-.256.005-.006.168-.66 2.634 1.684-.027-.747-2.585zm-.604 2.336l.471-1.887.537 1.87-1.008.017zm.604-2.336l-.015-.195-.256.005-.006.168-.66 2.634 1.684-.027-.747-2.585zm-.604 2.336l.471-1.887.537 1.87-1.008.017zm.604-2.336l-.015-.195-.256.005-.006.168-.66 2.634 1.684-.027-.747-2.585zm5.787.612a.765.765 0 01-.21.504.682.682 0 01-.215.152.711.711 0 01-.266.05l-.987-.029.035-1.858.993.02a.622.622 0 01.471.223.753.753 0 01.138.233.616.616 0 01.046.277l-.005.428zm.199-.807a.964.964 0 00-.194-.315.878.878 0 00-.65-.309l-1.248-.027-.052 2.401 1.249.033h.021c.122 0 .24-.027.342-.071a.992.992 0 00.303-.206 1.044 1.044 0 00.286-.688l.004-.434a.948.948 0 00-.061-.384zm-.199.807a.765.765 0 01-.21.504.682.682 0 01-.215.152.711.711 0 01-.266.05l-.987-.029.035-1.858.993.02a.622.622 0 01.471.223.753.753 0 01.138.233.616.616 0 01.046.277l-.005.428zm.199-.807a.964.964 0 00-.194-.315.878.878 0 00-.65-.309l-1.248-.027-.052 2.401 1.249.033h.021c.122 0 .24-.027.342-.071a.992.992 0 00.303-.206 1.044 1.044 0 00.286-.688l.004-.434a.948.948 0 00-.061-.384zm-.199.807a.765.765 0 01-.21.504.682.682 0 01-.215.152.711.711 0 01-.266.05l-.987-.029.035-1.858.993.02a.622.622 0 01.471.223.753.753 0 01.138.233.616.616 0 01.046.277l-.005.428zm.199-.807a.964.964 0 00-.194-.315.878.878 0 00-.65-.309l-1.248-.027-.052 2.401 1.249.033h.021c.122 0 .24-.027.342-.071a.992.992 0 00.303-.206 1.044 1.044 0 00.286-.688l.004-.434a.948.948 0 00-.061-.384zm-.199.807a.765.765 0 01-.21.504.682.682 0 01-.215.152.711.711 0 01-.266.05l-.987-.029.035-1.858.993.02a.622.622 0 01.471.223.753.753 0 01.138.233.616.616 0 01.046.277l-.005.428zm.199-.807a.964.964 0 00-.194-.315.878.878 0 00-.65-.309l-1.248-.027-.052 2.401 1.249.033h.021c.122 0 .24-.027.342-.071a.992.992 0 00.303-.206 1.044 1.044 0 00.286-.688l.004-.434a.948.948 0 00-.061-.384zm-1.842-.374l.993.02a.622.622 0 01.471.223.753.753 0 01.138.233.616.616 0 01.046.277l-.005.428a.765.765 0 01-.21.504.682.682 0 01-.215.152.711.711 0 01-.266.05l-.987-.029.035-1.858zm.968 2.157c.122 0 .24-.027.342-.071a.992.992 0 00.303-.206 1.044 1.044 0 00.286-.688l.004-.434a.964.964 0 00-.255-.699.878.878 0 00-.65-.309l-1.248-.027-.052 2.401 1.249.033h.021zm-1.321 2.422l-.194-.005.107-5.04 1.464.032c.148.005.292.038.425.103.132.06.25.146.347.254.098.11.175.24.226.38.056.146.082.298.077.46l-.006.429a1.229 1.229 0 01-.342.824 1.175 1.175 0 01-.353.243 1.07 1.07 0 01-.435.082l-.231-.005 1.315 2.298-.22-.006-1.315-2.298-.814-.022-.051 2.271zm1.536-1.983c.107-.016.21-.043.306-.087a1.3 1.3 0 00.44-.298 1.5 1.5 0 00.302-.45 1.57 1.57 0 00.118-.564l.005-.427a1.455 1.455 0 00-.093-.565 1.463 1.463 0 00-.281-.465 1.355 1.355 0 00-.424-.32 1.336 1.336 0 00-.527-.125l-1.719-.038-.119 5.583.708.016.045-2.266.425.006 1.31 2.298.823.021-1.319-2.32zm.46-1.415a.765.765 0 01-.21.504.682.682 0 01-.215.152.711.711 0 01-.266.05l-.987-.029.035-1.858.993.02a.622.622 0 01.471.223.753.753 0 01.138.233.616.616 0 01.046.277l-.005.428zm.199-.807a.964.964 0 00-.194-.315.878.878 0 00-.65-.309l-1.248-.027-.052 2.401 1.249.033h.021c.122 0 .24-.027.342-.071a.992.992 0 00.303-.206 1.044 1.044 0 00.286-.688l.004-.434a.948.948 0 00-.061-.384zm-.199.807a.765.765 0 01-.21.504.682.682 0 01-.215.152.711.711 0 01-.266.05l-.987-.029.035-1.858.993.02a.622.622 0 01.471.223.753.753 0 01.138.233.616.616 0 01.046.277l-.005.428zm.199-.807a.964.964 0 00-.194-.315.878.878 0 00-.65-.309l-1.248-.027-.052 2.401 1.249.033h.021c.122 0 .24-.027.342-.071a.992.992 0 00.303-.206 1.044 1.044 0 00.286-.688l.004-.434a.948.948 0 00-.061-.384zm-.199.807a.765.765 0 01-.21.504.682.682 0 01-.215.152.711.711 0 01-.266.05l-.987-.029.035-1.858.993.02a.622.622 0 01.471.223.753.753 0 01.138.233.616.616 0 01.046.277l-.005.428zm.199-.807a.964.964 0 00-.194-.315.878.878 0 00-.65-.309l-1.248-.027-.052 2.401 1.249.033h.021c.122 0 .24-.027.342-.071a.992.992 0 00.303-.206 1.044 1.044 0 00.286-.688l.004-.434a.948.948 0 00-.061-.384zm-.199.807a.765.765 0 01-.21.504.682.682 0 01-.215.152.711.711 0 01-.266.05l-.987-.029.035-1.858.993.02a.622.622 0 01.471.223.753.753 0 01.138.233.616.616 0 01.046.277l-.005.428zm.199-.807a.964.964 0 00-.194-.315.878.878 0 00-.65-.309l-1.248-.027-.052 2.401 1.249.033h.021c.122 0 .24-.027.342-.071a.992.992 0 00.303-.206 1.044 1.044 0 00.286-.688l.004-.434a.948.948 0 00-.061-.384zm5.25-.326l-1.197-.076-.276 4.846-.195-.012.276-4.845-1.192-.08.011-.185 2.584.168-.011.184zm-2.814-.64l-.041.726 1.192.076-.276 4.852.706.043.276-4.846 1.193.076.046-.726-3.096-.2zm9.987 5.469a.715.715 0 01-.168.211.635.635 0 01-.496.147l-.312-.044a.654.654 0 01-.256-.086.736.736 0 01-.195-.185.73.73 0 01-.123-.243.76.76 0 01-.015-.282l.333-2.835a.732.732 0 01.256-.471.662.662 0 01.501-.147l.313.043a.64.64 0 01.444.272c.057.07.092.152.118.243.025.087.03.184.021.283l-.333 2.828a.725.725 0 01-.088.266zm.645-3.453a.983.983 0 00-.424-.585.892.892 0 00-.353-.124l-.312-.039a.765.765 0 00-.368.027.952.952 0 00-.553.45 1.025 1.025 0 00-.118.375l-.338 2.829a1 1 0 00.032.396c.03.119.086.233.157.335.072.098.165.18.272.25a.835.835 0 00.348.125l.312.038a.772.772 0 00.373-.027.967.967 0 00.318-.174 1.019 1.019 0 00.348-.656l.338-2.83a.982.982 0 00-.032-.39zm-.645 3.453a.715.715 0 01-.168.211.635.635 0 01-.496.147l-.312-.044a.654.654 0 01-.256-.086.736.736 0 01-.195-.185.73.73 0 01-.123-.243.76.76 0 01-.015-.282l.333-2.835a.732.732 0 01.256-.471.662.662 0 01.501-.147l.313.043a.64.64 0 01.444.272c.057.07.092.152.118.243.025.087.03.184.021.283l-.333 2.828a.725.725 0 01-.088.266zm.645-3.453a.983.983 0 00-.424-.585.892.892 0 00-.353-.124l-.312-.039a.765.765 0 00-.368.027.952.952 0 00-.553.45 1.025 1.025 0 00-.118.375l-.338 2.829a1 1 0 00.032.396c.03.119.086.233.157.335.072.098.165.18.272.25a.835.835 0 00.348.125l.312.038a.772.772 0 00.373-.027.967.967 0 00.318-.174 1.019 1.019 0 00.348-.656l.338-2.83a.982.982 0 00-.032-.39zm-.645 3.453a.715.715 0 01-.168.211.635.635 0 01-.496.147l-.312-.044a.654.654 0 01-.256-.086.736.736 0 01-.195-.185.73.73 0 01-.123-.243.76.76 0 01-.015-.282l.333-2.835a.732.732 0 01.256-.471.662.662 0 01.501-.147l.313.043a.64.64 0 01.444.272c.057.07.092.152.118.243.025.087.03.184.021.283l-.333 2.828a.725.725 0 01-.088.266zm.645-3.453a.983.983 0 00-.424-.585.892.892 0 00-.353-.124l-.312-.039a.765.765 0 00-.368.027.952.952 0 00-.553.45 1.025 1.025 0 00-.118.375l-.338 2.829a1 1 0 00.032.396c.03.119.086.233.157.335.072.098.165.18.272.25a.835.835 0 00.348.125l.312.038a.772.772 0 00.373-.027.967.967 0 00.318-.174 1.019 1.019 0 00.348-.656l.338-2.83a.982.982 0 00-.032-.39zm-.645 3.453a.715.715 0 01-.168.211.635.635 0 01-.496.147l-.312-.044a.654.654 0 01-.256-.086.736.736 0 01-.195-.185.73.73 0 01-.123-.243.76.76 0 01-.015-.282l.333-2.835a.732.732 0 01.256-.471.662.662 0 01.501-.147l.313.043a.64.64 0 01.444.272c.057.07.092.152.118.243.025.087.03.184.021.283l-.333 2.828a.725.725 0 01-.088.266zm.645-3.453a.983.983 0 00-.424-.585.892.892 0 00-.353-.124l-.312-.039a.765.765 0 00-.368.027.952.952 0 00-.553.45 1.025 1.025 0 00-.118.375l-.338 2.829a1 1 0 00.032.396c.03.119.086.233.157.335.072.098.165.18.272.25a.835.835 0 00.348.125l.312.038a.772.772 0 00.373-.027.967.967 0 00.318-.174 1.019 1.019 0 00.348-.656l.338-2.83a.982.982 0 00-.032-.39zm-1.309 3.81l-.312-.043a.654.654 0 01-.256-.086.736.736 0 01-.195-.185.73.73 0 01-.123-.243.76.76 0 01-.015-.282l.333-2.835a.732.732 0 01.256-.471.662.662 0 01.501-.147l.313.043a.64.64 0 01.444.272c.057.07.092.152.118.243.025.087.03.184.021.283l-.333 2.828a.725.725 0 01-.088.266.715.715 0 01-.168.211.635.635 0 01-.496.147zm.885-.216a1.03 1.03 0 00.118-.374l.338-2.83a.982.982 0 00-.032-.39.983.983 0 00-.424-.585.892.892 0 00-.353-.124l-.312-.039a.765.765 0 00-.368.027.952.952 0 00-.553.45 1.025 1.025 0 00-.118.375l-.338 2.829a1 1 0 00.032.396c.03.119.086.233.157.335.072.098.165.18.272.25a.835.835 0 00.348.125l.312.038a.772.772 0 00.373-.027.967.967 0 00.318-.174c.092-.076.168-.174.23-.282zm-.921.667l-.353-.049a.93.93 0 01-.414-.146 1.13 1.13 0 01-.322-.293 1.26 1.26 0 01-.196-.401 1.415 1.415 0 01-.03-.46l.338-2.836c.021-.156.066-.309.138-.438a1.112 1.112 0 01.66-.542 1.02 1.02 0 01.435-.033l.353.048c.154.022.292.071.415.148a1.13 1.13 0 01.511.693c.041.152.051.303.03.466l-.332 2.829a1.157 1.157 0 01-.798.981.976.976 0 01-.435.033zm1.78-4.38a1.365 1.365 0 00-.234-.493 1.335 1.335 0 00-.902-.547l-.358-.043a1.273 1.273 0 00-1.003.287 1.386 1.386 0 00-.342.417 1.462 1.462 0 00-.174.542l-.333 2.83c-.025.2-.01.39.036.574.051.178.128.341.235.487a1.364 1.364 0 00.912.548l.353.049c.056.005.117.01.173.01a1.326 1.326 0 00.83-.304c.138-.113.255-.254.342-.417.093-.162.149-.34.174-.541l.333-2.83c.025-.195.01-.39-.042-.569zm-1.08 3.572a.715.715 0 01-.168.211.635.635 0 01-.496.147l-.312-.044a.654.654 0 01-.256-.086.736.736 0 01-.195-.185.73.73 0 01-.123-.243.76.76 0 01-.015-.282l.333-2.835a.732.732 0 01.256-.471.662.662 0 01.501-.147l.313.043a.64.64 0 01.444.272c.057.07.092.152.118.243.025.087.03.184.021.283l-.333 2.828a.725.725 0 01-.088.266zm.645-3.453a.983.983 0 00-.424-.585.892.892 0 00-.353-.124l-.312-.039a.765.765 0 00-.368.027.952.952 0 00-.553.45 1.025 1.025 0 00-.118.375l-.338 2.829a1 1 0 00.032.396c.03.119.086.233.157.335.072.098.165.18.272.25a.835.835 0 00.348.125l.312.038a.772.772 0 00.373-.027.967.967 0 00.318-.174 1.019 1.019 0 00.348-.656l.338-2.83a.982.982 0 00-.032-.39zm-.645 3.453a.715.715 0 01-.168.211.635.635 0 01-.496.147l-.312-.044a.654.654 0 01-.256-.086.736.736 0 01-.195-.185.73.73 0 01-.123-.243.76.76 0 01-.015-.282l.333-2.835a.732.732 0 01.256-.471.662.662 0 01.501-.147l.313.043a.64.64 0 01.444.272c.057.07.092.152.118.243.025.087.03.184.021.283l-.333 2.828a.725.725 0 01-.088.266zm.645-3.453a.983.983 0 00-.424-.585.892.892 0 00-.353-.124l-.312-.039a.765.765 0 00-.368.027.952.952 0 00-.553.45 1.025 1.025 0 00-.118.375l-.338 2.829a1 1 0 00.032.396c.03.119.086.233.157.335.072.098.165.18.272.25a.835.835 0 00.348.125l.312.038a.772.772 0 00.373-.027.967.967 0 00.318-.174 1.019 1.019 0 00.348-.656l.338-2.83a.982.982 0 00-.032-.39zm-.645 3.453a.715.715 0 01-.168.211.635.635 0 01-.496.147l-.312-.044a.654.654 0 01-.256-.086.736.736 0 01-.195-.185.73.73 0 01-.123-.243.76.76 0 01-.015-.282l.333-2.835a.732.732 0 01.256-.471.662.662 0 01.501-.147l.313.043a.64.64 0 01.444.272c.057.07.092.152.118.243.025.087.03.184.021.283l-.333 2.828a.725.725 0 01-.088.266zm.645-3.453a.983.983 0 00-.424-.585.892.892 0 00-.353-.124l-.312-.039a.765.765 0 00-.368.027.952.952 0 00-.553.45 1.025 1.025 0 00-.118.375l-.338 2.829a1 1 0 00.032.396c.03.119.086.233.157.335.072.098.165.18.272.25a.835.835 0 00.348.125l.312.038a.772.772 0 00.373-.027.967.967 0 00.318-.174 1.019 1.019 0 00.348-.656l.338-2.83a.982.982 0 00-.032-.39zm-.645 3.453a.715.715 0 01-.168.211.635.635 0 01-.496.147l-.312-.044a.654.654 0 01-.256-.086.736.736 0 01-.195-.185.73.73 0 01-.123-.243.76.76 0 01-.015-.282l.333-2.835a.732.732 0 01.256-.471.662.662 0 01.501-.147l.313.043a.64.64 0 01.444.272c.057.07.092.152.118.243.025.087.03.184.021.283l-.333 2.828a.725.725 0 01-.088.266zm.645-3.453a.983.983 0 00-.424-.585.892.892 0 00-.353-.124l-.312-.039a.765.765 0 00-.368.027.952.952 0 00-.553.45 1.025 1.025 0 00-.118.375l-.338 2.829a1 1 0 00.032.396c.03.119.086.233.157.335.072.098.165.18.272.25a.835.835 0 00.348.125l.312.038a.772.772 0 00.373-.027.967.967 0 00.318-.174 1.019 1.019 0 00.348-.656l.338-2.83a.982.982 0 00-.032-.39zm3.05 2.211l1.899.337-.032.185-1.892-.337-.379 2.396-.194-.038.788-4.97 2.532.45-.03.179-2.339-.413-.353 2.212zm2.901-1.484l.112-.715-3.033-.542-.87 5.506.696.125.378-2.39 1.893.336.113-.72-1.893-.337.266-1.68 2.338.417zm5.102 3.133l1.867.466-.04.179-1.868-.466-.486 2.184 2.308.575-.042.178-2.496-.623 1.095-4.905 2.497.623-.042.18-2.307-.575-.486 2.184zm2.983-1.285l.159-.705-2.993-.748-1.213 5.432 2.993.748.158-.705-2.307-.575.369-1.658 1.867.466.158-.705-1.868-.466.369-1.658 2.308.574zm2.491 5.539l-.343-.102a1.075 1.075 0 01-.393-.212 1.193 1.193 0 01-.276-.341 1.292 1.292 0 01-.133-.429 1.263 1.263 0 01.035-.46l1.008-3.8.189.055-1.008 3.799a1.03 1.03 0 00.082.753c.061.109.138.206.23.287.098.082.21.142.333.18l.302.091a.848.848 0 00.368.028.904.904 0 00.338-.12 1.09 1.09 0 00.271-.244c.077-.103.134-.222.169-.352l1.008-3.8.189.055-1.008 3.805a1.13 1.13 0 01-.521.7 1 1 0 01-.405.14.994.994 0 01-.435-.033zm2.006-5.003l-1.08 4.066a.696.696 0 01-.122.249.644.644 0 01-.2.179.537.537 0 01-.241.087.561.561 0 01-.266-.022l-.307-.087a.606.606 0 01-.235-.13.67.67 0 01-.169-.211.81.81 0 01-.082-.26.666.666 0 01.021-.282l1.075-4.066-.681-.2-1.075 4.06c-.051.19-.066.385-.041.574.021.184.077.363.164.52.082.163.2.304.338.424.138.119.302.205.481.26l.342.102a1.241 1.241 0 00.543.044 1.3 1.3 0 00.491-.174 1.41 1.41 0 00.645-.867l1.08-4.06-.681-.206zm3.786 3.952l-.941-.325.548-1.772.941.33a.609.609 0 01.231.14c.071.06.122.131.158.213a.808.808 0 01.071.265c.011.097 0 .19-.03.282l-.128.412a.694.694 0 01-.133.244.704.704 0 01-.205.173.78.78 0 01-.245.076.641.641 0 01-.267-.038zm1.167-1.534a.915.915 0 00-.542-.493l-1.182-.412-.706 2.288 1.182.411a.915.915 0 00.287.05c.03 0 .056 0 .081-.006a.825.825 0 00.343-.103.992.992 0 00.465-.575l.123-.406a1.008 1.008 0 00-.051-.754zm-1.167 1.534l-.941-.325.548-1.772.941.33a.609.609 0 01.231.14c.071.06.122.131.158.213a.808.808 0 01.071.265c.011.097 0 .19-.03.282l-.128.412a.694.694 0 01-.133.244.704.704 0 01-.205.173.78.78 0 01-.245.076.641.641 0 01-.267-.038zm1.167-1.534a.915.915 0 00-.542-.493l-1.182-.412-.706 2.288 1.182.411a.915.915 0 00.287.05c.03 0 .056 0 .081-.006a.825.825 0 00.343-.103.992.992 0 00.465-.575l.123-.406a1.008 1.008 0 00-.051-.754zm-1.167 1.534l-.941-.325.548-1.772.941.33a.609.609 0 01.231.14c.071.06.122.131.158.213a.808.808 0 01.071.265c.011.097 0 .19-.03.282l-.128.412a.694.694 0 01-.133.244.704.704 0 01-.205.173.78.78 0 01-.245.076.641.641 0 01-.267-.038zm1.167-1.534a.915.915 0 00-.542-.493l-1.182-.412-.706 2.288 1.182.411a.915.915 0 00.287.05c.03 0 .056 0 .081-.006a.825.825 0 00.343-.103.992.992 0 00.465-.575l.123-.406a1.008 1.008 0 00-.051-.754zm-1.167 1.534l-.941-.325.548-1.772.941.33a.609.609 0 01.231.14c.071.06.122.131.158.213a.808.808 0 01.071.265c.011.097 0 .19-.03.282l-.128.412a.694.694 0 01-.133.244.704.704 0 01-.205.173.78.78 0 01-.245.076.641.641 0 01-.267-.038zm1.167-1.534a.915.915 0 00-.542-.493l-1.182-.412-.706 2.288 1.182.411a.915.915 0 00.287.05c.03 0 .056 0 .081-.006a.825.825 0 00.343-.103.992.992 0 00.465-.575l.123-.406a1.008 1.008 0 00-.051-.754zm-1.167 1.534l-.941-.325.548-1.772.941.33a.609.609 0 01.231.14c.071.06.122.131.158.213a.808.808 0 01.071.265c.011.097 0 .19-.03.282l-.128.412a.694.694 0 01-.133.244.704.704 0 01-.205.173.78.78 0 01-.245.076.641.641 0 01-.267-.038zm1.095-.374l.123-.406a1.008 1.008 0 00-.051-.754.915.915 0 00-.542-.493l-1.182-.412-.706 2.288 1.182.411a.915.915 0 00.287.05c.03 0 .056 0 .081-.006a.825.825 0 00.343-.103.992.992 0 00.465-.575zm-1.207.819l-.225-.082.629 2.607-.21-.07-.624-2.607-.777-.271-.666 2.157-.184-.065 1.479-4.791 1.392.482c.143.049.271.125.378.228.113.103.2.222.261.358a1.202 1.202 0 01.067.893l-.128.407a1.13 1.13 0 01-.957.808 1.092 1.092 0 01-.435-.054zm1.683-2.18a1.356 1.356 0 00-.322-.433 1.232 1.232 0 00-.466-.282l-1.637-.569-1.638 5.307.671.232.666-2.152.398.136.63 2.602.782.277-.634-2.63c.108.022.215.028.323.017.178-.022.348-.07.501-.152.153-.087.292-.2.409-.341.123-.147.21-.315.266-.5l.128-.411a1.508 1.508 0 00-.077-1.1zm-1.571 1.735l-.941-.325.548-1.772.941.33a.609.609 0 01.231.14c.071.06.122.131.158.213a.808.808 0 01.071.265c.011.097 0 .19-.03.282l-.128.412a.694.694 0 01-.133.244.704.704 0 01-.205.173.78.78 0 01-.245.076.641.641 0 01-.267-.038zm1.167-1.534a.915.915 0 00-.542-.493l-1.182-.412-.706 2.288 1.182.411a.915.915 0 00.287.05c.03 0 .056 0 .081-.006a.825.825 0 00.343-.103.992.992 0 00.465-.575l.123-.406a1.008 1.008 0 00-.051-.754zm-1.167 1.534l-.941-.325.548-1.772.941.33a.609.609 0 01.231.14c.071.06.122.131.158.213a.808.808 0 01.071.265c.011.097 0 .19-.03.282l-.128.412a.694.694 0 01-.133.244.704.704 0 01-.205.173.78.78 0 01-.245.076.641.641 0 01-.267-.038zm1.167-1.534a.915.915 0 00-.542-.493l-1.182-.412-.706 2.288 1.182.411a.915.915 0 00.287.05c.03 0 .056 0 .081-.006a.825.825 0 00.343-.103.992.992 0 00.465-.575l.123-.406a1.008 1.008 0 00-.051-.754zm-1.167 1.534l-.941-.325.548-1.772.941.33a.609.609 0 01.231.14c.071.06.122.131.158.213a.808.808 0 01.071.265c.011.097 0 .19-.03.282l-.128.412a.694.694 0 01-.133.244.704.704 0 01-.205.173.78.78 0 01-.245.076.641.641 0 01-.267-.038zm1.167-1.534a.915.915 0 00-.542-.493l-1.182-.412-.706 2.288 1.182.411a.915.915 0 00.287.05c.03 0 .056 0 .081-.006a.825.825 0 00.343-.103.992.992 0 00.465-.575l.123-.406a1.008 1.008 0 00-.051-.754zm-1.167 1.534l-.941-.325.548-1.772.941.33a.609.609 0 01.231.14c.071.06.122.131.158.213a.808.808 0 01.071.265c.011.097 0 .19-.03.282l-.128.412a.694.694 0 01-.133.244.704.704 0 01-.205.173.78.78 0 01-.245.076.641.641 0 01-.267-.038zm1.167-1.534a.915.915 0 00-.542-.493l-1.182-.412-.706 2.288 1.182.411a.915.915 0 00.287.05c.03 0 .056 0 .081-.006a.825.825 0 00.343-.103.992.992 0 00.465-.575l.123-.406a1.008 1.008 0 00-.051-.754zm2.979 5.572l-.297-.12a.597.597 0 01-.226-.145.73.73 0 01-.148-.228.63.63 0 01-.061-.271.663.663 0 01.04-.276l.947-2.673a.647.647 0 01.138-.238.588.588 0 01.21-.157.713.713 0 01.256-.065h.031c.082 0 .153.016.235.043l.292.119a.635.635 0 01.23.152.65.65 0 01.148.222.74.74 0 01.062.266.642.642 0 01-.047.277l-.941 2.671a.722.722 0 01-.144.244.74.74 0 01-.209.158.636.636 0 01-.516.022zm2.025-3.75a.966.966 0 00-.199-.304.904.904 0 00-.318-.211L160 9.59a.866.866 0 00-.711.022.92.92 0 00-.291.217 1.042 1.042 0 00-.196.33l-.945 2.673a.932.932 0 00-.057.39c.005.125.03.25.081.369.052.114.119.216.205.303a.885.885 0 00.318.212l.291.119c.107.038.215.06.322.06h.047a.95.95 0 00.348-.087.98.98 0 00.48-.553l.947-2.672c.046-.13.067-.26.061-.39-.01-.13-.035-.25-.087-.363zm-2.025 3.75l-.297-.12a.597.597 0 01-.226-.145.73.73 0 01-.148-.228.63.63 0 01-.061-.271.663.663 0 01.04-.276l.947-2.673a.647.647 0 01.138-.238.588.588 0 01.21-.157.713.713 0 01.256-.065h.031c.082 0 .153.016.235.043l.292.119a.635.635 0 01.23.152.65.65 0 01.148.222.74.74 0 01.062.266.642.642 0 01-.047.277l-.941 2.671a.722.722 0 01-.144.244.74.74 0 01-.209.158.636.636 0 01-.516.022zm2.025-3.75a.966.966 0 00-.199-.304.904.904 0 00-.318-.211L160 9.59a.866.866 0 00-.711.022.92.92 0 00-.291.217 1.042 1.042 0 00-.196.33l-.945 2.673a.932.932 0 00-.057.39c.005.125.03.25.081.369.052.114.119.216.205.303a.885.885 0 00.318.212l.291.119c.107.038.215.06.322.06h.047a.95.95 0 00.348-.087.98.98 0 00.48-.553l.947-2.672c.046-.13.067-.26.061-.39-.01-.13-.035-.25-.087-.363zm-2.025 3.75l-.297-.12a.597.597 0 01-.226-.145.73.73 0 01-.148-.228.63.63 0 01-.061-.271.663.663 0 01.04-.276l.947-2.673a.647.647 0 01.138-.238.588.588 0 01.21-.157.713.713 0 01.256-.065h.031c.082 0 .153.016.235.043l.292.119a.635.635 0 01.23.152.65.65 0 01.148.222.74.74 0 01.062.266.642.642 0 01-.047.277l-.941 2.671a.722.722 0 01-.144.244.74.74 0 01-.209.158.636.636 0 01-.516.022zm2.025-3.75a.966.966 0 00-.199-.304.904.904 0 00-.318-.211L160 9.59a.866.866 0 00-.711.022.92.92 0 00-.291.217 1.042 1.042 0 00-.196.33l-.945 2.673a.932.932 0 00-.057.39c.005.125.03.25.081.369.052.114.119.216.205.303a.885.885 0 00.318.212l.291.119c.107.038.215.06.322.06h.047a.95.95 0 00.348-.087.98.98 0 00.48-.553l.947-2.672c.046-.13.067-.26.061-.39-.01-.13-.035-.25-.087-.363zm-2.025 3.75l-.297-.12a.597.597 0 01-.226-.145.73.73 0 01-.148-.228.63.63 0 01-.061-.271.663.663 0 01.04-.276l.947-2.673a.647.647 0 01.138-.238.588.588 0 01.21-.157.713.713 0 01.256-.065h.031c.082 0 .153.016.235.043l.292.119a.635.635 0 01.23.152.65.65 0 01.148.222.74.74 0 01.062.266.642.642 0 01-.047.277l-.941 2.671a.722.722 0 01-.144.244.74.74 0 01-.209.158.636.636 0 01-.516.022zm2.025-3.75a.966.966 0 00-.199-.304.904.904 0 00-.318-.211L160 9.59a.866.866 0 00-.711.022.92.92 0 00-.291.217 1.042 1.042 0 00-.196.33l-.945 2.673a.932.932 0 00-.057.39c.005.125.03.25.081.369.052.114.119.216.205.303a.885.885 0 00.318.212l.291.119c.107.038.215.06.322.06h.047a.95.95 0 00.348-.087.98.98 0 00.48-.553l.947-2.672c.046-.13.067-.26.061-.39-.01-.13-.035-.25-.087-.363zm-2.025 3.75l-.297-.12a.597.597 0 01-.226-.145.73.73 0 01-.148-.228.63.63 0 01-.061-.271.663.663 0 01.04-.276l.947-2.673a.647.647 0 01.138-.238.588.588 0 01.21-.157.713.713 0 01.256-.065h.031c.082 0 .153.016.235.043l.292.119a.635.635 0 01.23.152.65.65 0 01.148.222.74.74 0 01.062.266.642.642 0 01-.047.277l-.941 2.671a.722.722 0 01-.144.244.74.74 0 01-.209.158.636.636 0 01-.516.022zm1.104-.325l.947-2.672c.046-.13.067-.26.061-.39-.01-.13-.035-.25-.087-.363a.966.966 0 00-.199-.304.904.904 0 00-.318-.211L160 9.59a.866.866 0 00-.711.022.92.92 0 00-.291.217 1.042 1.042 0 00-.196.33l-.945 2.673a.932.932 0 00-.057.39c.005.125.03.25.081.369.052.114.119.216.205.303a.885.885 0 00.318.212l.291.119c.107.038.215.06.322.06h.047a.95.95 0 00.348-.087.98.98 0 00.48-.553zm-1.238.753l-.332-.13a1.191 1.191 0 01-.374-.244 1.233 1.233 0 01-.276-1.262l.946-2.673c.057-.151.128-.281.231-.39.102-.114.22-.2.348-.266.128-.06.266-.091.414-.102h.046c.129 0 .261.026.384.075l.337.136a.97.97 0 01.369.243c.108.104.19.228.246.364.061.135.091.287.102.439.005.152-.02.303-.072.455l-.946 2.672a1.228 1.228 0 01-.23.396 1.236 1.236 0 01-.343.26c-.134.06-.272.098-.415.103a.952.952 0 01-.435-.076zm2.574-4.363a1.521 1.521 0 00-.301-.445 1.295 1.295 0 00-.461-.303l-.333-.135a1.53 1.53 0 00-.537-.092 1.369 1.369 0 00-.507.13 1.4 1.4 0 00-.711.807l-.941 2.667a1.45 1.45 0 00-.087.569c.005.184.046.368.117.536.072.168.175.315.307.45.128.13.282.233.46.304l.334.13c.153.065.311.092.47.092h.061a1.358 1.358 0 00.932-.45c.122-.136.22-.298.286-.482l.947-2.672c.061-.184.092-.374.087-.564a1.648 1.648 0 00-.123-.542zm-2.44 3.935l-.297-.12a.597.597 0 01-.226-.145.73.73 0 01-.148-.228.63.63 0 01-.061-.271.663.663 0 01.04-.276l.947-2.673a.647.647 0 01.138-.238.588.588 0 01.21-.157.713.713 0 01.256-.065h.031c.082 0 .153.016.235.043l.292.119a.635.635 0 01.23.152.65.65 0 01.148.222.74.74 0 01.062.266.642.642 0 01-.047.277l-.941 2.671a.722.722 0 01-.144.244.74.74 0 01-.209.158.636.636 0 01-.516.022zm2.025-3.75a.966.966 0 00-.199-.304.904.904 0 00-.318-.211L160 9.59a.866.866 0 00-.711.022.92.92 0 00-.291.217 1.042 1.042 0 00-.196.33l-.945 2.673a.932.932 0 00-.057.39c.005.125.03.25.081.369.052.114.119.216.205.303a.885.885 0 00.318.212l.291.119c.107.038.215.06.322.06h.047a.95.95 0 00.348-.087.98.98 0 00.48-.553l.947-2.672c.046-.13.067-.26.061-.39-.01-.13-.035-.25-.087-.363zm-2.025 3.75l-.297-.12a.597.597 0 01-.226-.145.73.73 0 01-.148-.228.63.63 0 01-.061-.271.663.663 0 01.04-.276l.947-2.673a.647.647 0 01.138-.238.588.588 0 01.21-.157.713.713 0 01.256-.065h.031c.082 0 .153.016.235.043l.292.119a.635.635 0 01.23.152.65.65 0 01.148.222.74.74 0 01.062.266.642.642 0 01-.047.277l-.941 2.671a.722.722 0 01-.144.244.74.74 0 01-.209.158.636.636 0 01-.516.022zm2.025-3.75a.966.966 0 00-.199-.304.904.904 0 00-.318-.211L160 9.59a.866.866 0 00-.711.022.92.92 0 00-.291.217 1.042 1.042 0 00-.196.33l-.945 2.673a.932.932 0 00-.057.39c.005.125.03.25.081.369.052.114.119.216.205.303a.885.885 0 00.318.212l.291.119c.107.038.215.06.322.06h.047a.95.95 0 00.348-.087.98.98 0 00.48-.553l.947-2.672c.046-.13.067-.26.061-.39-.01-.13-.035-.25-.087-.363zm-2.025 3.75l-.297-.12a.597.597 0 01-.226-.145.73.73 0 01-.148-.228.63.63 0 01-.061-.271.663.663 0 01.04-.276l.947-2.673a.647.647 0 01.138-.238.588.588 0 01.21-.157.713.713 0 01.256-.065h.031c.082 0 .153.016.235.043l.292.119a.635.635 0 01.23.152.65.65 0 01.148.222.74.74 0 01.062.266.642.642 0 01-.047.277l-.941 2.671a.722.722 0 01-.144.244.74.74 0 01-.209.158.636.636 0 01-.516.022zm2.025-3.75a.966.966 0 00-.199-.304.904.904 0 00-.318-.211L160 9.59a.866.866 0 00-.711.022.92.92 0 00-.291.217 1.042 1.042 0 00-.196.33l-.945 2.673a.932.932 0 00-.057.39c.005.125.03.25.081.369.052.114.119.216.205.303a.885.885 0 00.318.212l.291.119c.107.038.215.06.322.06h.047a.95.95 0 00.348-.087.98.98 0 00.48-.553l.947-2.672c.046-.13.067-.26.061-.39-.01-.13-.035-.25-.087-.363zm-2.025 3.75l-.297-.12a.597.597 0 01-.226-.145.73.73 0 01-.148-.228.63.63 0 01-.061-.271.663.663 0 01.04-.276l.947-2.673a.647.647 0 01.138-.238.588.588 0 01.21-.157.713.713 0 01.256-.065h.031c.082 0 .153.016.235.043l.292.119a.635.635 0 01.23.152.65.65 0 01.148.222.74.74 0 01.062.266.642.642 0 01-.047.277l-.941 2.671a.722.722 0 01-.144.244.74.74 0 01-.209.158.636.636 0 01-.516.022zm2.025-3.75a.966.966 0 00-.199-.304.904.904 0 00-.318-.211L160 9.59a.866.866 0 00-.711.022.92.92 0 00-.291.217 1.042 1.042 0 00-.196.33l-.945 2.673a.932.932 0 00-.057.39c.005.125.03.25.081.369.052.114.119.216.205.303a.885.885 0 00.318.212l.291.119c.107.038.215.06.322.06h.047a.95.95 0 00.348-.087.98.98 0 00.48-.553l.947-2.672c.046-.13.067-.26.061-.39-.01-.13-.035-.25-.087-.363zm4.805 2.905l-.246.607a.651.651 0 01-.368.38.587.587 0 01-.256.053h-.005a.548.548 0 01-.255-.06l-.912-.406.773-1.924.906.412a.685.685 0 01.225.157.71.71 0 01.138.233.75.75 0 010 .548zm.24-.65a1.093 1.093 0 00-.194-.315.838.838 0 00-.307-.222l-1.147-.515-.966 2.422 1.146.515a.897.897 0 00.353.076h.01a.965.965 0 00.348-.07.937.937 0 00.297-.206.882.882 0 00.21-.32l.245-.612a1.049 1.049 0 00.005-.754zm-.24.65l-.246.607a.651.651 0 01-.368.38.587.587 0 01-.256.053h-.005a.548.548 0 01-.255-.06l-.912-.406.773-1.924.906.412a.685.685 0 01.225.157.71.71 0 01.138.233.75.75 0 010 .548zm.24-.65a1.093 1.093 0 00-.194-.315.838.838 0 00-.307-.222l-1.147-.515-.966 2.422 1.146.515a.897.897 0 00.353.076h.01a.965.965 0 00.348-.07.937.937 0 00.297-.206.882.882 0 00.21-.32l.245-.612a1.049 1.049 0 00.005-.754zm-.24.65l-.246.607a.651.651 0 01-.368.38.587.587 0 01-.256.053h-.005a.548.548 0 01-.255-.06l-.912-.406.773-1.924.906.412a.685.685 0 01.225.157.71.71 0 01.138.233.75.75 0 010 .548zm.24-.65a1.093 1.093 0 00-.194-.315.838.838 0 00-.307-.222l-1.147-.515-.966 2.422 1.146.515a.897.897 0 00.353.076h.01a.965.965 0 00.348-.07.937.937 0 00.297-.206.882.882 0 00.21-.32l.245-.612a1.049 1.049 0 00.005-.754zm-.24.65l-.246.607a.651.651 0 01-.368.38.587.587 0 01-.256.053h-.005a.548.548 0 01-.255-.06l-.912-.406.773-1.924.906.412a.685.685 0 01.225.157.71.71 0 01.138.233.75.75 0 010 .548zm.24-.65a1.093 1.093 0 00-.194-.315.838.838 0 00-.307-.222l-1.147-.515-.966 2.422 1.146.515a.897.897 0 00.353.076h.01a.965.965 0 00.348-.07.937.937 0 00.297-.206.882.882 0 00.21-.32l.245-.612a1.049 1.049 0 00.005-.754zm-.24.65l-.246.607a.651.651 0 01-.368.38.587.587 0 01-.256.053h-.005a.548.548 0 01-.255-.06l-.912-.406.773-1.924.906.412a.685.685 0 01.225.157.71.71 0 01.138.233.75.75 0 010 .548zm.046-.965a.838.838 0 00-.307-.222l-1.147-.515-.966 2.422 1.146.515a.897.897 0 00.353.076h.01a.965.965 0 00.348-.07.937.937 0 00.297-.206.882.882 0 00.21-.32l.245-.612a1.049 1.049 0 00.005-.754 1.093 1.093 0 00-.194-.314zm.369 1.149l-.246.607a1.028 1.028 0 01-.245.385 1.065 1.065 0 01-.773.33 1.02 1.02 0 01-.43-.092l-1.167-.525-.751 1.88-.18-.08 1.857-4.64 1.346.6a1.11 1.11 0 01.594.64c.056.136.082.288.082.44 0 .157-.031.308-.087.455zm.245-.997a1.605 1.605 0 00-.287-.466 1.34 1.34 0 00-.444-.32l-1.582-.71-2.056 5.143.65.293.751-1.881.932.417c.169.076.348.114.522.114h.005c.179 0 .353-.038.516-.103a1.381 1.381 0 00.737-.775l.246-.607a1.543 1.543 0 00.01-1.105zm-.66.813l-.246.607a.651.651 0 01-.368.38.587.587 0 01-.256.053h-.005a.548.548 0 01-.255-.06l-.912-.406.773-1.924.906.412a.685.685 0 01.225.157.71.71 0 01.138.233.75.75 0 010 .548zm.24-.65a1.093 1.093 0 00-.194-.315.838.838 0 00-.307-.222l-1.147-.515-.966 2.422 1.146.515a.897.897 0 00.353.076h.01a.965.965 0 00.348-.07.937.937 0 00.297-.206.882.882 0 00.21-.32l.245-.612a1.049 1.049 0 00.005-.754zm-.24.65l-.246.607a.651.651 0 01-.368.38.587.587 0 01-.256.053h-.005a.548.548 0 01-.255-.06l-.912-.406.773-1.924.906.412a.685.685 0 01.225.157.71.71 0 01.138.233.75.75 0 010 .548zm.24-.65a1.093 1.093 0 00-.194-.315.838.838 0 00-.307-.222l-1.147-.515-.966 2.422 1.146.515a.897.897 0 00.353.076h.01a.965.965 0 00.348-.07.937.937 0 00.297-.206.882.882 0 00.21-.32l.245-.612a1.049 1.049 0 00.005-.754zm-.24.65l-.246.607a.651.651 0 01-.368.38.587.587 0 01-.256.053h-.005a.548.548 0 01-.255-.06l-.912-.406.773-1.924.906.412a.685.685 0 01.225.157.71.71 0 01.138.233.75.75 0 010 .548zm.24-.65a1.093 1.093 0 00-.194-.315.838.838 0 00-.307-.222l-1.147-.515-.966 2.422 1.146.515a.897.897 0 00.353.076h.01a.965.965 0 00.348-.07.937.937 0 00.297-.206.882.882 0 00.21-.32l.245-.612a1.049 1.049 0 00.005-.754zm-.24.65l-.246.607a.651.651 0 01-.368.38.587.587 0 01-.256.053h-.005a.548.548 0 01-.255-.06l-.912-.406.773-1.924.906.412a.685.685 0 01.225.157.71.71 0 01.138.233.75.75 0 010 .548zm.24-.65a1.093 1.093 0 00-.194-.315.838.838 0 00-.307-.222l-1.147-.515-.966 2.422 1.146.515a.897.897 0 00.353.076h.01a.965.965 0 00.348-.07.937.937 0 00.297-.206.882.882 0 00.21-.32l.245-.612a1.049 1.049 0 00.005-.754zm2.273 3.225l1.734.866-.077.168-1.734-.873-.906 2.028 2.144 1.078-.077.168-2.318-1.165 2.036-4.558 2.324 1.165-.077.168-2.144-1.078-.905 2.032zm3.172-.597l.291-.656-2.783-1.398-2.251 5.051 2.778 1.393.296-.656-2.143-1.073.686-1.54 1.734.874.296-.662-1.739-.867.691-1.54 2.144 1.074zM30.886 35.298a3.85 3.85 0 00-1.427-.378 6.801 6.801 0 00-1.479.054 7.337 7.337 0 00-3.289 1.46 14.14 14.14 0 00-2.625 2.7 23.58 23.58 0 00-2.09 3.347 77.622 77.622 0 00-1.632 3.349 51.443 51.443 0 00-1.657 4.05 205.01 205.01 0 01-1.53 4.105 69.757 69.757 0 01-1.708 4.05 25.357 25.357 0 01-2.141 3.781c-.782 1.153-1.742 2.062-2.881 2.727-1.139.667-2.09 1.056-3.178 1.056-.17 0-.336-.01-.5-.029-.344-.04-.884-.13-1.852-.43-2.871-.891-2.703.017-2.332.408.396.424.848.802 1.362 1.13 1.121.718 2.285 1.133 3.492 1.241 1.206.108 2.396.008 3.569-.298a12.152 12.152 0 003.365-1.458 15.218 15.218 0 002.83-2.24 20.02 20.02 0 002.574-3.376 69.98 69.98 0 002.116-3.754 67.605 67.605 0 003.544-7.938 95.194 95.194 0 013.237-7.723 26.695 26.695 0 011.709-2.998c.628-.954 1.47-1.72 2.523-2.296.102-.071.153-.162.153-.27 0-.108-.05-.197-.153-.27z" fill="#EC0187"/><path d="M53.931 30.731c-.085-.125-.23-.116-.433.028-1.122.755-2.269 1.224-3.442 1.403a13.179 13.179 0 01-3.569.055c-4.117-.484-11.679-2.427-12.868-2.805-1.19-.378-2.363-.746-3.518-1.107a32.309 32.309 0 00-7.367-1.485c-2.465-.198-4.92.099-7.368.89-3.467 1.117-6.152 3.223-8.056 6.32-.986 1.62-1.674 3.277-2.064 4.969a16.31 16.31 0 00-.31 1.8c-.005.049-.007.097-.012.145.003.006.009.008.011.014l.029.057.015.016a.073.073 0 01.006.006l.041.016.058.01.065.005a1.61 1.61 0 00.272-.021l.12-.025a3.543 3.543 0 00.206-.055l.177-.09c.226-.124.455-.284.619-.432l.01-.008c.516-.467.91-1.063 1.233-1.697a9.58 9.58 0 01.774-1.28 11.107 11.107 0 011.963-2.08 14.157 14.157 0 012.345-1.566 17.33 17.33 0 015.047-1.701 21.013 21.013 0 015.303-.244c1.02.073 2.047.208 3.085.406 1.036.197 2.064.405 3.084.62 1.02.216 2.156.56 3.15.862 1.3.397 7.227 2.146 12.374 2.207.816.009 1.654-.017 2.622-.107.97-.09 1.86-.4 2.727-.724a7.476 7.476 0 002.32-1.377c.68-.594 1.138-1.395 1.376-2.404.068-.287.06-.494-.025-.62zm-4.313 25.282c-.066-.2-.179-.326-.333-.38a.569.569 0 00-.48.054c-.175.087-.307.277-.41.564-.476 1.301-.987 2.39-1.53 3.268-.542.884-1.08 1.594-1.606 2.136-.527.542-1.014.927-1.453 1.16-.44.233-.799.352-1.07.352-.476 0-.773-.276-.89-.84-.123-.558.04-1.485.48-2.78a240.411 240.411 0 011.172-3.588c.272-.814.553-1.675.845-2.597.286-.916.583-1.826.89-2.726.68-2.125 1.428-4.406 2.246-6.856h-2.701c-1.054 0-2.001.32-2.83.97-.834.65-1.438 1.496-1.811 2.537l-2.958 9.127a.821.821 0 00-.102.325c-.307.83-.67 1.664-1.095 2.51-.425.85-.87 1.631-1.325 2.351-.46.722-.926 1.307-1.402 1.757-.481.45-.957.672-1.428.672-.614 0-.895-.64-.844-1.913.051-1.28.332-2.91.844-4.89.507-1.977 1.198-4.156 2.062-6.536a83.165 83.165 0 012.881-6.91h-1.53a5.002 5.002 0 00-2.804.835c-.85.558-1.607 1.29-2.267 2.19-.665.899-1.243 1.934-1.734 3.105a31.209 31.209 0 00-1.248 3.534c-1.121 3.891-1.326 6.894-.615 9.018.717 2.126 2.195 3.188 4.436 3.188 1.12 0 2.098-.331 2.933-.998.833-.666 1.606-1.685 2.317-3.052.072 1.367.471 2.386 1.203 3.052.726.667 1.724.998 2.983.998 1.867 0 3.617-.808 5.25-2.429 1.53-1.517 2.757-3.517 3.688-5.983 0-.006.006-.011.006-.017.061-.157.122-.32.179-.482.102-.287.117-.531.05-.726z" fill="#EC0187"/><path d="M65.168 56.013c-.067-.2-.18-.326-.333-.38a.569.569 0 00-.48.054c-.165.082-.298.261-.395.526l-.015.038c-.476 1.301-.993 2.39-1.556 3.268-.562.884-1.094 1.594-1.606 2.136-.507.542-.988.927-1.428 1.16-.44.233-.798.352-1.069.352-.476 0-.773-.276-.89-.84-.077-.349-.042-.841.102-1.478a9.154 9.154 0 01.782-2.099l3.636-6.404c.376-.742.672-1.535.795-2.367a5.42 5.42 0 00.042-1.352c-.082-.824-.43-1.6-1.23-2.41-.566-.57-2.43-.991-3.53-1.492-1.043-.475-1.902-.55-2.613-1.162-.85-.65-1.735-1.317-2.65-2a116.184 116.184 0 01-.922 3.783 132.852 132.852 0 01-1.35 4.618 210.496 210.496 0 01-2.063 6.287c-.138.401-.179.732-.128 1.003.051.27.144.439.282.51.133.075.302.026.507-.13.112-.093.22-.223.327-.396 0-.006.005-.011.005-.017a3.14 3.14 0 00.23-.482c.338-.9.706-1.946 1.095-3.133.39-1.187.768-2.373 1.12-3.566.36-1.187.692-2.293.998-3.317.302-1.03.542-1.865.712-2.515l.511.542c.133.179.839.725 1.06.836.413.208 1.03.494 1.423.982.355.442.376.593.361 1.238a5.616 5.616 0 01-.645 2.482l-2.713 4.59c-.759 1.438-1.32 2.992-1.566 4.617-.056.368-.094.72-.115 1.054-.066 1.171.051 2.13.358 2.89.308.753.783 1.311 1.428 1.674.645.358 1.427.537 2.343.537 1.837 0 3.582-.808 5.23-2.429.445-.439.865-.916 1.258-1.436 1.065-1.393 1.945-3.078 2.64-5.046.103-.287.118-.531.052-.726z" fill="#EC0187"/><path d="M88.52 56.067c-.071-.2-.174-.326-.306-.38-.138-.054-.297-.037-.487.054-.184.087-.327.277-.43.564a19.113 19.113 0 01-1.427 2.76 14.869 14.869 0 01-1.709 2.238c-.599.628-1.197 1.127-1.811 1.484-.614.364-1.172.543-1.683.543-.579 0-.799-.624-.66-1.87.132-1.247.726-3.274 1.78-6.092 1.427-3.789 1.898-6.662 1.407-8.613-.496-1.946-2.067-2.921-4.718-2.921-1.294 0-2.507.477-3.648 1.43-1.136.954-2.215 2.24-3.234 3.86l.2-.542c.205-.575.256-1.15.154-1.724a3.882 3.882 0 00-.61-1.54 3.82 3.82 0 00-1.171-1.11 3.007 3.007 0 00-1.581-.428h-.563L63.96 56.212l-.015.038-.967 2.97c-.317.949-.486 1.8-.502 2.564-.025.807.118 1.507.425 2.108.594 1.171 1.638 1.757 3.136 1.757h.149l.051.054c1.157-3.708 2.297-6.83 3.418-9.372 1.12-2.536 2.16-4.569 3.111-6.103.952-1.528 1.817-2.601 2.6-3.214.782-.607 1.427-.861 1.939-.753.747.179.982.91.71 2.19-.27 1.273-1.002 3.425-2.189 6.45-.716 1.804-1.126 3.37-1.228 4.698-.097 1.334.02 2.462.358 3.377.343.916.86 1.605 1.555 2.054.697.45 1.505.673 2.42.673a6.406 6.406 0 003.189-.846 12.134 12.134 0 002.752-2.13 14.683 14.683 0 002.17-2.883 18.75 18.75 0 001.428-3.052c.102-.287.117-.531.05-.726zm58.07-1.675a25.031 25.031 0 01-1.146 4.59c-.512 1.42-1.141 2.63-1.888 3.616-.748.992-1.581 1.54-2.497 1.647-.916.071-1.607-.33-2.062-1.214-.461-.883-.742-2.016-.845-3.403-.102-1.382-.025-2.895.23-4.536a25.673 25.673 0 011.147-4.619c.512-1.436 1.141-2.655 1.888-3.642.747-.992 1.581-1.523 2.497-1.594.916-.075 1.617.331 2.092 1.214.477.884.753 2.017.84 3.404.086 1.383 0 2.895-.256 4.537zm6.426-4.32c-.189-1.712-.833-3.17-1.939-4.38-1.105-1.203-2.763-1.896-4.968-2.075-2.179-.179-4.176.222-5.992 1.214-1.822.992-3.351 2.277-4.589 3.86a17.096 17.096 0 00-2.804 5.267c-.63 1.925-.845 3.746-.64 5.453.205 1.713.85 3.181 1.939 4.401 1.09 1.225 2.717 1.908 4.897 2.054 2.174.18 4.17-.222 5.987-1.214a14.914 14.914 0 004.615-3.864 16.74 16.74 0 002.829-5.263c.63-1.924.85-3.745.665-5.453zm24.463 5.941c-.066-.2-.178-.326-.332-.38a.57.57 0 00-.481.054c-.174.087-.307.277-.41.564-.03.076-.056.157-.086.233-.451 1.198-.931 2.212-1.443 3.035-.543.884-1.08 1.594-1.607 2.136-.527.542-1.013.927-1.453 1.16-.44.233-.798.352-1.069.352-.477 0-.773-.276-.896-.84-.118-.558.047-1.485.486-2.78.102-.325.256-.802.461-1.431.204-.63.44-1.35.711-2.158.271-.813.552-1.674.844-2.596.287-.916.584-1.826.891-2.726.68-2.125 1.427-4.406 2.245-6.856h-2.706a4.47 4.47 0 00-2.829.97c-.834.65-1.433 1.496-1.807 2.537l-2.957 9.127a.817.817 0 00-.103.325c-.307.83-.67 1.664-1.095 2.51-.43.85-.869 1.631-1.33 2.351-.456.722-.926 1.307-1.401 1.757-.477.45-.953.672-1.428.672-.61 0-.891-.64-.84-1.913.052-1.28.333-2.91.84-4.89.511-1.977 1.202-4.156 2.067-6.536a81.819 81.819 0 012.88-6.91h-1.529a4.998 4.998 0 00-2.804.835c-.85.558-1.607 1.29-2.267 2.19-.665.899-1.244 1.934-1.735 3.105a30.315 30.315 0 00-1.248 3.534c-1.121 3.891-1.326 6.894-.614 9.018.716 2.126 2.194 3.188 4.436 3.188 1.12 0 2.098-.331 2.932-.998.834-.666 1.606-1.685 2.318-3.052.072 1.367.471 2.386 1.202 3.052.726.667 1.725.998 2.978.998 1.873 0 3.623-.808 5.255-2.429.916-.91 1.729-1.994 2.425-3.246a20.323 20.323 0 001.448-3.236c.103-.287.118-.531.051-.726z" fill="#EC0187"/><path d="M189.156 54.094c-.614 1.729-1.243 3.257-1.888 4.59a60.698 60.698 0 01-.941 1.703 10.091 10.091 0 01-1.05 1.485c-.373.428-.751.775-1.146 1.024-.388.255-.788.38-1.197.38-.613 0-.987-.445-1.12-1.323-.138-.883-.093-1.99.128-3.323.22-1.333.593-2.78 1.12-4.347a26.5 26.5 0 011.888-4.346c.727-1.334 1.556-2.44 2.471-3.323.916-.883 1.868-1.322 2.856-1.322.476 0 .824.108 1.044.32.219.216.368.417.434.596l-2.599 7.886zm-4.385 14.77c-.476 1.349-.993 2.536-1.556 3.566-.562 1.024-1.156 1.832-1.785 2.428-.63.596-1.315.894-2.062.894-.578 0-.977-.281-1.203-.84-.219-.558-.27-1.252-.148-2.076.117-.829.389-1.723.814-2.677a10.8 10.8 0 011.709-2.672 9.784 9.784 0 012.497-2.081c.951-.559 2.006-.835 3.161-.835a130.338 130.338 0 01-1.427 4.293zm15.893-12.852c-.066-.2-.174-.325-.328-.379-.154-.054-.322-.038-.512.054-.189.087-.332.277-.434.564-.031.076-.062.146-.092.222a17.133 17.133 0 01-1.285 2.51 13.817 13.817 0 01-1.908 2.428c-.732.737-2.175 2.276-4.401 3.052a433.726 433.726 0 011.761-5.453 981.51 981.51 0 001.857-5.73c.68-2.086 1.36-4.189 2.041-6.313-1.294-2.125-3.484-3.188-6.575-3.188-2.379 0-4.461.44-6.247 1.323-1.785.884-3.295 2.016-4.539 3.399a15.406 15.406 0 00-2.855 4.596 17.385 17.385 0 00-.977 3.387 13.773 13.773 0 00-.194 1.496 12.17 12.17 0 00.005 1.995c.072.818.23 1.582.481 2.298.44 1.279 1.151 2.206 2.139 2.786-1.699.753-2.964 1.815-3.797 3.181-.834 1.372-1.223 2.721-1.172 4.055.052 1.333.553 2.493 1.504 3.484.952.987 2.359 1.48 4.232 1.48 2.512 0 4.672-.634 6.472-1.913 1.801-1.28 3.265-3.415 4.386-6.401.035-.146.132-.46.307-.943.168-.488.373-1.09.608-1.81 3.357-.992 5.107-2.862 5.957-3.73a14 14 0 002.138-2.78 17.008 17.008 0 001.381-2.943c.098-.287.118-.531.047-.726z" fill="#EC0187"/><path d="M210.395 44.452a21.722 21.722 0 01-3.059 3.268l.562-1.675c.748-2.412 1.479-4.59 2.19-6.536.716-1.94 1.397-3.61 2.042-4.992.645-1.388 1.264-2.45 1.863-3.187.593-.737 1.161-1.106 1.704-1.106.409 0 .639.293.69.889.051.596-.051 1.388-.307 2.374-.256.992-.644 2.108-1.171 3.35a32.364 32.364 0 01-1.94 3.81 37.498 37.498 0 01-2.574 3.805zm13.565 11.615c-.072-.2-.175-.326-.308-.38-.137-.054-.295-.037-.485.054-.184.087-.333.277-.435.564-.404.976-.88 1.892-1.428 2.76a14.508 14.508 0 01-1.704 2.238c-.598.628-1.202 1.127-1.81 1.484-.615.364-1.173.543-1.684.543-.579 0-.799-.624-.661-1.87.133-1.247.727-3.274 1.781-6.092 1.397-3.719 1.827-6.564 1.3-8.531-.527-1.968-2.251-2.97-5.173-3.003 1.566-1.773 2.87-3.55 3.925-5.339 1.054-1.788 1.749-3.41 2.092-4.851.338-1.447.272-2.628-.205-3.55-.475-.922-1.463-1.382-2.957-1.382-1.53 0-2.993.536-4.385 1.62-1.391 1.084-2.686 2.504-3.874 4.271-1.191 1.768-2.261 3.79-3.213 6.06a72.32 72.32 0 00-2.497 6.922l-2.803 8.438c-.047.152-.098.304-.138.45-.461 1.507-.748 2.813-.86 3.93-.021.19-.031.369-.042.547-.056.981.011 1.8.196 2.456.224.775.598 1.344 1.125 1.702.521.362 1.161.542 1.908.542l.051.054c.952-3.03 1.905-5.75 2.856-8.152.951-2.401 1.867-4.44 2.753-6.12.884-1.674 1.719-2.964 2.497-3.87.783-.904 1.499-1.354 2.144-1.354 1.12 0 1.585.688 1.401 2.06-.189 1.37-.875 3.571-2.067 6.606-.711 1.805-1.11 3.377-1.197 4.71-.082 1.34.046 2.466.383 3.388.339.921.86 1.604 1.557 2.054.695.456 1.483.678 2.368.678a6.405 6.405 0 003.188-.846 12.128 12.128 0 002.753-2.13 14.72 14.72 0 002.169-2.883 18.736 18.736 0 001.428-3.052c.102-.287.117-.531.051-.726zm-98.476-9.777a41.577 41.577 0 01-.947 4.509 45.58 45.58 0 01-1.402 4.265 30.5 30.5 0 01-1.985 4.239 19.048 19.048 0 01-2.703 3.674 10.668 10.668 0 01-3.545 2.51 8.584 8.584 0 01-2.088.623c-.629.103-1.555.071-2.256-.005a13.08 13.08 0 01-.358-.049 3.685 3.685 0 01-.599-.146c-.67-.218-1.566-.672-2.697-1.578a.673.673 0 01-.061-.054c.814-.992 2.083-2.71 2.605-3.648.429-.774.834-1.566 1.227-2.378h.021c.563-.039 1.115-.055 1.709-.136 2.338-.293 4.707-1.48 6.365-3.523 1.991-2.454 2.505-5.682 1.274-8.652-.832-2.008-2.292-3.703-4.022-4.891a11.6 11.6 0 00-.823-.512 8.819 8.819 0 00-1.479-.677 8.117 8.117 0 00-2.344-.472 6.807 6.807 0 00-4.037.976c-2.306 1.404-3.585 4.735-2.2 7.312l.507-.098c-.005-2.238 1.187-4.092 2.85-4.666 2.868-.991 5.932.567 7.824 2.85.621.75 1.142 1.604 1.437 2.556.522 1.686.13 3.398-.798 4.832a7.528 7.528 0 01-2.083 2.12 7.557 7.557 0 01-2.757 1.072 21.1 21.1 0 01-.589.071c.998-2.174 1.97-4.385 2.912-6.64.301-.753.603-1.512.921-2.282-1.576-2.758-3.823-3.3-4.621-3.409a32 32 0 00-1.243 2.45 41.136 41.136 0 00-1.555 3.913c-.461 1.35-.926 2.694-1.403 4.027-.149.412-.297.824-.455 1.236-1.981-.925-3.148-2.863-3.847-4.954-.543-1.62-.869-3.363-.719-5.087.148-1.702.729-3.404 1.38-4.957.199-.477.412-.947.632-1.414.681-1.3 1.443-2.433 2.293-3.403a15.018 15.018 0 013.393-2.944 11.804 11.804 0 014.052-1.647c1.499-.287 3.034-.271 4.615.054 1.581.325 2.983.97 4.206 1.946 1.223.97 2.119 2.168 2.676 3.588.563 1.425.885 2.937.972 4.537.082 1.604 0 3.224-.255 4.861zm-24.832 18.552c-.589.417-1.617.742-2.625.889a1.194 1.194 0 00-.24.005c-1.27.141-3.756-.845-3.858-2.542-.098-1.696 1.97-3.393 4.206-2.932 1.448.298 2.706 1.713 4.036 3.192-.46.537-.966.998-1.519 1.388zm30.643-22.791c-.326-2.055-.976-4-1.964-5.833-.952-1.728-2.184-3.154-3.694-4.27a13.044 13.044 0 00-5.025-2.266 18.713 18.713 0 00-4.487-.325c-1.53.07-3.009.341-4.436.813a16.534 16.534 0 00-5.173 2.726 29.74 29.74 0 00-4.308 4.13 20.544 20.544 0 00-2.472 3.62c-1.556 2.897-2.205 6.62-1.092 9.808.132.378.285.748.456 1.108.797 1.679 1.924 3.263 3.358 4.375a10.423 10.423 0 002.932 1.577c-.112.303-.23.602-.353.9a22.731 22.731 0 01-1.238 2.574c-.849-.824-1.827-1.582-3.06-2.14-4.242-1.908-8.668.856-8.345 4.596.23 2.601 2.793 3.598 2.793 3.598h.026a6.992 6.992 0 001.95.743 9.057 9.057 0 003.617.081 7.956 7.956 0 002.958-1.106c.362-.233.715-.476 1.064-.747.041-.032.712.468.811.523.337.186.716.317 1.072.455.707.271 1.43.496 2.164.671 2.099.503 4.344.67 6.462.204a14.073 14.073 0 002.702-.867 19.156 19.156 0 005.045-3.051 21.704 21.704 0 004.007-4.402 26.424 26.424 0 002.829-5.371 24.18 24.18 0 001.479-5.913 21.712 21.712 0 00-.078-6.211z" fill="#EC0187"/></svg>