<svg width="14" height="18" viewBox="0 0 14 18" fill="none"
   xmlns="http://www.w3.org/2000/svg">
   <g clip-path="url(#clip0_1037_589)" id="g6" transform="translate(-9.0817369,-5.6318102)">
      <path d="M 21.3228,11.8299 C 21.8271,10.8965 21.9595,9.8069 21.6936,8.77987 21.4276,7.75285 20.783,6.86446 19.8891,6.29311 18.9952,5.72177 17.9182,5.50977 16.8744,5.69969 15.8307,5.88961 14.8974,6.46738 14.262,7.31699 13.5465,6.9529 12.7212,6.86773 11.9464,7.07802 c -0.7748,0.21029 -1.4437,0.70103 -1.877,1.37692 -0.85627,1.33972 -0.65204,2.99816 0.4164,4.02766 0.0138,0.0131 0.0225,0.0307 0.0246,0.0496 0.0021,0.0189 -0.0025,0.0379 -0.013,0.0538 l -0.84477,1.3216 c -0.47513,0.7434 -0.28955,1.7432 0.44117,2.2352 0.1787,0.1206 0.3798,0.2043 0.5914,0.246 0.2115,0.0417 0.4293,0.0407 0.6405,-0.0031 0.2111,-0.0438 0.4114,-0.1293 0.5889,-0.2517 0.1776,-0.1223 0.3289,-0.279 0.445,-0.4607 l 1.0407,-1.6284 c 0.0071,-0.011 0.0168,-0.0202 0.0282,-0.0266 0.0114,-0.0065 0.0242,-0.01 0.0373,-0.0104 0.0131,-5e-4 0.0261,0.0023 0.0378,0.0081 0.0118,0.0057 0.022,0.0142 0.0298,0.0248 0.2389,0.3268 0.5347,0.608 0.8733,0.8299 0.5349,0.3368 1.1759,0.4631 1.7986,0.3543 0.0202,-0.0038 0.0411,3e-4 0.0585,0.0113 0.0173,0.0111 0.0298,0.0284 0.0348,0.0483 0.1833,0.7457 0.6442,1.3934 1.2887,1.8108 0.6994,0.4475 1.5442,0.6086 2.3592,0.4499 0.815,-0.1587 1.5377,-0.625 2.0181,-1.3022 0.4805,-0.6772 0.6818,-1.5134 0.5623,-2.335 -0.1195,-0.8217 -0.5506,-1.5659 -1.2041,-2.0782 z" fill="#ec0187" id="path2" />
      <path d="m 13.7112,15.9599 -0.261,0.4085 c -0.364,0.5676 -0.9137,0.9913 -1.5553,1.1989 -0.6416,0.2075 -1.3354,0.186 -1.96286,-0.0609 0,0 -1.53045,3.4079 -0.48485,5.1249 1.74771,2.87 7.31231,-4.5351 7.31231,-4.5351 -0.5753,-0.3996 -1.043,-0.935 -1.3616,-1.5588 -0.6002,-0.0555 -1.1784,-0.2535 -1.6867,-0.5775 z" fill="#ec0187" id="path4" />
   </g>
   <defs id="defs11">
      <clipPath id="clip0_1037_589">
         <rect width="20.682899" height="20.682899" fill="#ffffff" transform="rotate(32.5848,5.4550383,19.802814)" id="rect8" x="0" y="0" />
      </clipPath>
   </defs>
</svg>
