<svg width="14" height="18" viewBox="0 0 14 18" fill="none"
   xmlns="http://www.w3.org/2000/svg">
   <path d="m 8.709,3.958313 v -3.15875 c 0.0475,0.03958 0.095,0.08708 0.1346,0.12666 l 4.4808,4.48084 c 0.0396,0.03958 0.0871,0.08708 0.1267,0.13458 H 10.2923 C 9.8728,5.540393 9.4708,5.373173 9.1741,5.076513 8.8775,4.779853 8.7102,4.377853 8.709,3.958313 Z" fill="#ec0187" id="path2" />
   <path d="m 14.2025,7.125003 h -3.9108 c -0.8399,0 -1.6453,-0.33363 -2.2392,-0.9275 C 7.45863,5.603643 7.125,4.798183 7.125,3.958333 V 0.0475 C 6.95261,0.015997 6.77774,9.9e-5 6.6025,0 H 2.375 C 1.74511,0 1.14102,0.250223 0.69562,0.695623 0.25022,1.141023 0,1.745113 0,2.375003 v 12.66671 c 0,0.6298 0.25022,1.2339 0.69562,1.6793 0.4454,0.4454 1.04949,0.6957 1.67938,0.6957 h 9.5 c 0.6299,0 1.234,-0.2503 1.6794,-0.6957 0.4454,-0.4454 0.6956,-1.0495 0.6956,-1.6793 v -7.39421 c -10e-5,-0.17524 -0.016,-0.35012 -0.0475,-0.5225 z m -11.03583,3.16671 h 3.16666 c 0.20997,0 0.41133,0.0834 0.5598,0.2318 0.14846,0.1485 0.23187,0.3499 0.23187,0.5598 0,0.21 -0.08341,0.4113 -0.23187,0.5598 -0.14847,0.1485 -0.34983,0.2319 -0.5598,0.2319 H 3.16667 c -0.20997,0 -0.41133,-0.0834 -0.5598,-0.2319 -0.14846,-0.1485 -0.23187,-0.3498 -0.23187,-0.5598 0,-0.2099 0.08341,-0.4113 0.23187,-0.5598 0.14847,-0.1484 0.34983,-0.2318 0.5598,-0.2318 z m 7.91663,4.75 H 3.16667 c -0.20997,0 -0.41133,-0.0835 -0.5598,-0.2319 -0.14846,-0.1485 -0.23187,-0.3499 -0.23187,-0.5598 0,-0.21 0.08341,-0.4113 0.23187,-0.5598 0.14847,-0.1485 0.34983,-0.2319 0.5598,-0.2319 h 7.91663 c 0.21,0 0.4114,0.0834 0.5598,0.2319 0.1485,0.1485 0.2319,0.3498 0.2319,0.5598 0,0.2099 -0.0834,0.4113 -0.2319,0.5598 -0.1484,0.1484 -0.3498,0.2319 -0.5598,0.2319 z" fill="#ec0187" id="path4" />
</svg>
