<svg width="14" height="18" viewBox="0 0 14 18" fill="none" xmlns="http://www.w3.org/2000/svg">
<path d="M7 0.75C5.20979 0.75 3.4929 1.46116 2.22703 2.72703C0.961159 3.9929 0.25 5.70979 0.25 7.5C0.25 13.5 7 17.25 7 17.25C7 17.25 13.75 13.5 13.75 7.5C13.75 5.70979 13.0388 3.9929 11.773 2.72703C10.5071 1.46116 8.79021 0.75 7 0.75ZM7 10.5C6.40666 10.5 5.82664 10.3241 5.33329 9.99441C4.83994 9.66476 4.45542 9.19623 4.22836 8.64805C4.0013 8.09987 3.94189 7.49667 4.05764 6.91473C4.1734 6.33279 4.45912 5.79824 4.87868 5.37868C5.29824 4.95912 5.83279 4.6734 6.41473 4.55764C6.99667 4.44189 7.59987 4.5013 8.14805 4.72836C8.69623 4.95542 9.16476 5.33994 9.49441 5.83329C9.82405 6.32664 10 6.90666 10 7.5C10 8.29565 9.68393 9.05871 9.12132 9.62132C8.55871 10.1839 7.79565 10.5 7 10.5Z" fill="#EC0187"/>
</svg>
