<?xml version="1.0" encoding="utf-8"?>
<svg xmlns="http://www.w3.org/2000/svg"
	xmlns:xlink="http://www.w3.org/1999/xlink">
	<symbol viewBox="0 0 36 31" id="arrow"
		xmlns="http://www.w3.org/2000/svg">
		<path fill-rule="evenodd" clip-rule="evenodd" d="M27.409 18.777c2.395-2.093 5.276-2.785 7.142-2.785a1.334 1.334 0 0 0 .095-2.665c-1.906-.136-4.832-.968-7.256-3.01-2.373-2-4.337-5.215-4.337-10.317h-2.668c0 5.89 2.313 9.852 5.287 12.357.417.352.846.673 1.281.967H0v2.668h26.628a13.8 13.8 0 0 0-.975.776c-2.998 2.62-5.268 6.898-5.268 13.464h2.668c0-5.894 2.007-9.403 4.356-11.455z"/>
	</symbol>
	<symbol viewBox="0 0 32 32" id="facebook"
		xmlns="http://www.w3.org/2000/svg">
		<g clip-path="url(#bclip0_86_8107)">
			<path d="M21.33 5.313h2.92V.225C23.748.156 22.015 0 19.996 0c-4.212 0-7.098 2.65-7.098 7.519V12H8.25v5.688h4.648V32h5.698V17.69h4.46L23.764 12h-5.17V8.083c.002-1.644.445-2.77 2.735-2.77z"/>
		</g>
		<defs>
			<clipPath id="bclip0_86_8107">
				<path d="M0 0h32v32H0z"/>
			</clipPath>
		</defs>
	</symbol>
	<symbol viewBox="0 0 26 26" id="instagram"
		xmlns="http://www.w3.org/2000/svg">
		<g clip-path="url(#cclip0_86_8110)">
			<path d="M18.962 0H7.038A7.046 7.046 0 0 0 0 7.038v11.924A7.046 7.046 0 0 0 7.038 26h11.924A7.046 7.046 0 0 0 26 18.962V7.038A7.046 7.046 0 0 0 18.962 0zM13 20.11c-3.92 0-7.11-3.19-7.11-7.11 0-3.92 3.19-7.11 7.11-7.11 3.92 0 7.11 3.19 7.11 7.11 0 3.92-3.19 7.11-7.11 7.11zm7.28-12.543c-1.16 0-2.102-.942-2.102-2.1 0-1.159.943-2.101 2.101-2.101 1.159 0 2.101.942 2.101 2.1 0 1.16-.942 2.101-2.1 2.101z"/>
			<path d="M13 7.415A5.591 5.591 0 0 0 7.415 13 5.591 5.591 0 0 0 13 18.585 5.591 5.591 0 0 0 18.585 13 5.591 5.591 0 0 0 13 7.415zM20.28 4.89a.577.577 0 1 0 0 1.155.577.577 0 0 0 0-1.155z"/>
		</g>
		<defs>
			<clipPath id="cclip0_86_8110">
				<path d="M0 0h26v26H0z"/>
			</clipPath>
		</defs>
	</symbol>
	<symbol viewBox="0 0 30 31" id="point"
		xmlns="http://www.w3.org/2000/svg">
		<path d="M15 1.474a11.25 11.25 0 0 0-11.25 11.25c0 10 11.25 16.25 11.25 16.25s11.25-6.25 11.25-16.25A11.25 11.25 0 0 0 15 1.474zm0 16.25a5 5 0 1 1 0-10 5 5 0 0 1 0 10z"/>
	</symbol>
	<symbol viewBox="0 0 384 512" id="twitter"
		xmlns="http://www.w3.org/2000/svg">
		<path d="M42.9 240.32l99.62 48.61c19.2 9.4 16.2 37.51-4.5 42.71L30.5 358.45a22.79 22.79 0 0 1-28.21-19.6 197.16 197.16 0 0 1 9-85.32 22.8 22.8 0 0 1 31.61-13.21zm44 239.25a199.45 199.45 0 0 0 79.42 32.11A22.78 22.78 0 0 0 192.94 490l3.9-110.82c.7-21.3-25.5-31.91-39.81-16.1l-74.21 82.4a22.82 22.82 0 0 0 4.09 34.09zm145.34-109.92l58.81 94a22.93 22.93 0 0 0 34 5.5 198.36 198.36 0 0 0 52.71-67.61A23 23 0 0 0 364.17 370l-105.42-34.26c-20.31-6.5-37.81 15.8-26.51 33.91zm148.33-132.23a197.44 197.44 0 0 0-50.41-69.31 22.85 22.85 0 0 0-34 4.4l-62 91.92c-11.9 17.7 4.7 40.61 25.2 34.71L366 268.63a23 23 0 0 0 14.61-31.21zM62.11 30.18a22.86 22.86 0 0 0-9.9 32l104.12 180.44c11.7 20.2 42.61 11.9 42.61-11.4V22.88a22.67 22.67 0 0 0-24.5-22.8 320.37 320.37 0 0 0-112.33 30.1z"/>
	</symbol>
	<symbol xmlns="http://www.w3.org/2000/svg" viewBox="0 0 512 512" id="tiktok">
		<path d="M412.19,118.66a109.27,109.27,0,0,1-9.45-5.5,132.87,132.87,0,0,1-24.27-20.62c-18.1-20.71-24.86-41.72-27.35-56.43h.1C349.14,23.9,350,16,350.13,16H267.69V334.78c0,4.28,0,8.51-.18,12.69,0,.52-.05,1-.08,1.56,0,.23,0,.47-.05.71,0,.06,0,.12,0,.18a70,70,0,0,1-35.22,55.56,68.8,68.8,0,0,1-34.11,9c-38.41,0-69.54-31.32-69.54-70s31.13-70,69.54-70a68.9,68.9,0,0,1,21.41,3.39l.1-83.94a153.14,153.14,0,0,0-118,34.52,161.79,161.79,0,0,0-35.3,43.53c-3.48,6-16.61,30.11-18.2,69.24-1,22.21,5.67,45.22,8.85,54.73v.2c2,5.6,9.75,24.71,22.38,40.82A167.53,167.53,0,0,0,115,470.66v-.2l.2.2C155.11,497.78,199.36,496,199.36,496c7.66-.31,33.32,0,62.46-13.81,32.32-15.31,50.72-38.12,50.72-38.12a158.46,158.46,0,0,0,27.64-45.93c7.46-19.61,9.95-43.13,9.95-52.53V176.49c1,.6,14.32,9.41,14.32,9.41s19.19,12.3,49.13,20.31c21.48,5.7,50.42,6.9,50.42,6.9V131.27C453.86,132.37,433.27,129.17,412.19,118.66Z"/>
	</symbol>
	<symbol xmlns="http://www.w3.org/2000/svg" viewBox="0 0 34 34" id="chat">
		<path d="M22.202 3.09399C20.468 2.51599 18.7 2.24399 16.898 2.31199C8.84002 2.54999 2.48202 9.28199 2.75402 17.374C2.78802 19.04 3.12802 20.672 3.74002 22.202C4.25002 23.494 4.93002 24.718 5.81402 25.806L4.59002 28.696C4.11402 29.784 4.62402 31.076 5.74602 31.518C6.12002 31.688 6.56202 31.722 6.97002 31.654L12.58 30.668C20.196 33.32 28.526 29.308 31.178 21.692C33.83 14.076 29.818 5.74599 22.202 3.09399ZM11.458 19.414C10.234 19.414 9.21402 18.428 9.21402 17.17C9.21402 15.946 10.2 14.926 11.458 14.926C12.682 14.926 13.702 15.912 13.702 17.17C13.702 18.428 12.682 19.414 11.458 19.414ZM17.34 19.414C16.116 19.414 15.096 18.428 15.096 17.17C15.096 15.912 16.082 14.926 17.34 14.926C18.564 14.926 19.584 15.912 19.584 17.17C19.584 18.428 18.564 19.414 17.34 19.414ZM23.222 19.414C21.998 19.414 20.978 18.428 20.978 17.17C20.978 15.912 21.964 14.926 23.222 14.926C24.446 14.926 25.466 15.912 25.466 17.17C25.466 18.428 24.446 19.414 23.222 19.414Z"/>
	</symbol>
	<symbol xmlns="http://www.w3.org/2000/svg" viewBox="0 0 24 24" id="phone">
		<path d="M23.347 17.6136L19.9977 14.2643C18.8015 13.0681 16.7681 13.5467 16.2896 15.1016C15.9307 16.1782 14.7346 16.7763 13.658 16.537C11.2657 15.9389 8.03602 12.8289 7.43794 10.317C7.07909 9.24036 7.79679 8.04419 8.87334 7.68538C10.4284 7.20692 10.9068 5.17343 9.71066 3.97726L6.36138 0.627989C5.40445 -0.209329 3.96905 -0.209329 3.13173 0.627989L0.859009 2.90071C-1.41371 5.29305 1.09824 11.6327 6.72024 17.2547C12.3422 22.8767 18.6819 25.5083 21.0743 23.116L23.347 20.8432C24.1843 19.8863 24.1843 18.4509 23.347 17.6136Z"/>
	</symbol>
	<symbol xmlns="http://www.w3.org/2000/svg" viewBox="0 0 40 40" id="clock">
		<path d="M20 3.75C11.0234 3.75 3.75 11.0234 3.75 20C3.75 28.9766 11.0234 36.25 20 36.25C28.9766 36.25 36.25 28.9766 36.25 20C36.25 11.0234 28.9766 3.75 20 3.75ZM21.3281 21.3281H12.5V20H20V10H21.3281V21.3281Z"/>
	</symbol>
</svg>