<?xml version="1.0" encoding="utf-8"?><svg xmlns="http://www.w3.org/2000/svg" xmlns:xlink="http://www.w3.org/1999/xlink"><symbol viewBox="0 0 36 31" id="arrow" xmlns="http://www.w3.org/2000/svg"><path fill-rule="evenodd" clip-rule="evenodd" d="M27.409 18.777c2.395-2.093 5.276-2.785 7.142-2.785a1.334 1.334 0 0 0 .095-2.665c-1.906-.136-4.832-.968-7.256-3.01-2.373-2-4.337-5.215-4.337-10.317h-2.668c0 5.89 2.313 9.852 5.287 12.357.417.352.846.673 1.281.967H0v2.668h26.628a13.8 13.8 0 0 0-.975.776c-2.998 2.62-5.268 6.898-5.268 13.464h2.668c0-5.894 2.007-9.403 4.356-11.455z"/></symbol><symbol viewBox="0 0 32 32" id="facebook" xmlns="http://www.w3.org/2000/svg"><g clip-path="url(#bclip0_86_8107)"><path d="M21.33 5.313h2.92V.225C23.748.156 22.015 0 19.996 0c-4.212 0-7.098 2.65-7.098 7.519V12H8.25v5.688h4.648V32h5.698V17.69h4.46L23.764 12h-5.17V8.083c.002-1.644.445-2.77 2.735-2.77z"/></g><defs><clipPath id="bclip0_86_8107"><path d="M0 0h32v32H0z"/></clipPath></defs></symbol><symbol viewBox="0 0 26 26" id="instagram" xmlns="http://www.w3.org/2000/svg"><g clip-path="url(#cclip0_86_8110)"><path d="M18.962 0H7.038A7.046 7.046 0 0 0 0 7.038v11.924A7.046 7.046 0 0 0 7.038 26h11.924A7.046 7.046 0 0 0 26 18.962V7.038A7.046 7.046 0 0 0 18.962 0zM13 20.11c-3.92 0-7.11-3.19-7.11-7.11 0-3.92 3.19-7.11 7.11-7.11 3.92 0 7.11 3.19 7.11 7.11 0 3.92-3.19 7.11-7.11 7.11zm7.28-12.543c-1.16 0-2.102-.942-2.102-2.1 0-1.159.943-2.101 2.101-2.101 1.159 0 2.101.942 2.101 2.1 0 1.16-.942 2.101-2.1 2.101z"/><path d="M13 7.415A5.591 5.591 0 0 0 7.415 13 5.591 5.591 0 0 0 13 18.585 5.591 5.591 0 0 0 18.585 13 5.591 5.591 0 0 0 13 7.415zM20.28 4.89a.577.577 0 1 0 0 1.155.577.577 0 0 0 0-1.155z"/></g><defs><clipPath id="cclip0_86_8110"><path d="M0 0h26v26H0z"/></clipPath></defs></symbol><symbol viewBox="0 0 30 31" id="point" xmlns="http://www.w3.org/2000/svg"><path d="M15 1.474a11.25 11.25 0 0 0-11.25 11.25c0 10 11.25 16.25 11.25 16.25s11.25-6.25 11.25-16.25A11.25 11.25 0 0 0 15 1.474zm0 16.25a5 5 0 1 1 0-10 5 5 0 0 1 0 10z"/></symbol><symbol viewBox="0 0 37 37" id="twitter" xmlns="http://www.w3.org/2000/svg"><path d="M34.483 9.832c-1.181.525-2.453.88-3.788 1.038a6.608 6.608 0 0 0 2.9-3.65 13.204 13.204 0 0 1-4.188 1.602 6.596 6.596 0 0 0-11.41 4.513c0 .517.058 1.02.17 1.503A18.728 18.728 0 0 1 4.572 7.947a6.563 6.563 0 0 0-.893 3.316 6.592 6.592 0 0 0 2.935 5.49 6.577 6.577 0 0 1-2.988-.825v.083a6.601 6.601 0 0 0 5.29 6.468 6.632 6.632 0 0 1-2.979.112 6.603 6.603 0 0 0 6.162 4.581 13.232 13.232 0 0 1-8.192 2.824c-.532 0-1.057-.031-1.573-.093a18.665 18.665 0 0 0 10.11 2.964c12.134 0 18.768-10.05 18.768-18.767 0-.286-.006-.571-.018-.855a13.36 13.36 0 0 0 3.29-3.413z"/></symbol></svg>